%TF.GenerationSoftware,KiCad,Pcbnew,8.0.2*%
%TF.CreationDate,2024-05-08T19:58:35+03:00*%
%TF.ProjectId,deneme,64656e65-6d65-42e6-9b69-6361645f7063,rev?*%
%TF.SameCoordinates,Original*%
%TF.FileFunction,Copper,L2,Bot*%
%TF.FilePolarity,Positive*%
%FSLAX46Y46*%
G04 Gerber Fmt 4.6, Leading zero omitted, Abs format (unit mm)*
G04 Created by KiCad (PCBNEW 8.0.2) date 2024-05-08 19:58:35*
%MOMM*%
%LPD*%
G01*
G04 APERTURE LIST*
G04 Aperture macros list*
%AMRoundRect*
0 Rectangle with rounded corners*
0 $1 Rounding radius*
0 $2 $3 $4 $5 $6 $7 $8 $9 X,Y pos of 4 corners*
0 Add a 4 corners polygon primitive as box body*
4,1,4,$2,$3,$4,$5,$6,$7,$8,$9,$2,$3,0*
0 Add four circle primitives for the rounded corners*
1,1,$1+$1,$2,$3*
1,1,$1+$1,$4,$5*
1,1,$1+$1,$6,$7*
1,1,$1+$1,$8,$9*
0 Add four rect primitives between the rounded corners*
20,1,$1+$1,$2,$3,$4,$5,0*
20,1,$1+$1,$4,$5,$6,$7,0*
20,1,$1+$1,$6,$7,$8,$9,0*
20,1,$1+$1,$8,$9,$2,$3,0*%
G04 Aperture macros list end*
%TA.AperFunction,ComponentPad*%
%ADD10R,1.700000X1.700000*%
%TD*%
%TA.AperFunction,ComponentPad*%
%ADD11O,1.700000X1.700000*%
%TD*%
%TA.AperFunction,ComponentPad*%
%ADD12R,1.500000X1.500000*%
%TD*%
%TA.AperFunction,ComponentPad*%
%ADD13C,1.500000*%
%TD*%
%TA.AperFunction,ComponentPad*%
%ADD14C,2.300000*%
%TD*%
%TA.AperFunction,ComponentPad*%
%ADD15R,1.600000X1.600000*%
%TD*%
%TA.AperFunction,ComponentPad*%
%ADD16O,1.600000X1.600000*%
%TD*%
%TA.AperFunction,ComponentPad*%
%ADD17O,2.000000X0.900000*%
%TD*%
%TA.AperFunction,ComponentPad*%
%ADD18O,1.700000X0.900000*%
%TD*%
%TA.AperFunction,ComponentPad*%
%ADD19C,1.080000*%
%TD*%
%TA.AperFunction,ComponentPad*%
%ADD20RoundRect,0.250000X0.450000X-0.450000X0.450000X0.450000X-0.450000X0.450000X-0.450000X-0.450000X0*%
%TD*%
%TA.AperFunction,ComponentPad*%
%ADD21C,1.400000*%
%TD*%
%TA.AperFunction,ViaPad*%
%ADD22C,0.600000*%
%TD*%
%TA.AperFunction,Conductor*%
%ADD23C,0.500000*%
%TD*%
%TA.AperFunction,Conductor*%
%ADD24C,0.300000*%
%TD*%
%TA.AperFunction,Conductor*%
%ADD25C,0.200000*%
%TD*%
G04 APERTURE END LIST*
D10*
%TO.P,J2,1,Pin_1*%
%TO.N,+3V3*%
X190000000Y-65595000D03*
D11*
%TO.P,J2,2,Pin_2*%
%TO.N,/SWDIO*%
X187460000Y-65595000D03*
%TO.P,J2,3,Pin_3*%
%TO.N,/SWCLK*%
X184920000Y-65595000D03*
%TO.P,J2,4,Pin_4*%
%TO.N,GND*%
X182380000Y-65595000D03*
%TD*%
D12*
%TO.P,J4,1*%
%TO.N,/ETH1*%
X138220000Y-74848000D03*
D13*
%TO.P,J4,2*%
%TO.N,/ETH2*%
X140000000Y-73832000D03*
%TO.P,J4,3*%
%TO.N,/ETH3*%
X138220000Y-72816000D03*
%TO.P,J4,4*%
%TO.N,unconnected-(J4-Pad4)*%
X140000000Y-71800000D03*
%TO.P,J4,5*%
%TO.N,GND*%
X138220000Y-70784000D03*
%TO.P,J4,6*%
%TO.N,/ETH6*%
X140000000Y-69768000D03*
%TO.P,J4,7*%
%TO.N,unconnected-(J4-Pad7)*%
X138220000Y-68752000D03*
%TO.P,J4,8*%
%TO.N,+5V*%
X140000000Y-67736000D03*
%TO.P,J4,9*%
%TO.N,N/C*%
X144820000Y-78148000D03*
%TO.P,J4,10*%
X144820000Y-75858000D03*
%TO.P,J4,11*%
X144820000Y-66718000D03*
%TO.P,J4,12*%
X144820000Y-64428000D03*
D14*
%TO.P,J4,SH*%
X139110000Y-79418000D03*
X139110000Y-63158000D03*
%TD*%
D10*
%TO.P,J3,1,Pin_1*%
%TO.N,/M0*%
X173890000Y-86550000D03*
D11*
%TO.P,J3,2,Pin_2*%
%TO.N,/M1*%
X171350000Y-86550000D03*
%TO.P,J3,3,Pin_3*%
%TO.N,/USART2_RXD*%
X168810000Y-86550000D03*
%TO.P,J3,4,Pin_4*%
%TO.N,/USART2_TXD*%
X166270000Y-86550000D03*
%TO.P,J3,5,Pin_5*%
%TO.N,/AUX*%
X163730000Y-86550000D03*
%TO.P,J3,6,Pin_6*%
%TO.N,+3V3*%
X161190000Y-86550000D03*
%TO.P,J3,7,Pin_7*%
%TO.N,GND*%
X158650000Y-86550000D03*
%TD*%
D15*
%TO.P,U6,1,TXD*%
%TO.N,/CAN_TXD*%
X172320000Y-56595000D03*
D16*
%TO.P,U6,2,VSS*%
%TO.N,GND*%
X172320000Y-54055000D03*
%TO.P,U6,3,VDD*%
%TO.N,+5V*%
X172320000Y-51515000D03*
%TO.P,U6,4,RXD*%
%TO.N,/CAN_RXD*%
X172320000Y-48975000D03*
%TO.P,U6,5,Vref*%
%TO.N,unconnected-(U6-Vref-Pad5)*%
X164700000Y-48975000D03*
%TO.P,U6,6,CANL*%
%TO.N,/CAN_ETH-*%
X164700000Y-51515000D03*
%TO.P,U6,7,CANH*%
%TO.N,/CAN_ETH+*%
X164700000Y-54055000D03*
%TO.P,U6,8,Rs*%
%TO.N,Net-(U6-Rs)*%
X164700000Y-56595000D03*
%TD*%
D17*
%TO.P,J1,S1,SHIELD*%
%TO.N,GND*%
X200770000Y-77820000D03*
D18*
X204940000Y-77820000D03*
D17*
X200770000Y-69180000D03*
D18*
X204940000Y-69180000D03*
%TD*%
D19*
%TO.P,Y2,1*%
%TO.N,/HSE_OUT*%
X155850000Y-74250000D03*
%TO.P,Y2,2*%
%TO.N,/HSE_IN*%
X155850000Y-69370000D03*
%TD*%
D20*
%TO.P,SW1,1,A*%
%TO.N,GND*%
X173830000Y-65645000D03*
D21*
%TO.P,SW1,2,B*%
%TO.N,/SW_BOOT0*%
X173830000Y-63145000D03*
%TO.P,SW1,3,C*%
%TO.N,+3V3*%
X173830000Y-60645000D03*
%TO.P,SW1,4*%
%TO.N,N/C*%
X177130000Y-60645000D03*
%TO.P,SW1,5*%
X177130000Y-63145000D03*
%TO.P,SW1,6*%
X177130000Y-65645000D03*
%TD*%
D22*
%TO.N,GND*%
X133020000Y-47000000D03*
X147990000Y-55980000D03*
X147980000Y-58100000D03*
X149990000Y-55980000D03*
X141730000Y-86150000D03*
X156630000Y-91890000D03*
X144990000Y-50000000D03*
X133980000Y-88050000D03*
X191020000Y-104030000D03*
X192040000Y-46030000D03*
X165840000Y-72680000D03*
X131020000Y-47000000D03*
X189410000Y-91580000D03*
X147010000Y-104730000D03*
X176070000Y-42050000D03*
X131970000Y-89750000D03*
X138250000Y-95580000D03*
X142960000Y-47030000D03*
X144960000Y-47030000D03*
X170990000Y-103980000D03*
X163340000Y-70480000D03*
X152280000Y-93730000D03*
X152040000Y-55950000D03*
X173930000Y-92080000D03*
X157960000Y-91990000D03*
X137020000Y-47000000D03*
X140060000Y-58030000D03*
X157990000Y-93860000D03*
X146990000Y-103000000D03*
X160060000Y-96000000D03*
X172230000Y-66980000D03*
X169970000Y-92080000D03*
X161960000Y-46020000D03*
X204570000Y-66060000D03*
X182000000Y-46020000D03*
X132040000Y-86020000D03*
X190040000Y-46030000D03*
X156290000Y-83890000D03*
X130050000Y-93750000D03*
X200320000Y-52770000D03*
X178070000Y-42050000D03*
X185990000Y-58960000D03*
X153020000Y-103000000D03*
X137990000Y-88100000D03*
X132130000Y-97710000D03*
X172990000Y-103980000D03*
X165980000Y-95980000D03*
X168060000Y-46040000D03*
X164040000Y-100020000D03*
X144060000Y-58030000D03*
X203940000Y-60880000D03*
X145990000Y-55980000D03*
X132190000Y-95560000D03*
X147020000Y-47000000D03*
X206200000Y-86250000D03*
X131010000Y-49980000D03*
X181070000Y-104010000D03*
X193840000Y-60980000D03*
X190030000Y-41990000D03*
X134020000Y-84000000D03*
X139720000Y-86100000D03*
X133950000Y-91520000D03*
X175750000Y-70210000D03*
X149460000Y-62080000D03*
X145010000Y-104730000D03*
X137010000Y-49980000D03*
X139020000Y-102990000D03*
X194040000Y-46030000D03*
X200990000Y-67610000D03*
X167930000Y-93900000D03*
X190020000Y-59040000D03*
X140960000Y-47030000D03*
X201980000Y-62240000D03*
X173010000Y-46040000D03*
X142060000Y-58030000D03*
X177010000Y-46040000D03*
X167400000Y-74120000D03*
X141660000Y-84150000D03*
X168990000Y-103980000D03*
X194840000Y-66060000D03*
X183010000Y-53010000D03*
X187970000Y-61010000D03*
X158000000Y-98010000D03*
X147440000Y-86030000D03*
X183990000Y-58960000D03*
X159990000Y-93860000D03*
X167960000Y-92030000D03*
X166050000Y-93880000D03*
X160040000Y-100020000D03*
X165960000Y-46020000D03*
X189420000Y-93150000D03*
X204000000Y-80300000D03*
X174990000Y-103980000D03*
X171010000Y-46040000D03*
X138960000Y-47030000D03*
X152990000Y-101790000D03*
X174020000Y-100030000D03*
X159960000Y-91990000D03*
X201930000Y-60830000D03*
X154450000Y-95960000D03*
X183030000Y-51000000D03*
X174070000Y-42050000D03*
X186020000Y-41990000D03*
X168020000Y-98010000D03*
X172020000Y-98010000D03*
X181030000Y-51000000D03*
X200980000Y-94010000D03*
X158040000Y-100020000D03*
X132050000Y-93750000D03*
X134040000Y-86020000D03*
X167390000Y-72630000D03*
X147870000Y-70640000D03*
X171920000Y-93960000D03*
X173930000Y-94010000D03*
X137020000Y-102990000D03*
X171980000Y-42020000D03*
X168020000Y-100020000D03*
X189460000Y-94750000D03*
X134050000Y-93750000D03*
X136040000Y-86020000D03*
X202990000Y-92010000D03*
X167890000Y-66270000D03*
X153050000Y-50010000D03*
X195020000Y-104050000D03*
X206470000Y-67440000D03*
X146960000Y-101740000D03*
X156030000Y-82120000D03*
X152120000Y-57940000D03*
X138190000Y-97730000D03*
X179020000Y-46050000D03*
X190020000Y-61040000D03*
X185030000Y-51000000D03*
X193840000Y-58940000D03*
X191430000Y-93200000D03*
X175010000Y-46040000D03*
X206180000Y-88500000D03*
X193010000Y-101990000D03*
X134130000Y-97710000D03*
X147390000Y-84160000D03*
X156460000Y-96010000D03*
X164070000Y-103960000D03*
X147880000Y-67070000D03*
X166050000Y-104000000D03*
X156270000Y-85640000D03*
X132020000Y-84000000D03*
X184020000Y-41990000D03*
X151070000Y-104750000D03*
X170020000Y-100020000D03*
X158070000Y-103960000D03*
X151460000Y-62080000D03*
X191010000Y-101990000D03*
X206060000Y-82090000D03*
X166030000Y-75230000D03*
X138110000Y-93770000D03*
X179070000Y-104010000D03*
X198000000Y-46020000D03*
X190300000Y-69650000D03*
X130020000Y-84000000D03*
X196000000Y-99960000D03*
X199000000Y-92020000D03*
X146960000Y-100430000D03*
X197790000Y-67530000D03*
X130130000Y-97710000D03*
X154280000Y-93730000D03*
X200030000Y-99940000D03*
X164000000Y-98010000D03*
X200000000Y-46020000D03*
X154330000Y-83940000D03*
X171980000Y-95980000D03*
X183970000Y-61010000D03*
X160070000Y-103960000D03*
X192460000Y-69920000D03*
X163960000Y-46020000D03*
X135010000Y-49980000D03*
X189350000Y-71860000D03*
X189490000Y-96270000D03*
X140840000Y-52810000D03*
X180170000Y-70140000D03*
X195010000Y-101990000D03*
X177070000Y-104010000D03*
X154880000Y-85610000D03*
X155020000Y-103000000D03*
X203990000Y-62290000D03*
X151040000Y-46990000D03*
X148970000Y-100480000D03*
X149010000Y-104730000D03*
X136130000Y-97710000D03*
X131940000Y-91470000D03*
X197000000Y-92020000D03*
X174020000Y-96030000D03*
X131980000Y-88050000D03*
X198980000Y-94010000D03*
X143990000Y-55980000D03*
X146060000Y-58030000D03*
X197020000Y-104050000D03*
X166020000Y-100020000D03*
X138990000Y-50000000D03*
X152570000Y-91870000D03*
X135980000Y-88050000D03*
X137990000Y-84100000D03*
X169090000Y-74110000D03*
X191500000Y-96320000D03*
X167980000Y-42020000D03*
X165800000Y-74120000D03*
X169010000Y-72590000D03*
X187050000Y-53010000D03*
X163990000Y-93860000D03*
X193020000Y-104050000D03*
X139650000Y-84100000D03*
X139790000Y-88100000D03*
X169110000Y-75310000D03*
X189020000Y-104030000D03*
X162000000Y-98010000D03*
X176050000Y-100040000D03*
X162040000Y-100020000D03*
X147050000Y-50010000D03*
X197620000Y-63990000D03*
X179030000Y-51000000D03*
X163960000Y-91990000D03*
X156480000Y-98000000D03*
X195000000Y-92020000D03*
X141800000Y-88150000D03*
X148990000Y-103000000D03*
X191910000Y-59000000D03*
X133980000Y-89800000D03*
X206130000Y-84080000D03*
X201000000Y-92020000D03*
X192310000Y-68020000D03*
X150570000Y-91870000D03*
X148920000Y-99280000D03*
X164060000Y-96000000D03*
X174370000Y-71800000D03*
X201040000Y-65980000D03*
X151050000Y-50010000D03*
X188020000Y-41990000D03*
X182020000Y-41990000D03*
X202990000Y-94010000D03*
X169940000Y-93950000D03*
X156340000Y-93750000D03*
X206180000Y-80250000D03*
X187990000Y-58960000D03*
X153050000Y-47040000D03*
X192030000Y-41990000D03*
X188000000Y-46020000D03*
X194000000Y-99960000D03*
X181990000Y-58960000D03*
X137990000Y-86100000D03*
X144990000Y-103000000D03*
X169980000Y-95980000D03*
X160000000Y-98010000D03*
X180070000Y-42050000D03*
X190370000Y-71140000D03*
X176050000Y-98040000D03*
X189010000Y-101990000D03*
X186000000Y-46020000D03*
X174020000Y-98030000D03*
X153750000Y-78790000D03*
X167980000Y-95980000D03*
X181010000Y-53010000D03*
X129980000Y-88050000D03*
X146910000Y-99230000D03*
X171920000Y-92030000D03*
X197690000Y-65910000D03*
X154470000Y-98000000D03*
X198000000Y-99960000D03*
X162070000Y-103960000D03*
X154400000Y-82180000D03*
X204660000Y-67520000D03*
X195060000Y-68010000D03*
X185970000Y-61010000D03*
X161990000Y-93860000D03*
X172020000Y-100020000D03*
X196980000Y-94010000D03*
X194030000Y-41990000D03*
X130190000Y-95560000D03*
X136050000Y-93750000D03*
X153460000Y-62080000D03*
X136190000Y-95560000D03*
X147460000Y-62080000D03*
X149050000Y-50010000D03*
X143010000Y-104730000D03*
X163630000Y-67410000D03*
X196040000Y-46030000D03*
X161960000Y-91990000D03*
X130040000Y-86020000D03*
X166020000Y-98010000D03*
X141020000Y-102990000D03*
X191940000Y-61000000D03*
X149020000Y-47000000D03*
X162060000Y-96000000D03*
X150990000Y-103000000D03*
X150980000Y-101740000D03*
X191470000Y-94800000D03*
X184000000Y-46020000D03*
X187020000Y-104030000D03*
X192000000Y-99960000D03*
X135020000Y-47000000D03*
X185020000Y-104030000D03*
X169980000Y-42020000D03*
X185010000Y-53010000D03*
X164350000Y-83870000D03*
X154570000Y-91870000D03*
X143020000Y-102990000D03*
X165980000Y-42020000D03*
X150280000Y-93730000D03*
X181970000Y-61010000D03*
X150020000Y-58220000D03*
X148970000Y-101790000D03*
X194980000Y-94010000D03*
X170020000Y-98010000D03*
X197040000Y-101990000D03*
X148570000Y-91870000D03*
X183070000Y-104010000D03*
X134190000Y-95560000D03*
X179010000Y-53010000D03*
X158060000Y-96000000D03*
X159960000Y-46020000D03*
X187050000Y-51010000D03*
X147870000Y-68810000D03*
X206440000Y-65890000D03*
X167600000Y-75210000D03*
X133010000Y-49980000D03*
X166020000Y-92010000D03*
X191420000Y-91630000D03*
X136020000Y-84000000D03*
%TO.N,+3V3*%
X163100000Y-81500000D03*
X171100000Y-64900000D03*
X162420000Y-69510000D03*
X165552500Y-63470000D03*
X182720000Y-71690000D03*
X164000000Y-80100000D03*
X178445000Y-71685000D03*
X172270000Y-69445000D03*
X167460000Y-63470000D03*
X160375735Y-67370000D03*
%TO.N,+3.3VA*%
X160320000Y-76650000D03*
X160320000Y-78453553D03*
%TO.N,/NRST*%
X156665000Y-66175000D03*
X163840000Y-69160000D03*
%TO.N,+5V*%
X177000000Y-76000000D03*
X184000000Y-97000000D03*
X184900000Y-76000000D03*
X183155380Y-76874620D03*
X185000000Y-72500000D03*
X181500000Y-97000000D03*
X176000000Y-80000000D03*
X185000000Y-74500000D03*
%TO.N,/PB1*%
X192050000Y-86750000D03*
X169140000Y-80840000D03*
%TO.N,/PB2*%
X169281412Y-79892169D03*
X191940000Y-84270000D03*
%TO.N,/PB12*%
X191890000Y-81870000D03*
X175070000Y-78330000D03*
%TO.N,/PA4*%
X167052500Y-81140000D03*
X192025000Y-89200000D03*
%TD*%
D23*
%TO.N,+3V3*%
X182715000Y-71685000D02*
X178445000Y-71685000D01*
D24*
X172270000Y-68770000D02*
X172270000Y-69445000D01*
X171100000Y-67600000D02*
X172270000Y-68770000D01*
D23*
X165552500Y-63470000D02*
X167460000Y-63470000D01*
X164000000Y-80100000D02*
X164000000Y-80600000D01*
X160375735Y-67465735D02*
X162420000Y-69510000D01*
D25*
X160375735Y-67370000D02*
X160375735Y-67465735D01*
D24*
X171100000Y-64900000D02*
X171100000Y-67600000D01*
D23*
X164000000Y-80600000D02*
X163100000Y-81500000D01*
D25*
X182720000Y-71690000D02*
X182715000Y-71685000D01*
D23*
%TO.N,+3.3VA*%
X160320000Y-78453553D02*
X160320000Y-76650000D01*
D25*
%TO.N,/NRST*%
X161240000Y-66560000D02*
X163840000Y-69160000D01*
X157050000Y-66560000D02*
X161240000Y-66560000D01*
X156665000Y-66175000D02*
X157050000Y-66560000D01*
D23*
%TO.N,+5V*%
X183155380Y-76874620D02*
X184025380Y-76874620D01*
X185000000Y-74500000D02*
X185000000Y-72500000D01*
X176000000Y-80000000D02*
X176000000Y-77000000D01*
X181500000Y-97000000D02*
X184000000Y-97000000D01*
X184025380Y-76874620D02*
X184900000Y-76000000D01*
X176000000Y-77000000D02*
X177000000Y-76000000D01*
X185000000Y-72500000D02*
X185000000Y-73000000D01*
D24*
%TO.N,/PB1*%
X174020000Y-82410000D02*
X172450000Y-80840000D01*
X192050000Y-86750000D02*
X178367106Y-86750000D01*
X174027106Y-82410000D02*
X174020000Y-82410000D01*
X178367106Y-86750000D02*
X174027106Y-82410000D01*
X172450000Y-80840000D02*
X169140000Y-80840000D01*
%TO.N,/PB2*%
X177080000Y-84270000D02*
X172702169Y-79892169D01*
X172702169Y-79892169D02*
X169281412Y-79892169D01*
X191940000Y-84270000D02*
X177080000Y-84270000D01*
%TO.N,/PB12*%
X175490000Y-81860000D02*
X175070000Y-81440000D01*
X175070000Y-81440000D02*
X175070000Y-78330000D01*
X191880000Y-81860000D02*
X175490000Y-81860000D01*
X191890000Y-81870000D02*
X191880000Y-81860000D01*
%TO.N,/PA4*%
X168822500Y-82910000D02*
X167052500Y-81140000D01*
X192025000Y-89200000D02*
X179180000Y-89200000D01*
X179180000Y-89200000D02*
X172890000Y-82910000D01*
X172890000Y-82910000D02*
X168822500Y-82910000D01*
%TD*%
%TA.AperFunction,Conductor*%
%TO.N,GND*%
G36*
X204023032Y-39460648D02*
G01*
X204354969Y-39476956D01*
X204367077Y-39478149D01*
X204469202Y-39493297D01*
X204692797Y-39526465D01*
X204704716Y-39528835D01*
X205024144Y-39608847D01*
X205035771Y-39612374D01*
X205345826Y-39723314D01*
X205357038Y-39727958D01*
X205654735Y-39868758D01*
X205665443Y-39874482D01*
X205947877Y-40043766D01*
X205957992Y-40050524D01*
X205967085Y-40057268D01*
X206222482Y-40246684D01*
X206231888Y-40254404D01*
X206475872Y-40475538D01*
X206484461Y-40484127D01*
X206669916Y-40688745D01*
X206705595Y-40728111D01*
X206713315Y-40737517D01*
X206909473Y-41002004D01*
X206916233Y-41012122D01*
X207043079Y-41223753D01*
X207085510Y-41294544D01*
X207091245Y-41305272D01*
X207101248Y-41326421D01*
X207232038Y-41602954D01*
X207236689Y-41614183D01*
X207334560Y-41887713D01*
X207347620Y-41924213D01*
X207351152Y-41935857D01*
X207431161Y-42255271D01*
X207433535Y-42267206D01*
X207481850Y-42592920D01*
X207483043Y-42605031D01*
X207499335Y-42936663D01*
X207499483Y-42943230D01*
X207269790Y-101894264D01*
X207269500Y-101898579D01*
X207269500Y-101966738D01*
X207269330Y-101973228D01*
X207252093Y-102302133D01*
X207250736Y-102315041D01*
X207199726Y-102637108D01*
X207197028Y-102649803D01*
X207112630Y-102964782D01*
X207108619Y-102977127D01*
X206991760Y-103281555D01*
X206986481Y-103293412D01*
X206838437Y-103583964D01*
X206831947Y-103595204D01*
X206654352Y-103868677D01*
X206646723Y-103879178D01*
X206441504Y-104132602D01*
X206432819Y-104142247D01*
X206202247Y-104372819D01*
X206192602Y-104381504D01*
X205939178Y-104586723D01*
X205928677Y-104594352D01*
X205655204Y-104771947D01*
X205643964Y-104778437D01*
X205353412Y-104926481D01*
X205341555Y-104931760D01*
X205037127Y-105048619D01*
X205024782Y-105052630D01*
X204709803Y-105137028D01*
X204697108Y-105139726D01*
X204375040Y-105190737D01*
X204362131Y-105192094D01*
X204033235Y-105209330D01*
X204026746Y-105209500D01*
X203956756Y-105209500D01*
X203955649Y-105209572D01*
X133013295Y-105279495D01*
X133006684Y-105279325D01*
X132673687Y-105261875D01*
X132660778Y-105260518D01*
X132334575Y-105208852D01*
X132321885Y-105206155D01*
X132002854Y-105120671D01*
X131990512Y-105116661D01*
X131813257Y-105048619D01*
X131682172Y-104998300D01*
X131670317Y-104993022D01*
X131628449Y-104971689D01*
X131376029Y-104843074D01*
X131364802Y-104836592D01*
X131087811Y-104656712D01*
X131077310Y-104649083D01*
X130820632Y-104441229D01*
X130810987Y-104432544D01*
X130577455Y-104199012D01*
X130568770Y-104189367D01*
X130360916Y-103932689D01*
X130353287Y-103922188D01*
X130322078Y-103874130D01*
X130173404Y-103645191D01*
X130166928Y-103633977D01*
X130016972Y-103339671D01*
X130011703Y-103327836D01*
X129893335Y-103019478D01*
X129889331Y-103007157D01*
X129803840Y-102688100D01*
X129801150Y-102675439D01*
X129749482Y-102349222D01*
X129748125Y-102336314D01*
X129730670Y-102003259D01*
X129730500Y-101996769D01*
X129730500Y-101928876D01*
X129730169Y-101924002D01*
X129730053Y-101897648D01*
X131699500Y-101897648D01*
X131699500Y-102102351D01*
X131731522Y-102304534D01*
X131794781Y-102499223D01*
X131842059Y-102592010D01*
X131871506Y-102649803D01*
X131887715Y-102681613D01*
X132008028Y-102847213D01*
X132152786Y-102991971D01*
X132307749Y-103104556D01*
X132318390Y-103112287D01*
X132434607Y-103171503D01*
X132500776Y-103205218D01*
X132500778Y-103205218D01*
X132500781Y-103205220D01*
X132605137Y-103239127D01*
X132695465Y-103268477D01*
X132778036Y-103281555D01*
X132897648Y-103300500D01*
X132897649Y-103300500D01*
X133102351Y-103300500D01*
X133102352Y-103300500D01*
X133304534Y-103268477D01*
X133499219Y-103205220D01*
X133681610Y-103112287D01*
X133774590Y-103044732D01*
X133847213Y-102991971D01*
X133847215Y-102991968D01*
X133847219Y-102991966D01*
X133991966Y-102847219D01*
X133991968Y-102847215D01*
X133991971Y-102847213D01*
X134044732Y-102774590D01*
X134112287Y-102681610D01*
X134205220Y-102499219D01*
X134268477Y-102304534D01*
X134300500Y-102102352D01*
X134300500Y-101897648D01*
X202699500Y-101897648D01*
X202699500Y-102102351D01*
X202731522Y-102304534D01*
X202794781Y-102499223D01*
X202842059Y-102592010D01*
X202871506Y-102649803D01*
X202887715Y-102681613D01*
X203008028Y-102847213D01*
X203152786Y-102991971D01*
X203307749Y-103104556D01*
X203318390Y-103112287D01*
X203434607Y-103171503D01*
X203500776Y-103205218D01*
X203500778Y-103205218D01*
X203500781Y-103205220D01*
X203605137Y-103239127D01*
X203695465Y-103268477D01*
X203778036Y-103281555D01*
X203897648Y-103300500D01*
X203897649Y-103300500D01*
X204102351Y-103300500D01*
X204102352Y-103300500D01*
X204304534Y-103268477D01*
X204499219Y-103205220D01*
X204681610Y-103112287D01*
X204774590Y-103044732D01*
X204847213Y-102991971D01*
X204847215Y-102991968D01*
X204847219Y-102991966D01*
X204991966Y-102847219D01*
X204991968Y-102847215D01*
X204991971Y-102847213D01*
X205044732Y-102774590D01*
X205112287Y-102681610D01*
X205205220Y-102499219D01*
X205268477Y-102304534D01*
X205300500Y-102102352D01*
X205300500Y-101897648D01*
X205268477Y-101695466D01*
X205205220Y-101500781D01*
X205205218Y-101500778D01*
X205205218Y-101500776D01*
X205171503Y-101434607D01*
X205112287Y-101318390D01*
X205104556Y-101307749D01*
X204991971Y-101152786D01*
X204847213Y-101008028D01*
X204681613Y-100887715D01*
X204681612Y-100887714D01*
X204681610Y-100887713D01*
X204624653Y-100858691D01*
X204499223Y-100794781D01*
X204304534Y-100731522D01*
X204129995Y-100703878D01*
X204102352Y-100699500D01*
X203897648Y-100699500D01*
X203873329Y-100703351D01*
X203695465Y-100731522D01*
X203500776Y-100794781D01*
X203318386Y-100887715D01*
X203152786Y-101008028D01*
X203008028Y-101152786D01*
X202887715Y-101318386D01*
X202794781Y-101500776D01*
X202731522Y-101695465D01*
X202699500Y-101897648D01*
X134300500Y-101897648D01*
X134268477Y-101695466D01*
X134205220Y-101500781D01*
X134205218Y-101500778D01*
X134205218Y-101500776D01*
X134171503Y-101434607D01*
X134112287Y-101318390D01*
X134104556Y-101307749D01*
X133991971Y-101152786D01*
X133847213Y-101008028D01*
X133681613Y-100887715D01*
X133681612Y-100887714D01*
X133681610Y-100887713D01*
X133624653Y-100858691D01*
X133499223Y-100794781D01*
X133304534Y-100731522D01*
X133129995Y-100703878D01*
X133102352Y-100699500D01*
X132897648Y-100699500D01*
X132873329Y-100703351D01*
X132695465Y-100731522D01*
X132500776Y-100794781D01*
X132318386Y-100887715D01*
X132152786Y-101008028D01*
X132008028Y-101152786D01*
X131887715Y-101318386D01*
X131794781Y-101500776D01*
X131731522Y-101695465D01*
X131699500Y-101897648D01*
X129730053Y-101897648D01*
X129708477Y-96999998D01*
X180894318Y-96999998D01*
X180894318Y-97000001D01*
X180914955Y-97156760D01*
X180914956Y-97156762D01*
X180975464Y-97302841D01*
X181071718Y-97428282D01*
X181197159Y-97524536D01*
X181343238Y-97585044D01*
X181421619Y-97595363D01*
X181499999Y-97605682D01*
X181500000Y-97605682D01*
X181500001Y-97605682D01*
X181552254Y-97598802D01*
X181656762Y-97585044D01*
X181717370Y-97559938D01*
X181764823Y-97550500D01*
X183735177Y-97550500D01*
X183782629Y-97559938D01*
X183843238Y-97585044D01*
X183921619Y-97595363D01*
X183999999Y-97605682D01*
X184000000Y-97605682D01*
X184000001Y-97605682D01*
X184052254Y-97598802D01*
X184156762Y-97585044D01*
X184302841Y-97524536D01*
X184428282Y-97428282D01*
X184524536Y-97302841D01*
X184585044Y-97156762D01*
X184605682Y-97000000D01*
X184585044Y-96843238D01*
X184524536Y-96697159D01*
X184428282Y-96571718D01*
X184302841Y-96475464D01*
X184240158Y-96449500D01*
X184156762Y-96414956D01*
X184156760Y-96414955D01*
X184000001Y-96394318D01*
X183999999Y-96394318D01*
X183843239Y-96414955D01*
X183843237Y-96414956D01*
X183782630Y-96440061D01*
X183735177Y-96449500D01*
X181764823Y-96449500D01*
X181717370Y-96440061D01*
X181656762Y-96414956D01*
X181656760Y-96414955D01*
X181500001Y-96394318D01*
X181499999Y-96394318D01*
X181343239Y-96414955D01*
X181343237Y-96414956D01*
X181197160Y-96475463D01*
X181071718Y-96571718D01*
X180975463Y-96697160D01*
X180914956Y-96843237D01*
X180914955Y-96843239D01*
X180894318Y-96999998D01*
X129708477Y-96999998D01*
X129661341Y-86299999D01*
X157319364Y-86299999D01*
X157319364Y-86300000D01*
X158216988Y-86300000D01*
X158184075Y-86357007D01*
X158150000Y-86484174D01*
X158150000Y-86615826D01*
X158184075Y-86742993D01*
X158216988Y-86800000D01*
X157319364Y-86800000D01*
X157376567Y-87013486D01*
X157376570Y-87013492D01*
X157476399Y-87227578D01*
X157611894Y-87421082D01*
X157778917Y-87588105D01*
X157972421Y-87723600D01*
X158186507Y-87823429D01*
X158186516Y-87823433D01*
X158400000Y-87880634D01*
X158400000Y-86983012D01*
X158457007Y-87015925D01*
X158584174Y-87050000D01*
X158715826Y-87050000D01*
X158842993Y-87015925D01*
X158900000Y-86983012D01*
X158900000Y-87880633D01*
X159113483Y-87823433D01*
X159113492Y-87823429D01*
X159327578Y-87723600D01*
X159521082Y-87588105D01*
X159688105Y-87421082D01*
X159823600Y-87227578D01*
X159917294Y-87026651D01*
X159963466Y-86974212D01*
X160030660Y-86955060D01*
X160097541Y-86975276D01*
X160140676Y-87023785D01*
X160207632Y-87158253D01*
X160295445Y-87274535D01*
X160336128Y-87328407D01*
X160493698Y-87472052D01*
X160674981Y-87584298D01*
X160873802Y-87661321D01*
X161083390Y-87700500D01*
X161083392Y-87700500D01*
X161296608Y-87700500D01*
X161296610Y-87700500D01*
X161506198Y-87661321D01*
X161705019Y-87584298D01*
X161886302Y-87472052D01*
X162043872Y-87328407D01*
X162172366Y-87158255D01*
X162196150Y-87110490D01*
X162267403Y-86967394D01*
X162267403Y-86967393D01*
X162267405Y-86967389D01*
X162325756Y-86762310D01*
X162336529Y-86646047D01*
X162362315Y-86581111D01*
X162404622Y-86550804D01*
X162513130Y-86550804D01*
X162549503Y-86571668D01*
X162581693Y-86633681D01*
X162583470Y-86646047D01*
X162594244Y-86762310D01*
X162647675Y-86950099D01*
X162652596Y-86967392D01*
X162652596Y-86967394D01*
X162747632Y-87158253D01*
X162835445Y-87274535D01*
X162876128Y-87328407D01*
X163033698Y-87472052D01*
X163214981Y-87584298D01*
X163413802Y-87661321D01*
X163623390Y-87700500D01*
X163623392Y-87700500D01*
X163836608Y-87700500D01*
X163836610Y-87700500D01*
X164046198Y-87661321D01*
X164245019Y-87584298D01*
X164426302Y-87472052D01*
X164583872Y-87328407D01*
X164712366Y-87158255D01*
X164736150Y-87110490D01*
X164807403Y-86967394D01*
X164807403Y-86967393D01*
X164807405Y-86967389D01*
X164865756Y-86762310D01*
X164876529Y-86646047D01*
X164902315Y-86581111D01*
X164944622Y-86550804D01*
X165053130Y-86550804D01*
X165089503Y-86571668D01*
X165121693Y-86633681D01*
X165123470Y-86646047D01*
X165134244Y-86762310D01*
X165187675Y-86950099D01*
X165192596Y-86967392D01*
X165192596Y-86967394D01*
X165287632Y-87158253D01*
X165375445Y-87274535D01*
X165416128Y-87328407D01*
X165573698Y-87472052D01*
X165754981Y-87584298D01*
X165953802Y-87661321D01*
X166163390Y-87700500D01*
X166163392Y-87700500D01*
X166376608Y-87700500D01*
X166376610Y-87700500D01*
X166586198Y-87661321D01*
X166785019Y-87584298D01*
X166966302Y-87472052D01*
X167123872Y-87328407D01*
X167252366Y-87158255D01*
X167276150Y-87110490D01*
X167347403Y-86967394D01*
X167347403Y-86967393D01*
X167347405Y-86967389D01*
X167405756Y-86762310D01*
X167416529Y-86646047D01*
X167442315Y-86581111D01*
X167484622Y-86550804D01*
X167593130Y-86550804D01*
X167629503Y-86571668D01*
X167661693Y-86633681D01*
X167663470Y-86646047D01*
X167674244Y-86762310D01*
X167727675Y-86950099D01*
X167732596Y-86967392D01*
X167732596Y-86967394D01*
X167827632Y-87158253D01*
X167915445Y-87274535D01*
X167956128Y-87328407D01*
X168113698Y-87472052D01*
X168294981Y-87584298D01*
X168493802Y-87661321D01*
X168703390Y-87700500D01*
X168703392Y-87700500D01*
X168916608Y-87700500D01*
X168916610Y-87700500D01*
X169126198Y-87661321D01*
X169325019Y-87584298D01*
X169506302Y-87472052D01*
X169663872Y-87328407D01*
X169792366Y-87158255D01*
X169816150Y-87110490D01*
X169887403Y-86967394D01*
X169887403Y-86967393D01*
X169887405Y-86967389D01*
X169945756Y-86762310D01*
X169956529Y-86646047D01*
X169982315Y-86581111D01*
X170026869Y-86549194D01*
X169990497Y-86528331D01*
X169958307Y-86466318D01*
X169956529Y-86453951D01*
X169950969Y-86393951D01*
X169945756Y-86337690D01*
X169887405Y-86132611D01*
X169887403Y-86132606D01*
X169887403Y-86132605D01*
X169792367Y-85941746D01*
X169663872Y-85771593D01*
X169582708Y-85697602D01*
X169506302Y-85627948D01*
X169325019Y-85515702D01*
X169325017Y-85515701D01*
X169225608Y-85477190D01*
X169126198Y-85438679D01*
X168916610Y-85399500D01*
X168703390Y-85399500D01*
X168493802Y-85438679D01*
X168493799Y-85438679D01*
X168493799Y-85438680D01*
X168294982Y-85515701D01*
X168294980Y-85515702D01*
X168113699Y-85627947D01*
X167956127Y-85771593D01*
X167827632Y-85941746D01*
X167732596Y-86132605D01*
X167732596Y-86132607D01*
X167674244Y-86337689D01*
X167663471Y-86453951D01*
X167637685Y-86518888D01*
X167593130Y-86550804D01*
X167484622Y-86550804D01*
X167486869Y-86549194D01*
X167450497Y-86528331D01*
X167418307Y-86466318D01*
X167416529Y-86453951D01*
X167410969Y-86393951D01*
X167405756Y-86337690D01*
X167347405Y-86132611D01*
X167347403Y-86132606D01*
X167347403Y-86132605D01*
X167252367Y-85941746D01*
X167123872Y-85771593D01*
X167042708Y-85697602D01*
X166966302Y-85627948D01*
X166785019Y-85515702D01*
X166785017Y-85515701D01*
X166685608Y-85477190D01*
X166586198Y-85438679D01*
X166376610Y-85399500D01*
X166163390Y-85399500D01*
X165953802Y-85438679D01*
X165953799Y-85438679D01*
X165953799Y-85438680D01*
X165754982Y-85515701D01*
X165754980Y-85515702D01*
X165573699Y-85627947D01*
X165416127Y-85771593D01*
X165287632Y-85941746D01*
X165192596Y-86132605D01*
X165192596Y-86132607D01*
X165134244Y-86337689D01*
X165123471Y-86453951D01*
X165097685Y-86518888D01*
X165053130Y-86550804D01*
X164944622Y-86550804D01*
X164946869Y-86549194D01*
X164910497Y-86528331D01*
X164878307Y-86466318D01*
X164876529Y-86453951D01*
X164870969Y-86393951D01*
X164865756Y-86337690D01*
X164807405Y-86132611D01*
X164807403Y-86132606D01*
X164807403Y-86132605D01*
X164712367Y-85941746D01*
X164583872Y-85771593D01*
X164502708Y-85697602D01*
X164426302Y-85627948D01*
X164245019Y-85515702D01*
X164245017Y-85515701D01*
X164145608Y-85477190D01*
X164046198Y-85438679D01*
X163836610Y-85399500D01*
X163623390Y-85399500D01*
X163413802Y-85438679D01*
X163413799Y-85438679D01*
X163413799Y-85438680D01*
X163214982Y-85515701D01*
X163214980Y-85515702D01*
X163033699Y-85627947D01*
X162876127Y-85771593D01*
X162747632Y-85941746D01*
X162652596Y-86132605D01*
X162652596Y-86132607D01*
X162594244Y-86337689D01*
X162583471Y-86453951D01*
X162557685Y-86518888D01*
X162513130Y-86550804D01*
X162404622Y-86550804D01*
X162406869Y-86549194D01*
X162370497Y-86528331D01*
X162338307Y-86466318D01*
X162336529Y-86453951D01*
X162330969Y-86393951D01*
X162325756Y-86337690D01*
X162267405Y-86132611D01*
X162267403Y-86132606D01*
X162267403Y-86132605D01*
X162172367Y-85941746D01*
X162043872Y-85771593D01*
X161962708Y-85697602D01*
X161886302Y-85627948D01*
X161705019Y-85515702D01*
X161705017Y-85515701D01*
X161605608Y-85477190D01*
X161506198Y-85438679D01*
X161296610Y-85399500D01*
X161083390Y-85399500D01*
X160873802Y-85438679D01*
X160873799Y-85438679D01*
X160873799Y-85438680D01*
X160674982Y-85515701D01*
X160674980Y-85515702D01*
X160493699Y-85627947D01*
X160336127Y-85771593D01*
X160207634Y-85941744D01*
X160140676Y-86076215D01*
X160093173Y-86127452D01*
X160025510Y-86144873D01*
X159959170Y-86122947D01*
X159917294Y-86073348D01*
X159823600Y-85872422D01*
X159823599Y-85872420D01*
X159688113Y-85678926D01*
X159688108Y-85678920D01*
X159521082Y-85511894D01*
X159327578Y-85376399D01*
X159113492Y-85276570D01*
X159113486Y-85276567D01*
X158900000Y-85219364D01*
X158900000Y-86116988D01*
X158842993Y-86084075D01*
X158715826Y-86050000D01*
X158584174Y-86050000D01*
X158457007Y-86084075D01*
X158400000Y-86116988D01*
X158400000Y-85219364D01*
X158399999Y-85219364D01*
X158186513Y-85276567D01*
X158186507Y-85276570D01*
X157972422Y-85376399D01*
X157972420Y-85376400D01*
X157778926Y-85511886D01*
X157778920Y-85511891D01*
X157611891Y-85678920D01*
X157611886Y-85678926D01*
X157476400Y-85872420D01*
X157476399Y-85872422D01*
X157376570Y-86086507D01*
X157376567Y-86086513D01*
X157319364Y-86299999D01*
X129661341Y-86299999D01*
X129640196Y-81499998D01*
X162494318Y-81499998D01*
X162494318Y-81500001D01*
X162514955Y-81656760D01*
X162514956Y-81656762D01*
X162547538Y-81735423D01*
X162575464Y-81802841D01*
X162671718Y-81928282D01*
X162797159Y-82024536D01*
X162943238Y-82085044D01*
X163021619Y-82095363D01*
X163099999Y-82105682D01*
X163100000Y-82105682D01*
X163100001Y-82105682D01*
X163152254Y-82098802D01*
X163256762Y-82085044D01*
X163402841Y-82024536D01*
X163528282Y-81928282D01*
X163624536Y-81802841D01*
X163649641Y-81742228D01*
X163676517Y-81702006D01*
X164238526Y-81139998D01*
X166446818Y-81139998D01*
X166446818Y-81140001D01*
X166467455Y-81296760D01*
X166467456Y-81296762D01*
X166513975Y-81409070D01*
X166527964Y-81442841D01*
X166624218Y-81568282D01*
X166749659Y-81664536D01*
X166895738Y-81725044D01*
X166974583Y-81735424D01*
X167038478Y-81763689D01*
X167046078Y-81770681D01*
X168545886Y-83270489D01*
X168648613Y-83329799D01*
X168672821Y-83336284D01*
X168672824Y-83336286D01*
X168672825Y-83336286D01*
X168702947Y-83344357D01*
X168763191Y-83360500D01*
X172652035Y-83360500D01*
X172719074Y-83380185D01*
X172739716Y-83396819D01*
X174530716Y-85187819D01*
X174564201Y-85249142D01*
X174559217Y-85318834D01*
X174517345Y-85374767D01*
X174451881Y-85399184D01*
X174443035Y-85399500D01*
X172995143Y-85399500D01*
X172995117Y-85399502D01*
X172970012Y-85402413D01*
X172970008Y-85402415D01*
X172867235Y-85447793D01*
X172787794Y-85527234D01*
X172742415Y-85630006D01*
X172742415Y-85630008D01*
X172739500Y-85655131D01*
X172739500Y-86393951D01*
X172719815Y-86460990D01*
X172667011Y-86506745D01*
X172597853Y-86516689D01*
X172534297Y-86487664D01*
X172496523Y-86428886D01*
X172492029Y-86405391D01*
X172485756Y-86337689D01*
X172453824Y-86225463D01*
X172427405Y-86132611D01*
X172427403Y-86132606D01*
X172427403Y-86132605D01*
X172332367Y-85941746D01*
X172203872Y-85771593D01*
X172122708Y-85697602D01*
X172046302Y-85627948D01*
X171865019Y-85515702D01*
X171865017Y-85515701D01*
X171765608Y-85477190D01*
X171666198Y-85438679D01*
X171456610Y-85399500D01*
X171243390Y-85399500D01*
X171033802Y-85438679D01*
X171033799Y-85438679D01*
X171033799Y-85438680D01*
X170834982Y-85515701D01*
X170834980Y-85515702D01*
X170653699Y-85627947D01*
X170496127Y-85771593D01*
X170367632Y-85941746D01*
X170272596Y-86132605D01*
X170272596Y-86132607D01*
X170214244Y-86337689D01*
X170203471Y-86453951D01*
X170177685Y-86518888D01*
X170133130Y-86550804D01*
X170169503Y-86571668D01*
X170201693Y-86633681D01*
X170203470Y-86646047D01*
X170214244Y-86762310D01*
X170267675Y-86950099D01*
X170272596Y-86967392D01*
X170272596Y-86967394D01*
X170367632Y-87158253D01*
X170455445Y-87274535D01*
X170496128Y-87328407D01*
X170653698Y-87472052D01*
X170834981Y-87584298D01*
X171033802Y-87661321D01*
X171243390Y-87700500D01*
X171243392Y-87700500D01*
X171456608Y-87700500D01*
X171456610Y-87700500D01*
X171666198Y-87661321D01*
X171865019Y-87584298D01*
X172046302Y-87472052D01*
X172203872Y-87328407D01*
X172332366Y-87158255D01*
X172356150Y-87110490D01*
X172427403Y-86967394D01*
X172427403Y-86967393D01*
X172427405Y-86967389D01*
X172485756Y-86762310D01*
X172492029Y-86694605D01*
X172517814Y-86629669D01*
X172574614Y-86588981D01*
X172644395Y-86585461D01*
X172705002Y-86620225D01*
X172737193Y-86682238D01*
X172739500Y-86706047D01*
X172739500Y-87444856D01*
X172739502Y-87444882D01*
X172742413Y-87469987D01*
X172742415Y-87469991D01*
X172787793Y-87572764D01*
X172787794Y-87572765D01*
X172867235Y-87652206D01*
X172970009Y-87697585D01*
X172995135Y-87700500D01*
X174784864Y-87700499D01*
X174784879Y-87700497D01*
X174784882Y-87700497D01*
X174809987Y-87697586D01*
X174809988Y-87697585D01*
X174809991Y-87697585D01*
X174912765Y-87652206D01*
X174992206Y-87572765D01*
X175037585Y-87469991D01*
X175040500Y-87444865D01*
X175040499Y-85996963D01*
X175060184Y-85929925D01*
X175112987Y-85884170D01*
X175182146Y-85874226D01*
X175245702Y-85903251D01*
X175252180Y-85909283D01*
X178903386Y-89560489D01*
X178903387Y-89560490D01*
X178903389Y-89560491D01*
X178962693Y-89594729D01*
X178962696Y-89594732D01*
X178996937Y-89614500D01*
X179006114Y-89619799D01*
X179120691Y-89650500D01*
X191583581Y-89650500D01*
X191650620Y-89670185D01*
X191659067Y-89676124D01*
X191722157Y-89724535D01*
X191722158Y-89724535D01*
X191722159Y-89724536D01*
X191868238Y-89785044D01*
X191946619Y-89795363D01*
X192024999Y-89805682D01*
X192025000Y-89805682D01*
X192025001Y-89805682D01*
X192077254Y-89798802D01*
X192181762Y-89785044D01*
X192327841Y-89724536D01*
X192453282Y-89628282D01*
X192549536Y-89502841D01*
X192610044Y-89356762D01*
X192630682Y-89200000D01*
X192610044Y-89043238D01*
X192549536Y-88897159D01*
X192453282Y-88771718D01*
X192327841Y-88675464D01*
X192181762Y-88614956D01*
X192181760Y-88614955D01*
X192025001Y-88594318D01*
X192024999Y-88594318D01*
X191868239Y-88614955D01*
X191868237Y-88614956D01*
X191722157Y-88675464D01*
X191659067Y-88723876D01*
X191593898Y-88749070D01*
X191583581Y-88749500D01*
X179417965Y-88749500D01*
X179350926Y-88729815D01*
X179330284Y-88713181D01*
X173166616Y-82549513D01*
X173166614Y-82549511D01*
X173115250Y-82519856D01*
X173063888Y-82490201D01*
X173051780Y-82486957D01*
X173039673Y-82483713D01*
X173039670Y-82483712D01*
X173001478Y-82473478D01*
X172949309Y-82459500D01*
X172949308Y-82459500D01*
X169060465Y-82459500D01*
X168993426Y-82439815D01*
X168972784Y-82423181D01*
X167683181Y-81133578D01*
X167649696Y-81072255D01*
X167647925Y-81062097D01*
X167637544Y-80983238D01*
X167578212Y-80839998D01*
X168534318Y-80839998D01*
X168534318Y-80840001D01*
X168554955Y-80996760D01*
X168554956Y-80996762D01*
X168614287Y-81140001D01*
X168615464Y-81142841D01*
X168711718Y-81268282D01*
X168837159Y-81364536D01*
X168983238Y-81425044D01*
X169061619Y-81435363D01*
X169139999Y-81445682D01*
X169140000Y-81445682D01*
X169140001Y-81445682D01*
X169192254Y-81438802D01*
X169296762Y-81425044D01*
X169442841Y-81364536D01*
X169505933Y-81316123D01*
X169571102Y-81290930D01*
X169581419Y-81290500D01*
X172212035Y-81290500D01*
X172279074Y-81310185D01*
X172299716Y-81326819D01*
X173743381Y-82770485D01*
X173743385Y-82770488D01*
X173743386Y-82770489D01*
X173746059Y-82772032D01*
X173771742Y-82791739D01*
X178090492Y-87110489D01*
X178193219Y-87169799D01*
X178217427Y-87176284D01*
X178217430Y-87176286D01*
X178217431Y-87176286D01*
X178247553Y-87184357D01*
X178307797Y-87200500D01*
X191608581Y-87200500D01*
X191675620Y-87220185D01*
X191684067Y-87226124D01*
X191747157Y-87274535D01*
X191747158Y-87274535D01*
X191747159Y-87274536D01*
X191893238Y-87335044D01*
X191971619Y-87345363D01*
X192049999Y-87355682D01*
X192050000Y-87355682D01*
X192050001Y-87355682D01*
X192102254Y-87348802D01*
X192206762Y-87335044D01*
X192352841Y-87274536D01*
X192478282Y-87178282D01*
X192574536Y-87052841D01*
X192635044Y-86906762D01*
X192655682Y-86750000D01*
X192648389Y-86694607D01*
X192635044Y-86593239D01*
X192635044Y-86593238D01*
X192574536Y-86447159D01*
X192478282Y-86321718D01*
X192352841Y-86225464D01*
X192206762Y-86164956D01*
X192206760Y-86164955D01*
X192050001Y-86144318D01*
X192049999Y-86144318D01*
X191893239Y-86164955D01*
X191893237Y-86164956D01*
X191747157Y-86225464D01*
X191684067Y-86273876D01*
X191618898Y-86299070D01*
X191608581Y-86299500D01*
X178605071Y-86299500D01*
X178538032Y-86279815D01*
X178517390Y-86263181D01*
X177186390Y-84932181D01*
X177152905Y-84870858D01*
X177157889Y-84801166D01*
X177199761Y-84745233D01*
X177265225Y-84720816D01*
X177274071Y-84720500D01*
X191498581Y-84720500D01*
X191565620Y-84740185D01*
X191574067Y-84746124D01*
X191637157Y-84794535D01*
X191637158Y-84794535D01*
X191637159Y-84794536D01*
X191783238Y-84855044D01*
X191861619Y-84865363D01*
X191939999Y-84875682D01*
X191940000Y-84875682D01*
X191940001Y-84875682D01*
X191992254Y-84868802D01*
X192096762Y-84855044D01*
X192242841Y-84794536D01*
X192368282Y-84698282D01*
X192464536Y-84572841D01*
X192525044Y-84426762D01*
X192545682Y-84270000D01*
X192525044Y-84113238D01*
X192464536Y-83967159D01*
X192368282Y-83841718D01*
X192242841Y-83745464D01*
X192096762Y-83684956D01*
X192096760Y-83684955D01*
X191940001Y-83664318D01*
X191939999Y-83664318D01*
X191783239Y-83684955D01*
X191783237Y-83684956D01*
X191637157Y-83745464D01*
X191574067Y-83793876D01*
X191508898Y-83819070D01*
X191498581Y-83819500D01*
X177317965Y-83819500D01*
X177250926Y-83799815D01*
X177230284Y-83783181D01*
X175969284Y-82522181D01*
X175935799Y-82460858D01*
X175940783Y-82391166D01*
X175982655Y-82335233D01*
X176048119Y-82310816D01*
X176056965Y-82310500D01*
X191435549Y-82310500D01*
X191502588Y-82330185D01*
X191511033Y-82336123D01*
X191587159Y-82394536D01*
X191587162Y-82394537D01*
X191587163Y-82394538D01*
X191656314Y-82423181D01*
X191733238Y-82455044D01*
X191767085Y-82459500D01*
X191889999Y-82475682D01*
X191890000Y-82475682D01*
X191890001Y-82475682D01*
X191942254Y-82468802D01*
X192046762Y-82455044D01*
X192192841Y-82394536D01*
X192318282Y-82298282D01*
X192414536Y-82172841D01*
X192475044Y-82026762D01*
X192495682Y-81870000D01*
X192475044Y-81713238D01*
X192414536Y-81567159D01*
X192318282Y-81441718D01*
X192192841Y-81345464D01*
X192187469Y-81343239D01*
X192046762Y-81284956D01*
X192046760Y-81284955D01*
X191890001Y-81264318D01*
X191889999Y-81264318D01*
X191733239Y-81284955D01*
X191733237Y-81284956D01*
X191587157Y-81345464D01*
X191537099Y-81383876D01*
X191471930Y-81409070D01*
X191461613Y-81409500D01*
X175727966Y-81409500D01*
X175660927Y-81389815D01*
X175640285Y-81373181D01*
X175556819Y-81289715D01*
X175523334Y-81228392D01*
X175520500Y-81202034D01*
X175520500Y-80636940D01*
X175540185Y-80569901D01*
X175592989Y-80524146D01*
X175662147Y-80514202D01*
X175691953Y-80522379D01*
X175697157Y-80524534D01*
X175697159Y-80524536D01*
X175843238Y-80585044D01*
X175921619Y-80595363D01*
X175999999Y-80605682D01*
X176000000Y-80605682D01*
X176000001Y-80605682D01*
X176052254Y-80598802D01*
X176156762Y-80585044D01*
X176302841Y-80524536D01*
X176428282Y-80428282D01*
X176524536Y-80302841D01*
X176585044Y-80156762D01*
X176605682Y-80000000D01*
X176585044Y-79843238D01*
X176559939Y-79782628D01*
X176550500Y-79735176D01*
X176550500Y-77569999D01*
X199301115Y-77569999D01*
X199301116Y-77570000D01*
X200053012Y-77570000D01*
X200035795Y-77579940D01*
X199979940Y-77635795D01*
X199940444Y-77704204D01*
X199920000Y-77780504D01*
X199920000Y-77859496D01*
X199940444Y-77935796D01*
X199979940Y-78004205D01*
X200035795Y-78060060D01*
X200053012Y-78070000D01*
X199301116Y-78070000D01*
X199306506Y-78097100D01*
X199306507Y-78097103D01*
X199378119Y-78269991D01*
X199378124Y-78270000D01*
X199482086Y-78425589D01*
X199482089Y-78425593D01*
X199614406Y-78557910D01*
X199614410Y-78557913D01*
X199769999Y-78661875D01*
X199770008Y-78661880D01*
X199942894Y-78733491D01*
X199942902Y-78733493D01*
X200126428Y-78769999D01*
X200126431Y-78770000D01*
X200520000Y-78770000D01*
X200520000Y-78120000D01*
X201020000Y-78120000D01*
X201020000Y-78770000D01*
X201413569Y-78770000D01*
X201413571Y-78769999D01*
X201597097Y-78733493D01*
X201597105Y-78733491D01*
X201769991Y-78661880D01*
X201770000Y-78661875D01*
X201925589Y-78557913D01*
X201925593Y-78557910D01*
X202057910Y-78425593D01*
X202057913Y-78425589D01*
X202161875Y-78270000D01*
X202161880Y-78269991D01*
X202233492Y-78097103D01*
X202233493Y-78097100D01*
X202238884Y-78070000D01*
X201486988Y-78070000D01*
X201504205Y-78060060D01*
X201560060Y-78004205D01*
X201599556Y-77935796D01*
X201620000Y-77859496D01*
X201620000Y-77780504D01*
X201599556Y-77704204D01*
X201560060Y-77635795D01*
X201504205Y-77579940D01*
X201486988Y-77570000D01*
X202238884Y-77570000D01*
X202238884Y-77569999D01*
X203621115Y-77569999D01*
X203621116Y-77570000D01*
X204373012Y-77570000D01*
X204355795Y-77579940D01*
X204299940Y-77635795D01*
X204260444Y-77704204D01*
X204240000Y-77780504D01*
X204240000Y-77859496D01*
X204260444Y-77935796D01*
X204299940Y-78004205D01*
X204355795Y-78060060D01*
X204373012Y-78070000D01*
X203621116Y-78070000D01*
X203626506Y-78097100D01*
X203626507Y-78097103D01*
X203698119Y-78269991D01*
X203698124Y-78270000D01*
X203802086Y-78425589D01*
X203802089Y-78425593D01*
X203934406Y-78557910D01*
X203934410Y-78557913D01*
X204089999Y-78661875D01*
X204090008Y-78661880D01*
X204262894Y-78733491D01*
X204262902Y-78733493D01*
X204446428Y-78769999D01*
X204446431Y-78770000D01*
X204690000Y-78770000D01*
X204690000Y-78120000D01*
X205190000Y-78120000D01*
X205190000Y-78770000D01*
X205433569Y-78770000D01*
X205433571Y-78769999D01*
X205617097Y-78733493D01*
X205617105Y-78733491D01*
X205789991Y-78661880D01*
X205790000Y-78661875D01*
X205945589Y-78557913D01*
X205945593Y-78557910D01*
X206077910Y-78425593D01*
X206077913Y-78425589D01*
X206181875Y-78270000D01*
X206181880Y-78269991D01*
X206253492Y-78097103D01*
X206253493Y-78097100D01*
X206258884Y-78070000D01*
X205506988Y-78070000D01*
X205524205Y-78060060D01*
X205580060Y-78004205D01*
X205619556Y-77935796D01*
X205640000Y-77859496D01*
X205640000Y-77780504D01*
X205619556Y-77704204D01*
X205580060Y-77635795D01*
X205524205Y-77579940D01*
X205506988Y-77570000D01*
X206258884Y-77570000D01*
X206258884Y-77569999D01*
X206253493Y-77542899D01*
X206253492Y-77542896D01*
X206181880Y-77370008D01*
X206181875Y-77369999D01*
X206077913Y-77214410D01*
X206077910Y-77214406D01*
X205945593Y-77082089D01*
X205945589Y-77082086D01*
X205790000Y-76978124D01*
X205789991Y-76978119D01*
X205617105Y-76906508D01*
X205617097Y-76906506D01*
X205433570Y-76870000D01*
X205190000Y-76870000D01*
X205190000Y-77520000D01*
X204690000Y-77520000D01*
X204690000Y-76870000D01*
X204446430Y-76870000D01*
X204262902Y-76906506D01*
X204262894Y-76906508D01*
X204090008Y-76978119D01*
X204089999Y-76978124D01*
X203934410Y-77082086D01*
X203934406Y-77082089D01*
X203802089Y-77214406D01*
X203802086Y-77214410D01*
X203698124Y-77369999D01*
X203698119Y-77370008D01*
X203626507Y-77542896D01*
X203626506Y-77542899D01*
X203621115Y-77569999D01*
X202238884Y-77569999D01*
X202233493Y-77542899D01*
X202233492Y-77542896D01*
X202161880Y-77370008D01*
X202161875Y-77369999D01*
X202057913Y-77214410D01*
X202057910Y-77214406D01*
X201925593Y-77082089D01*
X201925589Y-77082086D01*
X201770000Y-76978124D01*
X201769991Y-76978119D01*
X201597105Y-76906508D01*
X201597097Y-76906506D01*
X201413570Y-76870000D01*
X201020000Y-76870000D01*
X201020000Y-77520000D01*
X200520000Y-77520000D01*
X200520000Y-76870000D01*
X200126430Y-76870000D01*
X199942902Y-76906506D01*
X199942894Y-76906508D01*
X199770008Y-76978119D01*
X199769999Y-76978124D01*
X199614410Y-77082086D01*
X199614406Y-77082089D01*
X199482089Y-77214406D01*
X199482086Y-77214410D01*
X199378124Y-77369999D01*
X199378119Y-77370008D01*
X199306507Y-77542896D01*
X199306506Y-77542899D01*
X199301115Y-77569999D01*
X176550500Y-77569999D01*
X176550500Y-77279385D01*
X176570185Y-77212346D01*
X176586815Y-77191708D01*
X176903904Y-76874618D01*
X182549698Y-76874618D01*
X182549698Y-76874621D01*
X182570335Y-77031380D01*
X182570336Y-77031382D01*
X182628900Y-77172769D01*
X182630844Y-77177461D01*
X182727098Y-77302902D01*
X182852539Y-77399156D01*
X182998618Y-77459664D01*
X183076999Y-77469983D01*
X183155379Y-77480302D01*
X183155380Y-77480302D01*
X183155381Y-77480302D01*
X183207634Y-77473422D01*
X183312142Y-77459664D01*
X183372750Y-77434558D01*
X183420203Y-77425120D01*
X184097852Y-77425120D01*
X184097854Y-77425120D01*
X184097855Y-77425120D01*
X184237865Y-77387604D01*
X184363395Y-77315130D01*
X185102006Y-76576517D01*
X185142228Y-76549641D01*
X185202841Y-76524536D01*
X185328282Y-76428282D01*
X185424536Y-76302841D01*
X185485044Y-76156762D01*
X185505682Y-76000000D01*
X185485044Y-75843238D01*
X185424536Y-75697159D01*
X185328282Y-75571718D01*
X185202841Y-75475464D01*
X185151133Y-75454046D01*
X185056762Y-75414956D01*
X185056760Y-75414955D01*
X184900001Y-75394318D01*
X184899999Y-75394318D01*
X184743239Y-75414955D01*
X184743237Y-75414956D01*
X184597160Y-75475463D01*
X184471716Y-75571719D01*
X184375464Y-75697158D01*
X184375460Y-75697165D01*
X184350357Y-75757768D01*
X184323478Y-75797995D01*
X183833674Y-76287801D01*
X183772351Y-76321286D01*
X183745993Y-76324120D01*
X183420203Y-76324120D01*
X183372750Y-76314681D01*
X183312142Y-76289576D01*
X183312140Y-76289575D01*
X183155381Y-76268938D01*
X183155379Y-76268938D01*
X182998619Y-76289575D01*
X182998617Y-76289576D01*
X182852540Y-76350083D01*
X182727098Y-76446338D01*
X182630843Y-76571780D01*
X182570336Y-76717857D01*
X182570335Y-76717859D01*
X182549698Y-76874618D01*
X176903904Y-76874618D01*
X177202004Y-76576518D01*
X177242226Y-76549642D01*
X177302841Y-76524536D01*
X177428282Y-76428282D01*
X177524536Y-76302841D01*
X177585044Y-76156762D01*
X177605682Y-76000000D01*
X177585044Y-75843238D01*
X177524536Y-75697159D01*
X177428282Y-75571718D01*
X177302841Y-75475464D01*
X177251133Y-75454046D01*
X177156762Y-75414956D01*
X177156760Y-75414955D01*
X177000001Y-75394318D01*
X176999999Y-75394318D01*
X176843239Y-75414955D01*
X176843237Y-75414956D01*
X176697160Y-75475463D01*
X176571716Y-75571719D01*
X176475465Y-75697156D01*
X176450356Y-75757772D01*
X176423477Y-75797997D01*
X175559489Y-76661985D01*
X175516941Y-76735684D01*
X175516940Y-76735685D01*
X175487017Y-76787512D01*
X175487016Y-76787513D01*
X175474766Y-76833232D01*
X175449500Y-76927525D01*
X175449500Y-76927527D01*
X175449500Y-77651638D01*
X175429815Y-77718677D01*
X175377011Y-77764432D01*
X175307853Y-77774376D01*
X175278048Y-77766199D01*
X175226765Y-77744957D01*
X175226760Y-77744955D01*
X175070001Y-77724318D01*
X175069999Y-77724318D01*
X174913239Y-77744955D01*
X174913237Y-77744956D01*
X174767160Y-77805463D01*
X174641718Y-77901718D01*
X174545463Y-78027160D01*
X174484956Y-78173237D01*
X174484955Y-78173239D01*
X174464318Y-78329998D01*
X174464318Y-78330001D01*
X174484955Y-78486760D01*
X174484957Y-78486765D01*
X174545461Y-78632836D01*
X174545464Y-78632841D01*
X174593876Y-78695933D01*
X174619070Y-78761102D01*
X174619500Y-78771419D01*
X174619500Y-80873035D01*
X174599815Y-80940074D01*
X174547011Y-80985829D01*
X174477853Y-80995773D01*
X174414297Y-80966748D01*
X174407819Y-80960716D01*
X172978785Y-79531682D01*
X172978783Y-79531680D01*
X172914071Y-79494318D01*
X172876054Y-79472368D01*
X172844397Y-79463887D01*
X172802937Y-79452778D01*
X172761478Y-79441669D01*
X172761477Y-79441669D01*
X169722831Y-79441669D01*
X169655792Y-79421984D01*
X169647345Y-79416045D01*
X169584254Y-79367633D01*
X169438174Y-79307125D01*
X169438172Y-79307124D01*
X169281413Y-79286487D01*
X169281411Y-79286487D01*
X169124651Y-79307124D01*
X169124649Y-79307125D01*
X168978572Y-79367632D01*
X168853130Y-79463887D01*
X168756875Y-79589329D01*
X168696368Y-79735406D01*
X168696367Y-79735408D01*
X168675730Y-79892167D01*
X168675730Y-79892170D01*
X168696367Y-80048929D01*
X168696369Y-80048934D01*
X168756873Y-80195005D01*
X168756876Y-80195010D01*
X168769317Y-80211224D01*
X168794510Y-80276394D01*
X168780471Y-80344839D01*
X168746428Y-80385084D01*
X168711719Y-80411717D01*
X168615463Y-80537160D01*
X168554956Y-80683237D01*
X168554955Y-80683239D01*
X168534318Y-80839998D01*
X167578212Y-80839998D01*
X167577036Y-80837159D01*
X167480782Y-80711718D01*
X167355341Y-80615464D01*
X167331725Y-80605682D01*
X167209262Y-80554956D01*
X167209260Y-80554955D01*
X167052501Y-80534318D01*
X167052499Y-80534318D01*
X166895739Y-80554955D01*
X166895737Y-80554956D01*
X166749660Y-80615463D01*
X166624218Y-80711718D01*
X166527963Y-80837160D01*
X166467456Y-80983237D01*
X166467455Y-80983239D01*
X166446818Y-81139998D01*
X164238526Y-81139998D01*
X164440510Y-80938015D01*
X164512984Y-80812485D01*
X164521819Y-80779511D01*
X164550500Y-80672475D01*
X164550500Y-80364823D01*
X164559939Y-80317370D01*
X164585044Y-80256762D01*
X164605682Y-80100000D01*
X164598958Y-80048929D01*
X164585044Y-79943239D01*
X164585044Y-79943238D01*
X164524536Y-79797159D01*
X164428282Y-79671718D01*
X164302841Y-79575464D01*
X164156762Y-79514956D01*
X164156760Y-79514955D01*
X164000001Y-79494318D01*
X163999999Y-79494318D01*
X163843239Y-79514955D01*
X163843237Y-79514956D01*
X163697160Y-79575463D01*
X163571718Y-79671718D01*
X163475463Y-79797160D01*
X163414956Y-79943237D01*
X163414955Y-79943239D01*
X163394318Y-80099998D01*
X163394318Y-80100001D01*
X163414955Y-80256760D01*
X163414956Y-80256762D01*
X163427112Y-80286108D01*
X163434581Y-80355577D01*
X163403306Y-80418056D01*
X163400232Y-80421242D01*
X162897995Y-80923478D01*
X162857768Y-80950357D01*
X162797165Y-80975460D01*
X162797158Y-80975464D01*
X162671719Y-81071716D01*
X162575463Y-81197160D01*
X162514956Y-81343237D01*
X162514955Y-81343239D01*
X162494318Y-81499998D01*
X129640196Y-81499998D01*
X129622641Y-77515065D01*
X133804500Y-77515065D01*
X133804500Y-77760934D01*
X133823036Y-77901718D01*
X133836591Y-78004677D01*
X133888801Y-78199528D01*
X133900222Y-78242152D01*
X133900225Y-78242162D01*
X133976205Y-78425593D01*
X133994306Y-78469292D01*
X134117233Y-78682208D01*
X134117235Y-78682211D01*
X134117236Y-78682212D01*
X134266897Y-78877254D01*
X134266903Y-78877261D01*
X134440738Y-79051096D01*
X134440744Y-79051101D01*
X134635792Y-79200767D01*
X134848708Y-79323694D01*
X135075847Y-79417778D01*
X135313323Y-79481409D01*
X135557073Y-79513500D01*
X135557080Y-79513500D01*
X135802920Y-79513500D01*
X135802927Y-79513500D01*
X136046677Y-79481409D01*
X136283347Y-79417994D01*
X137654529Y-79417994D01*
X137654529Y-79418005D01*
X137674379Y-79657559D01*
X137733389Y-79890589D01*
X137829951Y-80110729D01*
X137944533Y-80286108D01*
X137961429Y-80311969D01*
X138124236Y-80488825D01*
X138124239Y-80488827D01*
X138124242Y-80488830D01*
X138313924Y-80636466D01*
X138313930Y-80636470D01*
X138313933Y-80636472D01*
X138525344Y-80750882D01*
X138525347Y-80750883D01*
X138752699Y-80828933D01*
X138752701Y-80828933D01*
X138752703Y-80828934D01*
X138989808Y-80868500D01*
X138989809Y-80868500D01*
X139230191Y-80868500D01*
X139230192Y-80868500D01*
X139467297Y-80828934D01*
X139694656Y-80750882D01*
X139906067Y-80636472D01*
X139933060Y-80615463D01*
X140033664Y-80537159D01*
X140095764Y-80488825D01*
X140258571Y-80311969D01*
X140390049Y-80110728D01*
X140486610Y-79890591D01*
X140545620Y-79657563D01*
X140565471Y-79418000D01*
X140565452Y-79417774D01*
X140547704Y-79203583D01*
X140545620Y-79178437D01*
X140486610Y-78945409D01*
X140390049Y-78725272D01*
X140361916Y-78682212D01*
X140258572Y-78524033D01*
X140258571Y-78524031D01*
X140095764Y-78347175D01*
X140095759Y-78347171D01*
X140095757Y-78347169D01*
X139906075Y-78199533D01*
X139906069Y-78199529D01*
X139694657Y-78085118D01*
X139694652Y-78085116D01*
X139467300Y-78007066D01*
X139289468Y-77977391D01*
X139230192Y-77967500D01*
X138989808Y-77967500D01*
X138942387Y-77975413D01*
X138752699Y-78007066D01*
X138525347Y-78085116D01*
X138525342Y-78085118D01*
X138313930Y-78199529D01*
X138313924Y-78199533D01*
X138124242Y-78347169D01*
X138124239Y-78347172D01*
X137961430Y-78524029D01*
X137961427Y-78524033D01*
X137829951Y-78725270D01*
X137733389Y-78945410D01*
X137674379Y-79178440D01*
X137654529Y-79417994D01*
X136283347Y-79417994D01*
X136284153Y-79417778D01*
X136511292Y-79323694D01*
X136724208Y-79200767D01*
X136919256Y-79051101D01*
X137093101Y-78877256D01*
X137242767Y-78682208D01*
X137365694Y-78469292D01*
X137459778Y-78242153D01*
X137523409Y-78004677D01*
X137555500Y-77760927D01*
X137555500Y-77515073D01*
X137523409Y-77271323D01*
X137459778Y-77033847D01*
X137453856Y-77019551D01*
X137413713Y-76922637D01*
X137365694Y-76806708D01*
X137242767Y-76593792D01*
X137128173Y-76444450D01*
X137093102Y-76398745D01*
X137093096Y-76398738D01*
X136919261Y-76224903D01*
X136919254Y-76224897D01*
X136724212Y-76075236D01*
X136724211Y-76075235D01*
X136724208Y-76075233D01*
X136511292Y-75952306D01*
X136511285Y-75952303D01*
X136284162Y-75858225D01*
X136284155Y-75858223D01*
X136284153Y-75858222D01*
X136046677Y-75794591D01*
X136005939Y-75789227D01*
X135802934Y-75762500D01*
X135802927Y-75762500D01*
X135557073Y-75762500D01*
X135557065Y-75762500D01*
X135325059Y-75793045D01*
X135313323Y-75794591D01*
X135131765Y-75843239D01*
X135075847Y-75858222D01*
X135075837Y-75858225D01*
X134848714Y-75952303D01*
X134848705Y-75952307D01*
X134689338Y-76044318D01*
X134655363Y-76063934D01*
X134635787Y-76075236D01*
X134440745Y-76224897D01*
X134440738Y-76224903D01*
X134266903Y-76398738D01*
X134266897Y-76398745D01*
X134117236Y-76593787D01*
X133994307Y-76806705D01*
X133994303Y-76806714D01*
X133900225Y-77033837D01*
X133900222Y-77033847D01*
X133876693Y-77121661D01*
X133836592Y-77271320D01*
X133836590Y-77271331D01*
X133804500Y-77515065D01*
X129622641Y-77515065D01*
X129592989Y-70783999D01*
X136965225Y-70783999D01*
X136965225Y-70784000D01*
X136984287Y-71001884D01*
X136984289Y-71001894D01*
X137040894Y-71213150D01*
X137040898Y-71213159D01*
X137133333Y-71411387D01*
X137176874Y-71473571D01*
X137781944Y-70868501D01*
X137805326Y-70955764D01*
X137863911Y-71057236D01*
X137946764Y-71140089D01*
X138048236Y-71198674D01*
X138135495Y-71222055D01*
X137530427Y-71827124D01*
X137530704Y-71830295D01*
X137568925Y-71878110D01*
X137576119Y-71947609D01*
X137544597Y-72009964D01*
X137532842Y-72020962D01*
X137473590Y-72069589D01*
X137342317Y-72229547D01*
X137342315Y-72229550D01*
X137320671Y-72270043D01*
X137244769Y-72412043D01*
X137184699Y-72610067D01*
X137164417Y-72816000D01*
X137184699Y-73021932D01*
X137214329Y-73119610D01*
X137244768Y-73219954D01*
X137342315Y-73402450D01*
X137473590Y-73562410D01*
X137492709Y-73578101D01*
X137532044Y-73635845D01*
X137533916Y-73705690D01*
X137497730Y-73765459D01*
X137434975Y-73796176D01*
X137428334Y-73797129D01*
X137400010Y-73800414D01*
X137400008Y-73800415D01*
X137297235Y-73845793D01*
X137217794Y-73925234D01*
X137172415Y-74028006D01*
X137172415Y-74028008D01*
X137169500Y-74053131D01*
X137169500Y-75642856D01*
X137169502Y-75642882D01*
X137172413Y-75667987D01*
X137172415Y-75667991D01*
X137217793Y-75770764D01*
X137217794Y-75770765D01*
X137297235Y-75850206D01*
X137400009Y-75895585D01*
X137425135Y-75898500D01*
X139014864Y-75898499D01*
X139014879Y-75898497D01*
X139014882Y-75898497D01*
X139039987Y-75895586D01*
X139039988Y-75895585D01*
X139039991Y-75895585D01*
X139125113Y-75858000D01*
X143764417Y-75858000D01*
X143784699Y-76063932D01*
X143785010Y-76064956D01*
X143844768Y-76261954D01*
X143942315Y-76444450D01*
X143976969Y-76486677D01*
X144073589Y-76604410D01*
X144170209Y-76683702D01*
X144233550Y-76735685D01*
X144416046Y-76833232D01*
X144552479Y-76874618D01*
X144584525Y-76884339D01*
X144642964Y-76922637D01*
X144671420Y-76986449D01*
X144660860Y-77055516D01*
X144614636Y-77107910D01*
X144584525Y-77121661D01*
X144416043Y-77172769D01*
X144342001Y-77212346D01*
X144233550Y-77270315D01*
X144233548Y-77270316D01*
X144233547Y-77270317D01*
X144073589Y-77401589D01*
X143957621Y-77542899D01*
X143942315Y-77561550D01*
X143903643Y-77633898D01*
X143844769Y-77744043D01*
X143784699Y-77942067D01*
X143764417Y-78148000D01*
X143784699Y-78353932D01*
X143784700Y-78353934D01*
X143844768Y-78551954D01*
X143942315Y-78734450D01*
X143976969Y-78776677D01*
X144073589Y-78894410D01*
X144135734Y-78945410D01*
X144233550Y-79025685D01*
X144416046Y-79123232D01*
X144614066Y-79183300D01*
X144614065Y-79183300D01*
X144632529Y-79185118D01*
X144820000Y-79203583D01*
X145025934Y-79183300D01*
X145223954Y-79123232D01*
X145406450Y-79025685D01*
X145566410Y-78894410D01*
X145697685Y-78734450D01*
X145795232Y-78551954D01*
X145855300Y-78353934D01*
X145875583Y-78148000D01*
X145855300Y-77942066D01*
X145795232Y-77744046D01*
X145697685Y-77561550D01*
X145593467Y-77434559D01*
X145566410Y-77401589D01*
X145407678Y-77271323D01*
X145406450Y-77270315D01*
X145223954Y-77172768D01*
X145055473Y-77121660D01*
X144997035Y-77083363D01*
X144968579Y-77019551D01*
X144979139Y-76950484D01*
X145025363Y-76898091D01*
X145055472Y-76884339D01*
X145223954Y-76833232D01*
X145406450Y-76735685D01*
X145510861Y-76649998D01*
X159714318Y-76649998D01*
X159714318Y-76650001D01*
X159734955Y-76806760D01*
X159734956Y-76806762D01*
X159745919Y-76833230D01*
X159760061Y-76867370D01*
X159769500Y-76914823D01*
X159769500Y-78188729D01*
X159760061Y-78236181D01*
X159734957Y-78296787D01*
X159734955Y-78296792D01*
X159714318Y-78453551D01*
X159714318Y-78453554D01*
X159734955Y-78610313D01*
X159734956Y-78610315D01*
X159744284Y-78632836D01*
X159795464Y-78756394D01*
X159891718Y-78881835D01*
X160017159Y-78978089D01*
X160163238Y-79038597D01*
X160241619Y-79048916D01*
X160319999Y-79059235D01*
X160320000Y-79059235D01*
X160320001Y-79059235D01*
X160372254Y-79052355D01*
X160476762Y-79038597D01*
X160622841Y-78978089D01*
X160748282Y-78881835D01*
X160844536Y-78756394D01*
X160905044Y-78610315D01*
X160925682Y-78453553D01*
X160922000Y-78425589D01*
X160905044Y-78296792D01*
X160905042Y-78296787D01*
X160879939Y-78236181D01*
X160870500Y-78188729D01*
X160870500Y-76914823D01*
X160879939Y-76867370D01*
X160905044Y-76806762D01*
X160925682Y-76650000D01*
X160918281Y-76593787D01*
X160905044Y-76493239D01*
X160905044Y-76493238D01*
X160844536Y-76347159D01*
X160748282Y-76221718D01*
X160622841Y-76125464D01*
X160476762Y-76064956D01*
X160476760Y-76064955D01*
X160320001Y-76044318D01*
X160319999Y-76044318D01*
X160163239Y-76064955D01*
X160163237Y-76064956D01*
X160017160Y-76125463D01*
X159891718Y-76221718D01*
X159795463Y-76347160D01*
X159734956Y-76493237D01*
X159734955Y-76493239D01*
X159714318Y-76649998D01*
X145510861Y-76649998D01*
X145566410Y-76604410D01*
X145697685Y-76444450D01*
X145795232Y-76261954D01*
X145855300Y-76063934D01*
X145875583Y-75858000D01*
X145855300Y-75652066D01*
X145795232Y-75454046D01*
X145697685Y-75271550D01*
X145645702Y-75208209D01*
X145566410Y-75111589D01*
X145406452Y-74980317D01*
X145406453Y-74980317D01*
X145406450Y-74980315D01*
X145223954Y-74882768D01*
X145025934Y-74822700D01*
X145025932Y-74822699D01*
X145025934Y-74822699D01*
X144820000Y-74802417D01*
X144614067Y-74822699D01*
X144416043Y-74882769D01*
X144330898Y-74928281D01*
X144233550Y-74980315D01*
X144233548Y-74980316D01*
X144233547Y-74980317D01*
X144073589Y-75111589D01*
X143942317Y-75271547D01*
X143844769Y-75454043D01*
X143784699Y-75652067D01*
X143764417Y-75858000D01*
X139125113Y-75858000D01*
X139142765Y-75850206D01*
X139222206Y-75770765D01*
X139267585Y-75667991D01*
X139270500Y-75642865D01*
X139270499Y-74840103D01*
X139290183Y-74773065D01*
X139342987Y-74727310D01*
X139412146Y-74717366D01*
X139452950Y-74730745D01*
X139596046Y-74807232D01*
X139794066Y-74867300D01*
X139794065Y-74867300D01*
X139812529Y-74869118D01*
X140000000Y-74887583D01*
X140205934Y-74867300D01*
X140403954Y-74807232D01*
X140586450Y-74709685D01*
X140746410Y-74578410D01*
X140877685Y-74418450D01*
X140967724Y-74250000D01*
X155004870Y-74250000D01*
X155023338Y-74425713D01*
X155023339Y-74425715D01*
X155077935Y-74593747D01*
X155077936Y-74593748D01*
X155149307Y-74717366D01*
X155166275Y-74746755D01*
X155284498Y-74878054D01*
X155353631Y-74928282D01*
X155427435Y-74981904D01*
X155588835Y-75053764D01*
X155588840Y-75053766D01*
X155761660Y-75090500D01*
X155761661Y-75090500D01*
X155938338Y-75090500D01*
X155938340Y-75090500D01*
X156111160Y-75053766D01*
X156272565Y-74981904D01*
X156415502Y-74878054D01*
X156533725Y-74746755D01*
X156622065Y-74593745D01*
X156676662Y-74425712D01*
X156695130Y-74250000D01*
X156676662Y-74074288D01*
X156622065Y-73906255D01*
X156622064Y-73906254D01*
X156622064Y-73906252D01*
X156622063Y-73906251D01*
X156559276Y-73797501D01*
X156533725Y-73753245D01*
X156415502Y-73621946D01*
X156272565Y-73518096D01*
X156272564Y-73518095D01*
X156111164Y-73446235D01*
X156111159Y-73446233D01*
X155975073Y-73417307D01*
X155938340Y-73409500D01*
X155761660Y-73409500D01*
X155731366Y-73415939D01*
X155588840Y-73446233D01*
X155588835Y-73446235D01*
X155427435Y-73518095D01*
X155284499Y-73621945D01*
X155284498Y-73621946D01*
X155166275Y-73753245D01*
X155166273Y-73753246D01*
X155166272Y-73753249D01*
X155077936Y-73906251D01*
X155077935Y-73906252D01*
X155023339Y-74074284D01*
X155023338Y-74074286D01*
X155004870Y-74250000D01*
X140967724Y-74250000D01*
X140975232Y-74235954D01*
X141035300Y-74037934D01*
X141055583Y-73832000D01*
X141035300Y-73626066D01*
X140975232Y-73428046D01*
X140877685Y-73245550D01*
X140825702Y-73182209D01*
X140746410Y-73085589D01*
X140586452Y-72954317D01*
X140586453Y-72954317D01*
X140586450Y-72954315D01*
X140532274Y-72925357D01*
X140482431Y-72876395D01*
X140466971Y-72808257D01*
X140490803Y-72742578D01*
X140532273Y-72706643D01*
X140586450Y-72677685D01*
X140746410Y-72546410D01*
X140784499Y-72499998D01*
X184394318Y-72499998D01*
X184394318Y-72500001D01*
X184414955Y-72656760D01*
X184414956Y-72656762D01*
X184440061Y-72717370D01*
X184449500Y-72764823D01*
X184449500Y-74235176D01*
X184440061Y-74282628D01*
X184414957Y-74343234D01*
X184414955Y-74343239D01*
X184394318Y-74499998D01*
X184394318Y-74500001D01*
X184414955Y-74656760D01*
X184414956Y-74656762D01*
X184475464Y-74802841D01*
X184571718Y-74928282D01*
X184697159Y-75024536D01*
X184843238Y-75085044D01*
X184884681Y-75090500D01*
X184999999Y-75105682D01*
X185000000Y-75105682D01*
X185000001Y-75105682D01*
X185052254Y-75098802D01*
X185156762Y-75085044D01*
X185302841Y-75024536D01*
X185428282Y-74928282D01*
X185524536Y-74802841D01*
X185585044Y-74656762D01*
X185605682Y-74500000D01*
X185585044Y-74343238D01*
X185559939Y-74282628D01*
X185550500Y-74235176D01*
X185550500Y-72764823D01*
X185559939Y-72717370D01*
X185576377Y-72677685D01*
X185585044Y-72656762D01*
X185605682Y-72500000D01*
X185585044Y-72343238D01*
X185524536Y-72197159D01*
X185428282Y-72071718D01*
X185302841Y-71975464D01*
X185156762Y-71914956D01*
X185156760Y-71914955D01*
X185000001Y-71894318D01*
X184999999Y-71894318D01*
X184843239Y-71914955D01*
X184843237Y-71914956D01*
X184697160Y-71975463D01*
X184571718Y-72071718D01*
X184475463Y-72197160D01*
X184414956Y-72343237D01*
X184414955Y-72343239D01*
X184394318Y-72499998D01*
X140784499Y-72499998D01*
X140877685Y-72386450D01*
X140975232Y-72203954D01*
X141035300Y-72005934D01*
X141055583Y-71800000D01*
X141044256Y-71684998D01*
X177839318Y-71684998D01*
X177839318Y-71685001D01*
X177859955Y-71841760D01*
X177859956Y-71841762D01*
X177890273Y-71914955D01*
X177920464Y-71987841D01*
X178016718Y-72113282D01*
X178142159Y-72209536D01*
X178288238Y-72270044D01*
X178326217Y-72275044D01*
X178444999Y-72290682D01*
X178445000Y-72290682D01*
X178445001Y-72290682D01*
X178497254Y-72283802D01*
X178601762Y-72270044D01*
X178662370Y-72244938D01*
X178709823Y-72235500D01*
X182443105Y-72235500D01*
X182490557Y-72244939D01*
X182527205Y-72260118D01*
X182563238Y-72275044D01*
X182641619Y-72285363D01*
X182719999Y-72295682D01*
X182720000Y-72295682D01*
X182720001Y-72295682D01*
X182772254Y-72288802D01*
X182876762Y-72275044D01*
X183022841Y-72214536D01*
X183148282Y-72118282D01*
X183244536Y-71992841D01*
X183305044Y-71846762D01*
X183325682Y-71690000D01*
X183325023Y-71684998D01*
X183305044Y-71533239D01*
X183305044Y-71533238D01*
X183244536Y-71387159D01*
X183148282Y-71261718D01*
X183022841Y-71165464D01*
X182961580Y-71140089D01*
X182876762Y-71104956D01*
X182876760Y-71104955D01*
X182720001Y-71084318D01*
X182719999Y-71084318D01*
X182563239Y-71104955D01*
X182563237Y-71104956D01*
X182514701Y-71125061D01*
X182467248Y-71134500D01*
X178709823Y-71134500D01*
X178662370Y-71125061D01*
X178613830Y-71104955D01*
X178601762Y-71099956D01*
X178601760Y-71099955D01*
X178445001Y-71079318D01*
X178444999Y-71079318D01*
X178288239Y-71099955D01*
X178288237Y-71099956D01*
X178142160Y-71160463D01*
X178016718Y-71256718D01*
X177920463Y-71382160D01*
X177859956Y-71528237D01*
X177859955Y-71528239D01*
X177839318Y-71684998D01*
X141044256Y-71684998D01*
X141035300Y-71594066D01*
X140975232Y-71396046D01*
X140877685Y-71213550D01*
X140825702Y-71150209D01*
X140746410Y-71053589D01*
X140586452Y-70922317D01*
X140586453Y-70922317D01*
X140586450Y-70922315D01*
X140532274Y-70893357D01*
X140482431Y-70844395D01*
X140466971Y-70776257D01*
X140490803Y-70710578D01*
X140532273Y-70674643D01*
X140586450Y-70645685D01*
X140746410Y-70514410D01*
X140877685Y-70354450D01*
X140975232Y-70171954D01*
X141035300Y-69973934D01*
X141055583Y-69768000D01*
X141035300Y-69562066D01*
X140977038Y-69370000D01*
X155004870Y-69370000D01*
X155023338Y-69545713D01*
X155023339Y-69545715D01*
X155077935Y-69713747D01*
X155077936Y-69713748D01*
X155135148Y-69812841D01*
X155166275Y-69866755D01*
X155284498Y-69998054D01*
X155415856Y-70093491D01*
X155427435Y-70101904D01*
X155588835Y-70173764D01*
X155588840Y-70173766D01*
X155761660Y-70210500D01*
X155761661Y-70210500D01*
X155938338Y-70210500D01*
X155938340Y-70210500D01*
X156111160Y-70173766D01*
X156272565Y-70101904D01*
X156415502Y-69998054D01*
X156533725Y-69866755D01*
X156622065Y-69713745D01*
X156676662Y-69545712D01*
X156695130Y-69370000D01*
X156676662Y-69194288D01*
X156622065Y-69026255D01*
X156622064Y-69026254D01*
X156622064Y-69026252D01*
X156622063Y-69026251D01*
X156565293Y-68927923D01*
X156533725Y-68873245D01*
X156415502Y-68741946D01*
X156272565Y-68638096D01*
X156272564Y-68638095D01*
X156111164Y-68566235D01*
X156111159Y-68566233D01*
X155975073Y-68537307D01*
X155938340Y-68529500D01*
X155761660Y-68529500D01*
X155731366Y-68535939D01*
X155588840Y-68566233D01*
X155588835Y-68566235D01*
X155427435Y-68638095D01*
X155284499Y-68741945D01*
X155284498Y-68741946D01*
X155166275Y-68873245D01*
X155166273Y-68873246D01*
X155166272Y-68873249D01*
X155077936Y-69026251D01*
X155077935Y-69026252D01*
X155023339Y-69194284D01*
X155023338Y-69194286D01*
X155004870Y-69370000D01*
X140977038Y-69370000D01*
X140975232Y-69364046D01*
X140877685Y-69181550D01*
X140797108Y-69083366D01*
X140746410Y-69021589D01*
X140628677Y-68924969D01*
X140586450Y-68890315D01*
X140532274Y-68861357D01*
X140482431Y-68812395D01*
X140466971Y-68744257D01*
X140490803Y-68678578D01*
X140532273Y-68642643D01*
X140586450Y-68613685D01*
X140746410Y-68482410D01*
X140877685Y-68322450D01*
X140975232Y-68139954D01*
X141035300Y-67941934D01*
X141055583Y-67736000D01*
X141035300Y-67530066D01*
X140975232Y-67332046D01*
X140877685Y-67149550D01*
X140810069Y-67067159D01*
X140746410Y-66989589D01*
X140613457Y-66880479D01*
X140586450Y-66858315D01*
X140403954Y-66760768D01*
X140205934Y-66700700D01*
X140205932Y-66700699D01*
X140205934Y-66700699D01*
X140000000Y-66680417D01*
X139794067Y-66700699D01*
X139596043Y-66760769D01*
X139505044Y-66809410D01*
X139413550Y-66858315D01*
X139413548Y-66858316D01*
X139413547Y-66858317D01*
X139253589Y-66989589D01*
X139136756Y-67131953D01*
X139122315Y-67149550D01*
X139088274Y-67213235D01*
X139024769Y-67332043D01*
X138964699Y-67530067D01*
X138944417Y-67736000D01*
X138944417Y-67741178D01*
X138924732Y-67808217D01*
X138871928Y-67853972D01*
X138802770Y-67863916D01*
X138761963Y-67850536D01*
X138623956Y-67776769D01*
X138623955Y-67776768D01*
X138623954Y-67776768D01*
X138425934Y-67716700D01*
X138425932Y-67716699D01*
X138425934Y-67716699D01*
X138220000Y-67696417D01*
X138014067Y-67716699D01*
X137838692Y-67769898D01*
X137825544Y-67773887D01*
X137816043Y-67776769D01*
X137705898Y-67835643D01*
X137633550Y-67874315D01*
X137633548Y-67874316D01*
X137633547Y-67874317D01*
X137473589Y-68005589D01*
X137342317Y-68165547D01*
X137244769Y-68348043D01*
X137184699Y-68546067D01*
X137164417Y-68752000D01*
X137184699Y-68957932D01*
X137205423Y-69026251D01*
X137244768Y-69155954D01*
X137342315Y-69338450D01*
X137368207Y-69370000D01*
X137473589Y-69498410D01*
X137532840Y-69547035D01*
X137572175Y-69604781D01*
X137574046Y-69674625D01*
X137537859Y-69734394D01*
X137530477Y-69740312D01*
X137530427Y-69740874D01*
X138135497Y-70345944D01*
X138048236Y-70369326D01*
X137946764Y-70427911D01*
X137863911Y-70510764D01*
X137805326Y-70612236D01*
X137781944Y-70699498D01*
X137176874Y-70094428D01*
X137133333Y-70156613D01*
X137040898Y-70354840D01*
X137040894Y-70354849D01*
X136984289Y-70566105D01*
X136984287Y-70566115D01*
X136965225Y-70783999D01*
X129592989Y-70783999D01*
X129566694Y-64815065D01*
X133804500Y-64815065D01*
X133804500Y-65060934D01*
X133826189Y-65225667D01*
X133836591Y-65304677D01*
X133900222Y-65542152D01*
X133900225Y-65542162D01*
X133986749Y-65751047D01*
X133994306Y-65769292D01*
X134117233Y-65982208D01*
X134117235Y-65982211D01*
X134117236Y-65982212D01*
X134266897Y-66177254D01*
X134266903Y-66177261D01*
X134440738Y-66351096D01*
X134440745Y-66351102D01*
X134522870Y-66414119D01*
X134635792Y-66500767D01*
X134848708Y-66623694D01*
X134913040Y-66650341D01*
X135048182Y-66706319D01*
X135075847Y-66717778D01*
X135313323Y-66781409D01*
X135557073Y-66813500D01*
X135557080Y-66813500D01*
X135802920Y-66813500D01*
X135802927Y-66813500D01*
X136046677Y-66781409D01*
X136284153Y-66717778D01*
X136511292Y-66623694D01*
X136724208Y-66500767D01*
X136919256Y-66351101D01*
X137093101Y-66177256D01*
X137242767Y-65982208D01*
X137365694Y-65769292D01*
X137459778Y-65542153D01*
X137523409Y-65304677D01*
X137555500Y-65060927D01*
X137555500Y-64815073D01*
X137523409Y-64571323D01*
X137459778Y-64333847D01*
X137454691Y-64321567D01*
X137430997Y-64264364D01*
X137365694Y-64106708D01*
X137242767Y-63893792D01*
X137149956Y-63772839D01*
X137093102Y-63698745D01*
X137093096Y-63698738D01*
X136919261Y-63524903D01*
X136919254Y-63524897D01*
X136724212Y-63375236D01*
X136724211Y-63375235D01*
X136724208Y-63375233D01*
X136511292Y-63252306D01*
X136511285Y-63252303D01*
X136284162Y-63158225D01*
X136284155Y-63158223D01*
X136284153Y-63158222D01*
X136283302Y-63157994D01*
X137654529Y-63157994D01*
X137654529Y-63158005D01*
X137674379Y-63397559D01*
X137733389Y-63630589D01*
X137829951Y-63850729D01*
X137923906Y-63994536D01*
X137961429Y-64051969D01*
X138124236Y-64228825D01*
X138124239Y-64228827D01*
X138124242Y-64228830D01*
X138313924Y-64376466D01*
X138313930Y-64376470D01*
X138313933Y-64376472D01*
X138525344Y-64490882D01*
X138542208Y-64496671D01*
X138752699Y-64568933D01*
X138752701Y-64568933D01*
X138752703Y-64568934D01*
X138989808Y-64608500D01*
X138989809Y-64608500D01*
X139230191Y-64608500D01*
X139230192Y-64608500D01*
X139467297Y-64568934D01*
X139694656Y-64490882D01*
X139810852Y-64428000D01*
X143764417Y-64428000D01*
X143784699Y-64633932D01*
X143804782Y-64700136D01*
X143844768Y-64831954D01*
X143942315Y-65014450D01*
X143965178Y-65042309D01*
X144073589Y-65174410D01*
X144108227Y-65202836D01*
X144233550Y-65305685D01*
X144416046Y-65403232D01*
X144566490Y-65448868D01*
X144584525Y-65454339D01*
X144642964Y-65492637D01*
X144671420Y-65556449D01*
X144660860Y-65625516D01*
X144614636Y-65677910D01*
X144584525Y-65691661D01*
X144416043Y-65742769D01*
X144305898Y-65801643D01*
X144233550Y-65840315D01*
X144233548Y-65840316D01*
X144233547Y-65840317D01*
X144073589Y-65971589D01*
X143942317Y-66131547D01*
X143942315Y-66131550D01*
X143917882Y-66177261D01*
X143844769Y-66314043D01*
X143784699Y-66512067D01*
X143764417Y-66718000D01*
X143784699Y-66923932D01*
X143795792Y-66960500D01*
X143844768Y-67121954D01*
X143942315Y-67304450D01*
X143942317Y-67304452D01*
X144073589Y-67464410D01*
X144153594Y-67530067D01*
X144233550Y-67595685D01*
X144416046Y-67693232D01*
X144614066Y-67753300D01*
X144614065Y-67753300D01*
X144632529Y-67755118D01*
X144820000Y-67773583D01*
X145025934Y-67753300D01*
X145223954Y-67693232D01*
X145406450Y-67595685D01*
X145566410Y-67464410D01*
X145697685Y-67304450D01*
X145795232Y-67121954D01*
X145855300Y-66923934D01*
X145875583Y-66718000D01*
X145855300Y-66512066D01*
X145795232Y-66314046D01*
X145720909Y-66174998D01*
X156059318Y-66174998D01*
X156059318Y-66175001D01*
X156079955Y-66331760D01*
X156079956Y-66331762D01*
X156114071Y-66414124D01*
X156140464Y-66477841D01*
X156236718Y-66603282D01*
X156362159Y-66699536D01*
X156508238Y-66760044D01*
X156665000Y-66780682D01*
X156665001Y-66780681D01*
X156668513Y-66781144D01*
X156732410Y-66809410D01*
X156740009Y-66816402D01*
X156804087Y-66880480D01*
X156895412Y-66933207D01*
X156997273Y-66960500D01*
X157102727Y-66960500D01*
X159709800Y-66960500D01*
X159776839Y-66980185D01*
X159822594Y-67032989D01*
X159832538Y-67102147D01*
X159824362Y-67131948D01*
X159804488Y-67179928D01*
X159790691Y-67213237D01*
X159790690Y-67213239D01*
X159770053Y-67369998D01*
X159770053Y-67370001D01*
X159790690Y-67526760D01*
X159790691Y-67526762D01*
X159851199Y-67672842D01*
X159880365Y-67710852D01*
X159889376Y-67724338D01*
X159935222Y-67803746D01*
X159935227Y-67803752D01*
X161843478Y-69712003D01*
X161870358Y-69752231D01*
X161895462Y-69812838D01*
X161895463Y-69812839D01*
X161895464Y-69812841D01*
X161991718Y-69938282D01*
X162117159Y-70034536D01*
X162263238Y-70095044D01*
X162315345Y-70101904D01*
X162419999Y-70115682D01*
X162420000Y-70115682D01*
X162420001Y-70115682D01*
X162472254Y-70108802D01*
X162576762Y-70095044D01*
X162722841Y-70034536D01*
X162848282Y-69938282D01*
X162944536Y-69812841D01*
X163005044Y-69666762D01*
X163025682Y-69510000D01*
X163021732Y-69480000D01*
X163005044Y-69353239D01*
X163005044Y-69353238D01*
X162944536Y-69207159D01*
X162855471Y-69091088D01*
X162852486Y-69083366D01*
X162838909Y-69074526D01*
X162814257Y-69055610D01*
X162722841Y-68985464D01*
X162722837Y-68985462D01*
X162722838Y-68985462D01*
X162662231Y-68960358D01*
X162622003Y-68933478D01*
X160999489Y-67310964D01*
X160966004Y-67249641D01*
X160964236Y-67239503D01*
X160960779Y-67213238D01*
X160940490Y-67164257D01*
X160933022Y-67094791D01*
X160964297Y-67032312D01*
X161024385Y-66996659D01*
X161094211Y-66999152D01*
X161142733Y-67029126D01*
X163002076Y-68888469D01*
X163014332Y-68910915D01*
X163026973Y-68915459D01*
X163041530Y-68927923D01*
X163198597Y-69084990D01*
X163232082Y-69146313D01*
X163233855Y-69156485D01*
X163254956Y-69316761D01*
X163254956Y-69316762D01*
X163297743Y-69420060D01*
X163315464Y-69462841D01*
X163411718Y-69588282D01*
X163537159Y-69684536D01*
X163683238Y-69745044D01*
X163737829Y-69752231D01*
X163839999Y-69765682D01*
X163840000Y-69765682D01*
X163840001Y-69765682D01*
X163892254Y-69758802D01*
X163996762Y-69745044D01*
X164142841Y-69684536D01*
X164268282Y-69588282D01*
X164364536Y-69462841D01*
X164425044Y-69316762D01*
X164445682Y-69160000D01*
X164445149Y-69155954D01*
X164425044Y-69003239D01*
X164425044Y-69003238D01*
X164364536Y-68857159D01*
X164268282Y-68731718D01*
X164142841Y-68635464D01*
X163996762Y-68574956D01*
X163930519Y-68566235D01*
X163836485Y-68553855D01*
X163772589Y-68525588D01*
X163764990Y-68518597D01*
X161485915Y-66239522D01*
X161485913Y-66239520D01*
X161423101Y-66203255D01*
X161394589Y-66186793D01*
X161343657Y-66173146D01*
X161292727Y-66159500D01*
X161292726Y-66159500D01*
X157377386Y-66159500D01*
X157310347Y-66139815D01*
X157264592Y-66087011D01*
X157254447Y-66051685D01*
X157250044Y-66018238D01*
X157189536Y-65872159D01*
X157093282Y-65746718D01*
X156967841Y-65650464D01*
X156907611Y-65625516D01*
X156821762Y-65589956D01*
X156821760Y-65589955D01*
X156665001Y-65569318D01*
X156664999Y-65569318D01*
X156508239Y-65589955D01*
X156508237Y-65589956D01*
X156362160Y-65650463D01*
X156236718Y-65746718D01*
X156140463Y-65872160D01*
X156079956Y-66018237D01*
X156079955Y-66018239D01*
X156059318Y-66174998D01*
X145720909Y-66174998D01*
X145697685Y-66131550D01*
X145632142Y-66051685D01*
X145566410Y-65971589D01*
X145445252Y-65872159D01*
X145406450Y-65840315D01*
X145223954Y-65742768D01*
X145055473Y-65691660D01*
X144997035Y-65653363D01*
X144968579Y-65589551D01*
X144979139Y-65520484D01*
X145025363Y-65468091D01*
X145055472Y-65454339D01*
X145223954Y-65403232D01*
X145406450Y-65305685D01*
X145566410Y-65174410D01*
X145697685Y-65014450D01*
X145758861Y-64899998D01*
X170494318Y-64899998D01*
X170494318Y-64900001D01*
X170514955Y-65056760D01*
X170514957Y-65056765D01*
X170575461Y-65202836D01*
X170575464Y-65202841D01*
X170623876Y-65265933D01*
X170649070Y-65331102D01*
X170649500Y-65341419D01*
X170649500Y-67659308D01*
X170673712Y-67749672D01*
X170680200Y-67773885D01*
X170680200Y-67773886D01*
X170697444Y-67803752D01*
X170739511Y-67876614D01*
X170739513Y-67876616D01*
X171781277Y-68918380D01*
X171814762Y-68979703D01*
X171809778Y-69049395D01*
X171791972Y-69081547D01*
X171745464Y-69142157D01*
X171684956Y-69288237D01*
X171684955Y-69288239D01*
X171664318Y-69444998D01*
X171664318Y-69445001D01*
X171684955Y-69601760D01*
X171684956Y-69601762D01*
X171745464Y-69747841D01*
X171841718Y-69873282D01*
X171967159Y-69969536D01*
X172113238Y-70030044D01*
X172191619Y-70040363D01*
X172269999Y-70050682D01*
X172270000Y-70050682D01*
X172270001Y-70050682D01*
X172322254Y-70043802D01*
X172426762Y-70030044D01*
X172572841Y-69969536D01*
X172698282Y-69873282D01*
X172794536Y-69747841D01*
X172855044Y-69601762D01*
X172873333Y-69462841D01*
X172875682Y-69445001D01*
X172875682Y-69444998D01*
X172861655Y-69338452D01*
X172855044Y-69288238D01*
X172794536Y-69142159D01*
X172794535Y-69142158D01*
X172794535Y-69142157D01*
X172746124Y-69079066D01*
X172720930Y-69013896D01*
X172720500Y-69003580D01*
X172720500Y-68929999D01*
X199301115Y-68929999D01*
X199301116Y-68930000D01*
X200053012Y-68930000D01*
X200035795Y-68939940D01*
X199979940Y-68995795D01*
X199940444Y-69064204D01*
X199920000Y-69140504D01*
X199920000Y-69219496D01*
X199940444Y-69295796D01*
X199979940Y-69364205D01*
X200035795Y-69420060D01*
X200053012Y-69430000D01*
X199301116Y-69430000D01*
X199306506Y-69457100D01*
X199306507Y-69457103D01*
X199378119Y-69629991D01*
X199378124Y-69630000D01*
X199482086Y-69785589D01*
X199482089Y-69785593D01*
X199614406Y-69917910D01*
X199614410Y-69917913D01*
X199769999Y-70021875D01*
X199770008Y-70021880D01*
X199942894Y-70093491D01*
X199942902Y-70093493D01*
X200126428Y-70129999D01*
X200126431Y-70130000D01*
X200520000Y-70130000D01*
X200520000Y-69480000D01*
X201020000Y-69480000D01*
X201020000Y-70130000D01*
X201413569Y-70130000D01*
X201413571Y-70129999D01*
X201597097Y-70093493D01*
X201597105Y-70093491D01*
X201769991Y-70021880D01*
X201770000Y-70021875D01*
X201925589Y-69917913D01*
X201925593Y-69917910D01*
X202057910Y-69785593D01*
X202057913Y-69785589D01*
X202161875Y-69630000D01*
X202161880Y-69629991D01*
X202233492Y-69457103D01*
X202233493Y-69457100D01*
X202238884Y-69430000D01*
X201486988Y-69430000D01*
X201504205Y-69420060D01*
X201560060Y-69364205D01*
X201599556Y-69295796D01*
X201620000Y-69219496D01*
X201620000Y-69140504D01*
X201599556Y-69064204D01*
X201560060Y-68995795D01*
X201504205Y-68939940D01*
X201486988Y-68930000D01*
X202238884Y-68930000D01*
X202238884Y-68929999D01*
X203621115Y-68929999D01*
X203621116Y-68930000D01*
X204373012Y-68930000D01*
X204355795Y-68939940D01*
X204299940Y-68995795D01*
X204260444Y-69064204D01*
X204240000Y-69140504D01*
X204240000Y-69219496D01*
X204260444Y-69295796D01*
X204299940Y-69364205D01*
X204355795Y-69420060D01*
X204373012Y-69430000D01*
X203621116Y-69430000D01*
X203626506Y-69457100D01*
X203626507Y-69457103D01*
X203698119Y-69629991D01*
X203698124Y-69630000D01*
X203802086Y-69785589D01*
X203802089Y-69785593D01*
X203934406Y-69917910D01*
X203934410Y-69917913D01*
X204089999Y-70021875D01*
X204090008Y-70021880D01*
X204262894Y-70093491D01*
X204262902Y-70093493D01*
X204446428Y-70129999D01*
X204446431Y-70130000D01*
X204690000Y-70130000D01*
X204690000Y-69480000D01*
X205190000Y-69480000D01*
X205190000Y-70130000D01*
X205433569Y-70130000D01*
X205433571Y-70129999D01*
X205617097Y-70093493D01*
X205617105Y-70093491D01*
X205789991Y-70021880D01*
X205790000Y-70021875D01*
X205945589Y-69917913D01*
X205945593Y-69917910D01*
X206077910Y-69785593D01*
X206077913Y-69785589D01*
X206181875Y-69630000D01*
X206181880Y-69629991D01*
X206253492Y-69457103D01*
X206253493Y-69457100D01*
X206258884Y-69430000D01*
X205506988Y-69430000D01*
X205524205Y-69420060D01*
X205580060Y-69364205D01*
X205619556Y-69295796D01*
X205640000Y-69219496D01*
X205640000Y-69140504D01*
X205619556Y-69064204D01*
X205580060Y-68995795D01*
X205524205Y-68939940D01*
X205506988Y-68930000D01*
X206258884Y-68930000D01*
X206258884Y-68929999D01*
X206253493Y-68902899D01*
X206253492Y-68902896D01*
X206181880Y-68730008D01*
X206181875Y-68729999D01*
X206077913Y-68574410D01*
X206077910Y-68574406D01*
X205945593Y-68442089D01*
X205945589Y-68442086D01*
X205790000Y-68338124D01*
X205789991Y-68338119D01*
X205617105Y-68266508D01*
X205617097Y-68266506D01*
X205433570Y-68230000D01*
X205190000Y-68230000D01*
X205190000Y-68880000D01*
X204690000Y-68880000D01*
X204690000Y-68230000D01*
X204446430Y-68230000D01*
X204262902Y-68266506D01*
X204262894Y-68266508D01*
X204090008Y-68338119D01*
X204089999Y-68338124D01*
X203934410Y-68442086D01*
X203934406Y-68442089D01*
X203802089Y-68574406D01*
X203802086Y-68574410D01*
X203698124Y-68729999D01*
X203698119Y-68730008D01*
X203626507Y-68902896D01*
X203626506Y-68902899D01*
X203621115Y-68929999D01*
X202238884Y-68929999D01*
X202233493Y-68902899D01*
X202233492Y-68902896D01*
X202161880Y-68730008D01*
X202161875Y-68729999D01*
X202057913Y-68574410D01*
X202057910Y-68574406D01*
X201925593Y-68442089D01*
X201925589Y-68442086D01*
X201770000Y-68338124D01*
X201769991Y-68338119D01*
X201597105Y-68266508D01*
X201597097Y-68266506D01*
X201413570Y-68230000D01*
X201020000Y-68230000D01*
X201020000Y-68880000D01*
X200520000Y-68880000D01*
X200520000Y-68230000D01*
X200126430Y-68230000D01*
X199942902Y-68266506D01*
X199942894Y-68266508D01*
X199770008Y-68338119D01*
X199769999Y-68338124D01*
X199614410Y-68442086D01*
X199614406Y-68442089D01*
X199482089Y-68574406D01*
X199482086Y-68574410D01*
X199378124Y-68729999D01*
X199378119Y-68730008D01*
X199306507Y-68902896D01*
X199306506Y-68902899D01*
X199301115Y-68929999D01*
X172720500Y-68929999D01*
X172720500Y-68710693D01*
X172720500Y-68710691D01*
X172689799Y-68596114D01*
X172689799Y-68596113D01*
X172630489Y-68493386D01*
X171586819Y-67449716D01*
X171553334Y-67388393D01*
X171550500Y-67362035D01*
X171550500Y-65341419D01*
X171570185Y-65274380D01*
X171576124Y-65265933D01*
X171592092Y-65245121D01*
X171624536Y-65202841D01*
X171648489Y-65145013D01*
X172630000Y-65145013D01*
X172630000Y-65395000D01*
X173454722Y-65395000D01*
X173410667Y-65471306D01*
X173380000Y-65585756D01*
X173380000Y-65704244D01*
X173410667Y-65818694D01*
X173454722Y-65895000D01*
X172630001Y-65895000D01*
X172630001Y-66144986D01*
X172640494Y-66247697D01*
X172695641Y-66414119D01*
X172695643Y-66414124D01*
X172787684Y-66563345D01*
X172911654Y-66687315D01*
X173060875Y-66779356D01*
X173060880Y-66779358D01*
X173227302Y-66834505D01*
X173227309Y-66834506D01*
X173330019Y-66844999D01*
X173579999Y-66844999D01*
X173580000Y-66844998D01*
X173580000Y-66020277D01*
X173656306Y-66064333D01*
X173770756Y-66095000D01*
X173889244Y-66095000D01*
X174003694Y-66064333D01*
X174080000Y-66020277D01*
X174080000Y-66844999D01*
X174329972Y-66844999D01*
X174329986Y-66844998D01*
X174432697Y-66834505D01*
X174599119Y-66779358D01*
X174599124Y-66779356D01*
X174748345Y-66687315D01*
X174872315Y-66563345D01*
X174964356Y-66414124D01*
X174964358Y-66414119D01*
X175019505Y-66247697D01*
X175019506Y-66247690D01*
X175029999Y-66144986D01*
X175030000Y-66144973D01*
X175030000Y-65895000D01*
X174205278Y-65895000D01*
X174249333Y-65818694D01*
X174280000Y-65704244D01*
X174280000Y-65645000D01*
X176124659Y-65645000D01*
X176143975Y-65841129D01*
X176143976Y-65841132D01*
X176195927Y-66012392D01*
X176201188Y-66029733D01*
X176294086Y-66203532D01*
X176294090Y-66203539D01*
X176419116Y-66355883D01*
X176571460Y-66480909D01*
X176571467Y-66480913D01*
X176745266Y-66573811D01*
X176745269Y-66573811D01*
X176745273Y-66573814D01*
X176933868Y-66631024D01*
X177130000Y-66650341D01*
X177326132Y-66631024D01*
X177514727Y-66573814D01*
X177688538Y-66480910D01*
X177840883Y-66355883D01*
X177965910Y-66203538D01*
X178058814Y-66029727D01*
X178116024Y-65841132D01*
X178135341Y-65645000D01*
X178116024Y-65448868D01*
X178084516Y-65344999D01*
X181049364Y-65344999D01*
X181049364Y-65345000D01*
X181946988Y-65345000D01*
X181914075Y-65402007D01*
X181880000Y-65529174D01*
X181880000Y-65660826D01*
X181914075Y-65787993D01*
X181946988Y-65845000D01*
X181049364Y-65845000D01*
X181106567Y-66058486D01*
X181106570Y-66058492D01*
X181206399Y-66272578D01*
X181341894Y-66466082D01*
X181508917Y-66633105D01*
X181702421Y-66768600D01*
X181916507Y-66868429D01*
X181916516Y-66868433D01*
X182130000Y-66925634D01*
X182130000Y-66028012D01*
X182187007Y-66060925D01*
X182314174Y-66095000D01*
X182445826Y-66095000D01*
X182572993Y-66060925D01*
X182630000Y-66028012D01*
X182630000Y-66925633D01*
X182843483Y-66868433D01*
X182843492Y-66868429D01*
X183057578Y-66768600D01*
X183251082Y-66633105D01*
X183418105Y-66466082D01*
X183553600Y-66272578D01*
X183647294Y-66071651D01*
X183693466Y-66019212D01*
X183760660Y-66000060D01*
X183827541Y-66020276D01*
X183870676Y-66068785D01*
X183937632Y-66203253D01*
X184021298Y-66314043D01*
X184066128Y-66373407D01*
X184223698Y-66517052D01*
X184404981Y-66629298D01*
X184603802Y-66706321D01*
X184813390Y-66745500D01*
X184813392Y-66745500D01*
X185026608Y-66745500D01*
X185026610Y-66745500D01*
X185236198Y-66706321D01*
X185435019Y-66629298D01*
X185616302Y-66517052D01*
X185773872Y-66373407D01*
X185902366Y-66203255D01*
X185933955Y-66139815D01*
X185997403Y-66012394D01*
X185997403Y-66012393D01*
X185997405Y-66012389D01*
X186055756Y-65807310D01*
X186066529Y-65691047D01*
X186092315Y-65626111D01*
X186134622Y-65595804D01*
X186243130Y-65595804D01*
X186279503Y-65616668D01*
X186311693Y-65678681D01*
X186313470Y-65691047D01*
X186324244Y-65807310D01*
X186377675Y-65995099D01*
X186382596Y-66012392D01*
X186382596Y-66012394D01*
X186477632Y-66203253D01*
X186561298Y-66314043D01*
X186606128Y-66373407D01*
X186763698Y-66517052D01*
X186944981Y-66629298D01*
X187143802Y-66706321D01*
X187353390Y-66745500D01*
X187353392Y-66745500D01*
X187566608Y-66745500D01*
X187566610Y-66745500D01*
X187776198Y-66706321D01*
X187975019Y-66629298D01*
X188156302Y-66517052D01*
X188313872Y-66373407D01*
X188442366Y-66203255D01*
X188473955Y-66139815D01*
X188537403Y-66012394D01*
X188537403Y-66012393D01*
X188537405Y-66012389D01*
X188595756Y-65807310D01*
X188602029Y-65739605D01*
X188627814Y-65674669D01*
X188684614Y-65633981D01*
X188754395Y-65630461D01*
X188815002Y-65665225D01*
X188847193Y-65727238D01*
X188849500Y-65751047D01*
X188849500Y-66489856D01*
X188849502Y-66489882D01*
X188852413Y-66514987D01*
X188852415Y-66514991D01*
X188897793Y-66617764D01*
X188897794Y-66617765D01*
X188977235Y-66697206D01*
X189080009Y-66742585D01*
X189105135Y-66745500D01*
X190894864Y-66745499D01*
X190894879Y-66745497D01*
X190894882Y-66745497D01*
X190919987Y-66742586D01*
X190919988Y-66742585D01*
X190919991Y-66742585D01*
X191022765Y-66697206D01*
X191102206Y-66617765D01*
X191147585Y-66514991D01*
X191150500Y-66489865D01*
X191150499Y-64700136D01*
X191150497Y-64700117D01*
X191147586Y-64675012D01*
X191147585Y-64675010D01*
X191147585Y-64675009D01*
X191102206Y-64572235D01*
X191022765Y-64492794D01*
X191002124Y-64483680D01*
X190919992Y-64447415D01*
X190894865Y-64444500D01*
X189105143Y-64444500D01*
X189105117Y-64444502D01*
X189080012Y-64447413D01*
X189080008Y-64447415D01*
X188977235Y-64492793D01*
X188897794Y-64572234D01*
X188852415Y-64675006D01*
X188852415Y-64675008D01*
X188849500Y-64700131D01*
X188849500Y-65438951D01*
X188829815Y-65505990D01*
X188777011Y-65551745D01*
X188707853Y-65561689D01*
X188644297Y-65532664D01*
X188606523Y-65473886D01*
X188602029Y-65450391D01*
X188595756Y-65382689D01*
X188573845Y-65305682D01*
X188537405Y-65177611D01*
X188537403Y-65177606D01*
X188537403Y-65177605D01*
X188442367Y-64986746D01*
X188313872Y-64816593D01*
X188233407Y-64743239D01*
X188156302Y-64672948D01*
X187975019Y-64560702D01*
X187975017Y-64560701D01*
X187845801Y-64510643D01*
X187776198Y-64483679D01*
X187566610Y-64444500D01*
X187353390Y-64444500D01*
X187143802Y-64483679D01*
X187143799Y-64483679D01*
X187143799Y-64483680D01*
X186944982Y-64560701D01*
X186944980Y-64560702D01*
X186763699Y-64672947D01*
X186606127Y-64816593D01*
X186477632Y-64986746D01*
X186382596Y-65177605D01*
X186382596Y-65177607D01*
X186324244Y-65382689D01*
X186313471Y-65498951D01*
X186287685Y-65563888D01*
X186243130Y-65595804D01*
X186134622Y-65595804D01*
X186136869Y-65594194D01*
X186100497Y-65573331D01*
X186068307Y-65511318D01*
X186066529Y-65498951D01*
X186057659Y-65403230D01*
X186055756Y-65382690D01*
X185997405Y-65177611D01*
X185997403Y-65177606D01*
X185997403Y-65177605D01*
X185902367Y-64986746D01*
X185773872Y-64816593D01*
X185693407Y-64743239D01*
X185616302Y-64672948D01*
X185435019Y-64560702D01*
X185435017Y-64560701D01*
X185305801Y-64510643D01*
X185236198Y-64483679D01*
X185026610Y-64444500D01*
X184813390Y-64444500D01*
X184603802Y-64483679D01*
X184603799Y-64483679D01*
X184603799Y-64483680D01*
X184404982Y-64560701D01*
X184404980Y-64560702D01*
X184223699Y-64672947D01*
X184066127Y-64816593D01*
X183937634Y-64986744D01*
X183870676Y-65121215D01*
X183823173Y-65172452D01*
X183755510Y-65189873D01*
X183689170Y-65167947D01*
X183647294Y-65118348D01*
X183553600Y-64917422D01*
X183553599Y-64917420D01*
X183418113Y-64723926D01*
X183418108Y-64723920D01*
X183251082Y-64556894D01*
X183057578Y-64421399D01*
X182843492Y-64321570D01*
X182843486Y-64321567D01*
X182630000Y-64264364D01*
X182630000Y-65161988D01*
X182572993Y-65129075D01*
X182445826Y-65095000D01*
X182314174Y-65095000D01*
X182187007Y-65129075D01*
X182130000Y-65161988D01*
X182130000Y-64264364D01*
X182129999Y-64264364D01*
X181916513Y-64321567D01*
X181916507Y-64321570D01*
X181702422Y-64421399D01*
X181702420Y-64421400D01*
X181508926Y-64556886D01*
X181508920Y-64556891D01*
X181341891Y-64723920D01*
X181341886Y-64723926D01*
X181206400Y-64917420D01*
X181206399Y-64917422D01*
X181106570Y-65131507D01*
X181106567Y-65131513D01*
X181049364Y-65344999D01*
X178084516Y-65344999D01*
X178058814Y-65260273D01*
X178058811Y-65260269D01*
X178058811Y-65260266D01*
X177965913Y-65086467D01*
X177965909Y-65086460D01*
X177840883Y-64934116D01*
X177688539Y-64809090D01*
X177688532Y-64809086D01*
X177514733Y-64716188D01*
X177514727Y-64716186D01*
X177326132Y-64658976D01*
X177326129Y-64658975D01*
X177130000Y-64639659D01*
X176933870Y-64658975D01*
X176745266Y-64716188D01*
X176571467Y-64809086D01*
X176571460Y-64809090D01*
X176419116Y-64934116D01*
X176294090Y-65086460D01*
X176294086Y-65086467D01*
X176201188Y-65260266D01*
X176143975Y-65448870D01*
X176124659Y-65645000D01*
X174280000Y-65645000D01*
X174280000Y-65585756D01*
X174249333Y-65471306D01*
X174205278Y-65395000D01*
X175029999Y-65395000D01*
X175029999Y-65145028D01*
X175029998Y-65145013D01*
X175019505Y-65042302D01*
X174964358Y-64875880D01*
X174964356Y-64875875D01*
X174872315Y-64726654D01*
X174748345Y-64602684D01*
X174599124Y-64510643D01*
X174599119Y-64510641D01*
X174432697Y-64455494D01*
X174432690Y-64455493D01*
X174329986Y-64445000D01*
X174080000Y-64445000D01*
X174080000Y-65269722D01*
X174003694Y-65225667D01*
X173889244Y-65195000D01*
X173770756Y-65195000D01*
X173656306Y-65225667D01*
X173580000Y-65269722D01*
X173580000Y-64445000D01*
X173330029Y-64445000D01*
X173330012Y-64445001D01*
X173227302Y-64455494D01*
X173060880Y-64510641D01*
X173060875Y-64510643D01*
X172911654Y-64602684D01*
X172787684Y-64726654D01*
X172695643Y-64875875D01*
X172695641Y-64875880D01*
X172640494Y-65042302D01*
X172640493Y-65042309D01*
X172630000Y-65145013D01*
X171648489Y-65145013D01*
X171685044Y-65056762D01*
X171705682Y-64900000D01*
X171685044Y-64743238D01*
X171624536Y-64597159D01*
X171528282Y-64471718D01*
X171402841Y-64375464D01*
X171256762Y-64314956D01*
X171256760Y-64314955D01*
X171100001Y-64294318D01*
X171099999Y-64294318D01*
X170943239Y-64314955D01*
X170943237Y-64314956D01*
X170797160Y-64375463D01*
X170671718Y-64471718D01*
X170575463Y-64597160D01*
X170514956Y-64743237D01*
X170514955Y-64743239D01*
X170494318Y-64899998D01*
X145758861Y-64899998D01*
X145795232Y-64831954D01*
X145855300Y-64633934D01*
X145875583Y-64428000D01*
X145855300Y-64222066D01*
X145795232Y-64024046D01*
X145697685Y-63841550D01*
X145641296Y-63772839D01*
X145566410Y-63681589D01*
X145406452Y-63550317D01*
X145406453Y-63550317D01*
X145406450Y-63550315D01*
X145256189Y-63469998D01*
X164946818Y-63469998D01*
X164946818Y-63470001D01*
X164967455Y-63626760D01*
X164967456Y-63626762D01*
X164990166Y-63681590D01*
X165027964Y-63772841D01*
X165124218Y-63898282D01*
X165249659Y-63994536D01*
X165395738Y-64055044D01*
X165474119Y-64065363D01*
X165552499Y-64075682D01*
X165552500Y-64075682D01*
X165552501Y-64075682D01*
X165604754Y-64068802D01*
X165709262Y-64055044D01*
X165769870Y-64029938D01*
X165817323Y-64020500D01*
X167195177Y-64020500D01*
X167242629Y-64029938D01*
X167303238Y-64055044D01*
X167381619Y-64065363D01*
X167459999Y-64075682D01*
X167460000Y-64075682D01*
X167460001Y-64075682D01*
X167512254Y-64068802D01*
X167616762Y-64055044D01*
X167762841Y-63994536D01*
X167888282Y-63898282D01*
X167984536Y-63772841D01*
X168045044Y-63626762D01*
X168065682Y-63470000D01*
X168063413Y-63452768D01*
X168045044Y-63313239D01*
X168045044Y-63313238D01*
X167984536Y-63167159D01*
X167967533Y-63145000D01*
X172824659Y-63145000D01*
X172843975Y-63341129D01*
X172843976Y-63341132D01*
X172899721Y-63524899D01*
X172901188Y-63529733D01*
X172994086Y-63703532D01*
X172994090Y-63703539D01*
X173119116Y-63855883D01*
X173271460Y-63980909D01*
X173271467Y-63980913D01*
X173445266Y-64073811D01*
X173445269Y-64073811D01*
X173445273Y-64073814D01*
X173633868Y-64131024D01*
X173830000Y-64150341D01*
X174026132Y-64131024D01*
X174214727Y-64073814D01*
X174388538Y-63980910D01*
X174540883Y-63855883D01*
X174665910Y-63703538D01*
X174712362Y-63616632D01*
X174758811Y-63529733D01*
X174758811Y-63529732D01*
X174758814Y-63529727D01*
X174816024Y-63341132D01*
X174835341Y-63145000D01*
X176124659Y-63145000D01*
X176143975Y-63341129D01*
X176143976Y-63341132D01*
X176199721Y-63524899D01*
X176201188Y-63529733D01*
X176294086Y-63703532D01*
X176294090Y-63703539D01*
X176419116Y-63855883D01*
X176571460Y-63980909D01*
X176571467Y-63980913D01*
X176745266Y-64073811D01*
X176745269Y-64073811D01*
X176745273Y-64073814D01*
X176933868Y-64131024D01*
X177130000Y-64150341D01*
X177326132Y-64131024D01*
X177514727Y-64073814D01*
X177688538Y-63980910D01*
X177840883Y-63855883D01*
X177965910Y-63703538D01*
X178012362Y-63616632D01*
X178058811Y-63529733D01*
X178058811Y-63529732D01*
X178058814Y-63529727D01*
X178116024Y-63341132D01*
X178135341Y-63145000D01*
X178116024Y-62948868D01*
X178058814Y-62760273D01*
X178058811Y-62760269D01*
X178058811Y-62760266D01*
X177965913Y-62586467D01*
X177965909Y-62586460D01*
X177840883Y-62434116D01*
X177688539Y-62309090D01*
X177688532Y-62309086D01*
X177514733Y-62216188D01*
X177514727Y-62216186D01*
X177326132Y-62158976D01*
X177326129Y-62158975D01*
X177130000Y-62139659D01*
X176933870Y-62158975D01*
X176745266Y-62216188D01*
X176571467Y-62309086D01*
X176571460Y-62309090D01*
X176419116Y-62434116D01*
X176294090Y-62586460D01*
X176294086Y-62586467D01*
X176201188Y-62760266D01*
X176143975Y-62948870D01*
X176124659Y-63145000D01*
X174835341Y-63145000D01*
X174816024Y-62948868D01*
X174758814Y-62760273D01*
X174758811Y-62760269D01*
X174758811Y-62760266D01*
X174665913Y-62586467D01*
X174665909Y-62586460D01*
X174540883Y-62434116D01*
X174388539Y-62309090D01*
X174388532Y-62309086D01*
X174214733Y-62216188D01*
X174214727Y-62216186D01*
X174026132Y-62158976D01*
X174026129Y-62158975D01*
X173830000Y-62139659D01*
X173633870Y-62158975D01*
X173445266Y-62216188D01*
X173271467Y-62309086D01*
X173271460Y-62309090D01*
X173119116Y-62434116D01*
X172994090Y-62586460D01*
X172994086Y-62586467D01*
X172901188Y-62760266D01*
X172843975Y-62948870D01*
X172824659Y-63145000D01*
X167967533Y-63145000D01*
X167888282Y-63041718D01*
X167762841Y-62945464D01*
X167700158Y-62919500D01*
X167616762Y-62884956D01*
X167616760Y-62884955D01*
X167460001Y-62864318D01*
X167459999Y-62864318D01*
X167303239Y-62884955D01*
X167303237Y-62884956D01*
X167242630Y-62910061D01*
X167195177Y-62919500D01*
X165817323Y-62919500D01*
X165769870Y-62910061D01*
X165709262Y-62884956D01*
X165709260Y-62884955D01*
X165552501Y-62864318D01*
X165552499Y-62864318D01*
X165395739Y-62884955D01*
X165395737Y-62884956D01*
X165249660Y-62945463D01*
X165124218Y-63041718D01*
X165027963Y-63167160D01*
X164967456Y-63313237D01*
X164967455Y-63313239D01*
X164946818Y-63469998D01*
X145256189Y-63469998D01*
X145223954Y-63452768D01*
X145025934Y-63392700D01*
X145025932Y-63392699D01*
X145025934Y-63392699D01*
X144820000Y-63372417D01*
X144614067Y-63392699D01*
X144416043Y-63452769D01*
X144305898Y-63511643D01*
X144233550Y-63550315D01*
X144233548Y-63550316D01*
X144233547Y-63550317D01*
X144073589Y-63681589D01*
X143942317Y-63841547D01*
X143942315Y-63841550D01*
X143914391Y-63893792D01*
X143844769Y-64024043D01*
X143784699Y-64222067D01*
X143764417Y-64428000D01*
X139810852Y-64428000D01*
X139906067Y-64376472D01*
X139907364Y-64375463D01*
X139985104Y-64314955D01*
X140095764Y-64228825D01*
X140258571Y-64051969D01*
X140390049Y-63850728D01*
X140486610Y-63630591D01*
X140545620Y-63397563D01*
X140554442Y-63291090D01*
X140565471Y-63158005D01*
X140565471Y-63157994D01*
X140548142Y-62948870D01*
X140545620Y-62918437D01*
X140486610Y-62685409D01*
X140390049Y-62465272D01*
X140369694Y-62434117D01*
X140324310Y-62364651D01*
X140258571Y-62264031D01*
X140095764Y-62087175D01*
X140095759Y-62087171D01*
X140095757Y-62087169D01*
X139906075Y-61939533D01*
X139906069Y-61939529D01*
X139694657Y-61825118D01*
X139694652Y-61825116D01*
X139467300Y-61747066D01*
X139289468Y-61717391D01*
X139230192Y-61707500D01*
X138989808Y-61707500D01*
X138942387Y-61715413D01*
X138752699Y-61747066D01*
X138525347Y-61825116D01*
X138525342Y-61825118D01*
X138313930Y-61939529D01*
X138313924Y-61939533D01*
X138124242Y-62087169D01*
X138124239Y-62087172D01*
X137961430Y-62264029D01*
X137961427Y-62264033D01*
X137829951Y-62465270D01*
X137733389Y-62685410D01*
X137674379Y-62918440D01*
X137654529Y-63157994D01*
X136283302Y-63157994D01*
X136046677Y-63094591D01*
X136005939Y-63089227D01*
X135802934Y-63062500D01*
X135802927Y-63062500D01*
X135557073Y-63062500D01*
X135557065Y-63062500D01*
X135325059Y-63093045D01*
X135313323Y-63094591D01*
X135125193Y-63145000D01*
X135075847Y-63158222D01*
X135075837Y-63158225D01*
X134848714Y-63252303D01*
X134848705Y-63252307D01*
X134694862Y-63341129D01*
X134640670Y-63372417D01*
X134635787Y-63375236D01*
X134440745Y-63524897D01*
X134440738Y-63524903D01*
X134266903Y-63698738D01*
X134266897Y-63698745D01*
X134117236Y-63893787D01*
X133994307Y-64106705D01*
X133994303Y-64106714D01*
X133900225Y-64333837D01*
X133900222Y-64333847D01*
X133837232Y-64568933D01*
X133836592Y-64571320D01*
X133836590Y-64571331D01*
X133804500Y-64815065D01*
X129566694Y-64815065D01*
X129548324Y-60645000D01*
X172824659Y-60645000D01*
X172843975Y-60841129D01*
X172901188Y-61029733D01*
X172994086Y-61203532D01*
X172994090Y-61203539D01*
X173119116Y-61355883D01*
X173271460Y-61480909D01*
X173271467Y-61480913D01*
X173445266Y-61573811D01*
X173445269Y-61573811D01*
X173445273Y-61573814D01*
X173633868Y-61631024D01*
X173830000Y-61650341D01*
X174026132Y-61631024D01*
X174214727Y-61573814D01*
X174388538Y-61480910D01*
X174540883Y-61355883D01*
X174665910Y-61203538D01*
X174758814Y-61029727D01*
X174816024Y-60841132D01*
X174835341Y-60645000D01*
X176124659Y-60645000D01*
X176143975Y-60841129D01*
X176201188Y-61029733D01*
X176294086Y-61203532D01*
X176294090Y-61203539D01*
X176419116Y-61355883D01*
X176571460Y-61480909D01*
X176571467Y-61480913D01*
X176745266Y-61573811D01*
X176745269Y-61573811D01*
X176745273Y-61573814D01*
X176933868Y-61631024D01*
X177130000Y-61650341D01*
X177326132Y-61631024D01*
X177514727Y-61573814D01*
X177688538Y-61480910D01*
X177840883Y-61355883D01*
X177965910Y-61203538D01*
X178058814Y-61029727D01*
X178116024Y-60841132D01*
X178135341Y-60645000D01*
X178116024Y-60448868D01*
X178058814Y-60260273D01*
X178058811Y-60260269D01*
X178058811Y-60260266D01*
X177965913Y-60086467D01*
X177965909Y-60086460D01*
X177840883Y-59934116D01*
X177688539Y-59809090D01*
X177688532Y-59809086D01*
X177514733Y-59716188D01*
X177514727Y-59716186D01*
X177326132Y-59658976D01*
X177326129Y-59658975D01*
X177130000Y-59639659D01*
X176933870Y-59658975D01*
X176745266Y-59716188D01*
X176571467Y-59809086D01*
X176571460Y-59809090D01*
X176419116Y-59934116D01*
X176294090Y-60086460D01*
X176294086Y-60086467D01*
X176201188Y-60260266D01*
X176143975Y-60448870D01*
X176124659Y-60645000D01*
X174835341Y-60645000D01*
X174816024Y-60448868D01*
X174758814Y-60260273D01*
X174758811Y-60260269D01*
X174758811Y-60260266D01*
X174665913Y-60086467D01*
X174665909Y-60086460D01*
X174540883Y-59934116D01*
X174388539Y-59809090D01*
X174388532Y-59809086D01*
X174214733Y-59716188D01*
X174214727Y-59716186D01*
X174026132Y-59658976D01*
X174026129Y-59658975D01*
X173830000Y-59639659D01*
X173633870Y-59658975D01*
X173445266Y-59716188D01*
X173271467Y-59809086D01*
X173271460Y-59809090D01*
X173119116Y-59934116D01*
X172994090Y-60086460D01*
X172994086Y-60086467D01*
X172901188Y-60260266D01*
X172843975Y-60448870D01*
X172824659Y-60645000D01*
X129548324Y-60645000D01*
X129530482Y-56594999D01*
X163594785Y-56594999D01*
X163594785Y-56595000D01*
X163613602Y-56798082D01*
X163669417Y-56994247D01*
X163669422Y-56994260D01*
X163760327Y-57176821D01*
X163883237Y-57339581D01*
X164033958Y-57476980D01*
X164033960Y-57476982D01*
X164133141Y-57538392D01*
X164207363Y-57584348D01*
X164397544Y-57658024D01*
X164598024Y-57695500D01*
X164598026Y-57695500D01*
X164801974Y-57695500D01*
X164801976Y-57695500D01*
X165002456Y-57658024D01*
X165192637Y-57584348D01*
X165366041Y-57476981D01*
X165516764Y-57339579D01*
X165639673Y-57176821D01*
X165730582Y-56994250D01*
X165786397Y-56798083D01*
X165805215Y-56595000D01*
X165786397Y-56391917D01*
X165730582Y-56195750D01*
X165639673Y-56013179D01*
X165516764Y-55850421D01*
X165516762Y-55850418D01*
X165366041Y-55713019D01*
X165366039Y-55713017D01*
X165192642Y-55605655D01*
X165192635Y-55605651D01*
X165097546Y-55568814D01*
X165002456Y-55531976D01*
X164801976Y-55494500D01*
X164598024Y-55494500D01*
X164397544Y-55531976D01*
X164397541Y-55531976D01*
X164397541Y-55531977D01*
X164207364Y-55605651D01*
X164207357Y-55605655D01*
X164033960Y-55713017D01*
X164033958Y-55713019D01*
X163883237Y-55850418D01*
X163760327Y-56013178D01*
X163669422Y-56195739D01*
X163669417Y-56195752D01*
X163613602Y-56391917D01*
X163594785Y-56594999D01*
X129530482Y-56594999D01*
X129519293Y-54054999D01*
X163594785Y-54054999D01*
X163594785Y-54055000D01*
X163613602Y-54258082D01*
X163669417Y-54454247D01*
X163669422Y-54454260D01*
X163760327Y-54636821D01*
X163883237Y-54799581D01*
X164033958Y-54936980D01*
X164033960Y-54936982D01*
X164133141Y-54998392D01*
X164207363Y-55044348D01*
X164397544Y-55118024D01*
X164598024Y-55155500D01*
X164598026Y-55155500D01*
X164801974Y-55155500D01*
X164801976Y-55155500D01*
X165002456Y-55118024D01*
X165192637Y-55044348D01*
X165366041Y-54936981D01*
X165516764Y-54799579D01*
X165639673Y-54636821D01*
X165730582Y-54454250D01*
X165786397Y-54258083D01*
X165805215Y-54055000D01*
X165786397Y-53851917D01*
X165773048Y-53804999D01*
X171041127Y-53804999D01*
X171041128Y-53805000D01*
X172004314Y-53805000D01*
X171999920Y-53809394D01*
X171947259Y-53900606D01*
X171920000Y-54002339D01*
X171920000Y-54107661D01*
X171947259Y-54209394D01*
X171999920Y-54300606D01*
X172004314Y-54305000D01*
X171041128Y-54305000D01*
X171093730Y-54501317D01*
X171093734Y-54501326D01*
X171189865Y-54707482D01*
X171320342Y-54893820D01*
X171481179Y-55054657D01*
X171667518Y-55185134D01*
X171667520Y-55185135D01*
X171824032Y-55258118D01*
X171876472Y-55304290D01*
X171895624Y-55371484D01*
X171875408Y-55438365D01*
X171822243Y-55483699D01*
X171771628Y-55494500D01*
X171475143Y-55494500D01*
X171475117Y-55494502D01*
X171450012Y-55497413D01*
X171450008Y-55497415D01*
X171347235Y-55542793D01*
X171267794Y-55622234D01*
X171222415Y-55725006D01*
X171222415Y-55725008D01*
X171219500Y-55750131D01*
X171219500Y-57439856D01*
X171219502Y-57439882D01*
X171222413Y-57464987D01*
X171222415Y-57464991D01*
X171267793Y-57567764D01*
X171267794Y-57567765D01*
X171347235Y-57647206D01*
X171450009Y-57692585D01*
X171475135Y-57695500D01*
X173164864Y-57695499D01*
X173164879Y-57695497D01*
X173164882Y-57695497D01*
X173189987Y-57692586D01*
X173189988Y-57692585D01*
X173189991Y-57692585D01*
X173292765Y-57647206D01*
X173372206Y-57567765D01*
X173417585Y-57464991D01*
X173420500Y-57439865D01*
X173420499Y-55750136D01*
X173420497Y-55750117D01*
X173417586Y-55725012D01*
X173417585Y-55725010D01*
X173417585Y-55725009D01*
X173372206Y-55622235D01*
X173292765Y-55542794D01*
X173268267Y-55531977D01*
X173189992Y-55497415D01*
X173164868Y-55494500D01*
X172868372Y-55494500D01*
X172801333Y-55474815D01*
X172755578Y-55422011D01*
X172745634Y-55352853D01*
X172774659Y-55289297D01*
X172815968Y-55258118D01*
X172972479Y-55185135D01*
X172972481Y-55185134D01*
X173158820Y-55054657D01*
X173319657Y-54893820D01*
X173450134Y-54707482D01*
X173546265Y-54501326D01*
X173546269Y-54501317D01*
X173598872Y-54305000D01*
X172635686Y-54305000D01*
X172640080Y-54300606D01*
X172692741Y-54209394D01*
X172720000Y-54107661D01*
X172720000Y-54002339D01*
X172692741Y-53900606D01*
X172640080Y-53809394D01*
X172635686Y-53805000D01*
X173598872Y-53805000D01*
X173598872Y-53804999D01*
X173546269Y-53608682D01*
X173546265Y-53608673D01*
X173450134Y-53402517D01*
X173319657Y-53216179D01*
X173158820Y-53055342D01*
X172972482Y-52924865D01*
X172766326Y-52828734D01*
X172766317Y-52828730D01*
X172665430Y-52801698D01*
X172605769Y-52765333D01*
X172575240Y-52702486D01*
X172583535Y-52633110D01*
X172628020Y-52579233D01*
X172652727Y-52566296D01*
X172812637Y-52504348D01*
X172986041Y-52396981D01*
X173136764Y-52259579D01*
X173259673Y-52096821D01*
X173350582Y-51914250D01*
X173406397Y-51718083D01*
X173425215Y-51515000D01*
X173406397Y-51311917D01*
X173350582Y-51115750D01*
X173259673Y-50933179D01*
X173136764Y-50770421D01*
X173136762Y-50770418D01*
X172986041Y-50633019D01*
X172986039Y-50633017D01*
X172812642Y-50525655D01*
X172812635Y-50525651D01*
X172717546Y-50488814D01*
X172622456Y-50451976D01*
X172421976Y-50414500D01*
X172218024Y-50414500D01*
X172017544Y-50451976D01*
X172017541Y-50451976D01*
X172017541Y-50451977D01*
X171827364Y-50525651D01*
X171827357Y-50525655D01*
X171653960Y-50633017D01*
X171653958Y-50633019D01*
X171503237Y-50770418D01*
X171380327Y-50933178D01*
X171289422Y-51115739D01*
X171289417Y-51115752D01*
X171233602Y-51311917D01*
X171214785Y-51514999D01*
X171214785Y-51515000D01*
X171233602Y-51718082D01*
X171289417Y-51914247D01*
X171289422Y-51914260D01*
X171380327Y-52096821D01*
X171503237Y-52259581D01*
X171653958Y-52396980D01*
X171653960Y-52396982D01*
X171753141Y-52458392D01*
X171827363Y-52504348D01*
X171947418Y-52550857D01*
X171987270Y-52566296D01*
X172042672Y-52608869D01*
X172066262Y-52674636D01*
X172050551Y-52742716D01*
X172000527Y-52791495D01*
X171974570Y-52801698D01*
X171873680Y-52828731D01*
X171873673Y-52828734D01*
X171667517Y-52924865D01*
X171481179Y-53055342D01*
X171320342Y-53216179D01*
X171189865Y-53402517D01*
X171093734Y-53608673D01*
X171093730Y-53608682D01*
X171041127Y-53804999D01*
X165773048Y-53804999D01*
X165730582Y-53655750D01*
X165639673Y-53473179D01*
X165516764Y-53310421D01*
X165516762Y-53310418D01*
X165366041Y-53173019D01*
X165366039Y-53173017D01*
X165192642Y-53065655D01*
X165192635Y-53065651D01*
X165097546Y-53028814D01*
X165002456Y-52991976D01*
X164801976Y-52954500D01*
X164598024Y-52954500D01*
X164397544Y-52991976D01*
X164397541Y-52991976D01*
X164397541Y-52991977D01*
X164207364Y-53065651D01*
X164207357Y-53065655D01*
X164033960Y-53173017D01*
X164033958Y-53173019D01*
X163883237Y-53310418D01*
X163760327Y-53473178D01*
X163669422Y-53655739D01*
X163669417Y-53655752D01*
X163613602Y-53851917D01*
X163594785Y-54054999D01*
X129519293Y-54054999D01*
X129508103Y-51514999D01*
X163594785Y-51514999D01*
X163594785Y-51515000D01*
X163613602Y-51718082D01*
X163669417Y-51914247D01*
X163669422Y-51914260D01*
X163760327Y-52096821D01*
X163883237Y-52259581D01*
X164033958Y-52396980D01*
X164033960Y-52396982D01*
X164133141Y-52458392D01*
X164207363Y-52504348D01*
X164397544Y-52578024D01*
X164598024Y-52615500D01*
X164598026Y-52615500D01*
X164801974Y-52615500D01*
X164801976Y-52615500D01*
X165002456Y-52578024D01*
X165192637Y-52504348D01*
X165366041Y-52396981D01*
X165516764Y-52259579D01*
X165639673Y-52096821D01*
X165730582Y-51914250D01*
X165786397Y-51718083D01*
X165805215Y-51515000D01*
X165786397Y-51311917D01*
X165730582Y-51115750D01*
X165639673Y-50933179D01*
X165516764Y-50770421D01*
X165516762Y-50770418D01*
X165366041Y-50633019D01*
X165366039Y-50633017D01*
X165192642Y-50525655D01*
X165192635Y-50525651D01*
X165097546Y-50488814D01*
X165002456Y-50451976D01*
X164801976Y-50414500D01*
X164598024Y-50414500D01*
X164397544Y-50451976D01*
X164397541Y-50451976D01*
X164397541Y-50451977D01*
X164207364Y-50525651D01*
X164207357Y-50525655D01*
X164033960Y-50633017D01*
X164033958Y-50633019D01*
X163883237Y-50770418D01*
X163760327Y-50933178D01*
X163669422Y-51115739D01*
X163669417Y-51115752D01*
X163613602Y-51311917D01*
X163594785Y-51514999D01*
X129508103Y-51514999D01*
X129496914Y-48974999D01*
X163594785Y-48974999D01*
X163594785Y-48975000D01*
X163613602Y-49178082D01*
X163669417Y-49374247D01*
X163669422Y-49374260D01*
X163760327Y-49556821D01*
X163883237Y-49719581D01*
X164033958Y-49856980D01*
X164033960Y-49856982D01*
X164133141Y-49918392D01*
X164207363Y-49964348D01*
X164397544Y-50038024D01*
X164598024Y-50075500D01*
X164598026Y-50075500D01*
X164801974Y-50075500D01*
X164801976Y-50075500D01*
X165002456Y-50038024D01*
X165192637Y-49964348D01*
X165366041Y-49856981D01*
X165516764Y-49719579D01*
X165639673Y-49556821D01*
X165730582Y-49374250D01*
X165786397Y-49178083D01*
X165805215Y-48975000D01*
X165805215Y-48974999D01*
X171214785Y-48974999D01*
X171214785Y-48975000D01*
X171233602Y-49178082D01*
X171289417Y-49374247D01*
X171289422Y-49374260D01*
X171380327Y-49556821D01*
X171503237Y-49719581D01*
X171653958Y-49856980D01*
X171653960Y-49856982D01*
X171753141Y-49918392D01*
X171827363Y-49964348D01*
X172017544Y-50038024D01*
X172218024Y-50075500D01*
X172218026Y-50075500D01*
X172421974Y-50075500D01*
X172421976Y-50075500D01*
X172622456Y-50038024D01*
X172812637Y-49964348D01*
X172986041Y-49856981D01*
X173136764Y-49719579D01*
X173259673Y-49556821D01*
X173350582Y-49374250D01*
X173406397Y-49178083D01*
X173425215Y-48975000D01*
X173406397Y-48771917D01*
X173350582Y-48575750D01*
X173259673Y-48393179D01*
X173136764Y-48230421D01*
X173136762Y-48230418D01*
X172986041Y-48093019D01*
X172986039Y-48093017D01*
X172812642Y-47985655D01*
X172812635Y-47985651D01*
X172717546Y-47948814D01*
X172622456Y-47911976D01*
X172421976Y-47874500D01*
X172218024Y-47874500D01*
X172017544Y-47911976D01*
X172017541Y-47911976D01*
X172017541Y-47911977D01*
X171827364Y-47985651D01*
X171827357Y-47985655D01*
X171653960Y-48093017D01*
X171653958Y-48093019D01*
X171503237Y-48230418D01*
X171380327Y-48393178D01*
X171289422Y-48575739D01*
X171289417Y-48575752D01*
X171233602Y-48771917D01*
X171214785Y-48974999D01*
X165805215Y-48974999D01*
X165786397Y-48771917D01*
X165730582Y-48575750D01*
X165639673Y-48393179D01*
X165516764Y-48230421D01*
X165516762Y-48230418D01*
X165366041Y-48093019D01*
X165366039Y-48093017D01*
X165192642Y-47985655D01*
X165192635Y-47985651D01*
X165097546Y-47948814D01*
X165002456Y-47911976D01*
X164801976Y-47874500D01*
X164598024Y-47874500D01*
X164397544Y-47911976D01*
X164397541Y-47911976D01*
X164397541Y-47911977D01*
X164207364Y-47985651D01*
X164207357Y-47985655D01*
X164033960Y-48093017D01*
X164033958Y-48093019D01*
X163883237Y-48230418D01*
X163760327Y-48393178D01*
X163669422Y-48575739D01*
X163669417Y-48575752D01*
X163613602Y-48771917D01*
X163594785Y-48974999D01*
X129496914Y-48974999D01*
X129470518Y-42983201D01*
X129470665Y-42976620D01*
X129474545Y-42897648D01*
X131699500Y-42897648D01*
X131699500Y-43102351D01*
X131731522Y-43304534D01*
X131794781Y-43499223D01*
X131887715Y-43681613D01*
X132008028Y-43847213D01*
X132152786Y-43991971D01*
X132307749Y-44104556D01*
X132318390Y-44112287D01*
X132434607Y-44171503D01*
X132500776Y-44205218D01*
X132500778Y-44205218D01*
X132500781Y-44205220D01*
X132605137Y-44239127D01*
X132695465Y-44268477D01*
X132796557Y-44284488D01*
X132897648Y-44300500D01*
X132897649Y-44300500D01*
X133102351Y-44300500D01*
X133102352Y-44300500D01*
X133304534Y-44268477D01*
X133499219Y-44205220D01*
X133681610Y-44112287D01*
X133774590Y-44044732D01*
X133847213Y-43991971D01*
X133847215Y-43991968D01*
X133847219Y-43991966D01*
X133991966Y-43847219D01*
X133991968Y-43847215D01*
X133991971Y-43847213D01*
X134044732Y-43774590D01*
X134112287Y-43681610D01*
X134205220Y-43499219D01*
X134268477Y-43304534D01*
X134300500Y-43102352D01*
X134300500Y-42897648D01*
X202699500Y-42897648D01*
X202699500Y-43102351D01*
X202731522Y-43304534D01*
X202794781Y-43499223D01*
X202887715Y-43681613D01*
X203008028Y-43847213D01*
X203152786Y-43991971D01*
X203307749Y-44104556D01*
X203318390Y-44112287D01*
X203434607Y-44171503D01*
X203500776Y-44205218D01*
X203500778Y-44205218D01*
X203500781Y-44205220D01*
X203605137Y-44239127D01*
X203695465Y-44268477D01*
X203796557Y-44284488D01*
X203897648Y-44300500D01*
X203897649Y-44300500D01*
X204102351Y-44300500D01*
X204102352Y-44300500D01*
X204304534Y-44268477D01*
X204499219Y-44205220D01*
X204681610Y-44112287D01*
X204774590Y-44044732D01*
X204847213Y-43991971D01*
X204847215Y-43991968D01*
X204847219Y-43991966D01*
X204991966Y-43847219D01*
X204991968Y-43847215D01*
X204991971Y-43847213D01*
X205044732Y-43774590D01*
X205112287Y-43681610D01*
X205205220Y-43499219D01*
X205268477Y-43304534D01*
X205300500Y-43102352D01*
X205300500Y-42897648D01*
X205268477Y-42695466D01*
X205205220Y-42500781D01*
X205205218Y-42500778D01*
X205205218Y-42500776D01*
X205148465Y-42389394D01*
X205112287Y-42318390D01*
X205066429Y-42255271D01*
X204991971Y-42152786D01*
X204847213Y-42008028D01*
X204681613Y-41887715D01*
X204681612Y-41887714D01*
X204681610Y-41887713D01*
X204624653Y-41858691D01*
X204499223Y-41794781D01*
X204304534Y-41731522D01*
X204129995Y-41703878D01*
X204102352Y-41699500D01*
X203897648Y-41699500D01*
X203873329Y-41703351D01*
X203695465Y-41731522D01*
X203500776Y-41794781D01*
X203318386Y-41887715D01*
X203152786Y-42008028D01*
X203008028Y-42152786D01*
X202887715Y-42318386D01*
X202794781Y-42500776D01*
X202731522Y-42695465D01*
X202699500Y-42897648D01*
X134300500Y-42897648D01*
X134268477Y-42695466D01*
X134205220Y-42500781D01*
X134205218Y-42500778D01*
X134205218Y-42500776D01*
X134148465Y-42389394D01*
X134112287Y-42318390D01*
X134066429Y-42255271D01*
X133991971Y-42152786D01*
X133847213Y-42008028D01*
X133681613Y-41887715D01*
X133681612Y-41887714D01*
X133681610Y-41887713D01*
X133624653Y-41858691D01*
X133499223Y-41794781D01*
X133304534Y-41731522D01*
X133129995Y-41703878D01*
X133102352Y-41699500D01*
X132897648Y-41699500D01*
X132873329Y-41703351D01*
X132695465Y-41731522D01*
X132500776Y-41794781D01*
X132318386Y-41887715D01*
X132152786Y-42008028D01*
X132008028Y-42152786D01*
X131887715Y-42318386D01*
X131794781Y-42500776D01*
X131731522Y-42695465D01*
X131699500Y-42897648D01*
X129474545Y-42897648D01*
X129487148Y-42641106D01*
X129488341Y-42629002D01*
X129507361Y-42500781D01*
X129537233Y-42299395D01*
X129539603Y-42287481D01*
X129620570Y-41964242D01*
X129624101Y-41952605D01*
X129647320Y-41887713D01*
X129736357Y-41638872D01*
X129740998Y-41627665D01*
X129883481Y-41326408D01*
X129889205Y-41315700D01*
X130060516Y-41029887D01*
X130067259Y-41019794D01*
X130265772Y-40752130D01*
X130273475Y-40742745D01*
X130497263Y-40495833D01*
X130505833Y-40487263D01*
X130752745Y-40263475D01*
X130762130Y-40255772D01*
X131029794Y-40057259D01*
X131039887Y-40050516D01*
X131325700Y-39879205D01*
X131336408Y-39873481D01*
X131637665Y-39730998D01*
X131648872Y-39726357D01*
X131962606Y-39614100D01*
X131974242Y-39610570D01*
X132297481Y-39529603D01*
X132309395Y-39527233D01*
X132639002Y-39478340D01*
X132651108Y-39477148D01*
X132986967Y-39460649D01*
X132993051Y-39460500D01*
X133055892Y-39460500D01*
X203954108Y-39460500D01*
X204016949Y-39460500D01*
X204023032Y-39460648D01*
G37*
%TD.AperFunction*%
%TD*%
M02*
