M48
; DRILL file {KiCad 8.0.2} date 2024-05-08T19:59:43+0300
; FORMAT={-:-/ absolute / metric / decimal}
; #@! TF.CreationDate,2024-05-08T19:59:43+03:00
; #@! TF.GenerationSoftware,Kicad,Pcbnew,8.0.2
; #@! TF.FileFunction,MixedPlating,1,2
FMAT,2
METRIC
; #@! TA.AperFunction,Plated,PTH,ViaDrill
T1C0.300
; #@! TA.AperFunction,Plated,PTH,ComponentDrill
T2C0.600
; #@! TA.AperFunction,Plated,PTH,ComponentDrill
T3C0.680
; #@! TA.AperFunction,Plated,PTH,ComponentDrill
T4C0.800
; #@! TA.AperFunction,Plated,PTH,ComponentDrill
T5C0.890
; #@! TA.AperFunction,Plated,PTH,ComponentDrill
T6C0.900
; #@! TA.AperFunction,Plated,PTH,ComponentDrill
T7C1.000
; #@! TA.AperFunction,Plated,PTH,ComponentDrill
T8C1.570
; #@! TA.AperFunction,NonPlated,NPTH,ComponentDrill
T9C2.100
; #@! TA.AperFunction,NonPlated,NPTH,ComponentDrill
T10C3.250
%
G90
G05
T1
X129.98Y-88.05
X130.02Y-84.0
X130.04Y-86.02
X130.05Y-93.75
X130.13Y-97.71
X130.19Y-95.56
X131.01Y-49.98
X131.02Y-47.0
X131.94Y-91.47
X131.97Y-89.75
X131.98Y-88.05
X132.02Y-84.0
X132.04Y-86.02
X132.05Y-93.75
X132.13Y-97.71
X132.19Y-95.56
X133.01Y-49.98
X133.02Y-47.0
X133.95Y-91.52
X133.98Y-88.05
X133.98Y-89.8
X134.02Y-84.0
X134.04Y-86.02
X134.05Y-93.75
X134.13Y-97.71
X134.19Y-95.56
X135.01Y-49.98
X135.02Y-47.0
X135.98Y-88.05
X136.02Y-84.0
X136.04Y-86.02
X136.05Y-93.75
X136.13Y-97.71
X136.19Y-95.56
X137.01Y-49.98
X137.02Y-47.0
X137.02Y-102.99
X137.99Y-84.1
X137.99Y-86.1
X137.99Y-88.1
X138.11Y-93.77
X138.19Y-97.73
X138.25Y-95.58
X138.96Y-47.03
X138.99Y-50.0
X139.02Y-102.99
X139.65Y-84.1
X139.72Y-86.1
X139.79Y-88.1
X140.06Y-58.03
X140.84Y-52.81
X140.96Y-47.03
X141.02Y-102.99
X141.66Y-84.15
X141.73Y-86.15
X141.8Y-88.15
X142.06Y-58.03
X142.96Y-47.03
X143.01Y-104.73
X143.02Y-102.99
X143.99Y-55.98
X144.06Y-58.03
X144.96Y-47.03
X144.99Y-50.0
X144.99Y-103.0
X145.01Y-104.73
X145.99Y-55.98
X146.06Y-58.03
X146.91Y-99.23
X146.96Y-100.43
X146.96Y-101.74
X146.99Y-103.0
X147.01Y-104.73
X147.02Y-47.0
X147.05Y-50.01
X147.39Y-84.16
X147.44Y-86.03
X147.46Y-62.08
X147.87Y-68.81
X147.87Y-70.64
X147.88Y-67.07
X147.98Y-58.1
X147.99Y-55.98
X148.57Y-91.87
X148.92Y-99.28
X148.97Y-100.48
X148.97Y-101.79
X148.99Y-103.0
X149.01Y-104.73
X149.02Y-47.0
X149.05Y-50.01
X149.46Y-62.08
X149.99Y-55.98
X150.02Y-58.22
X150.28Y-93.73
X150.57Y-91.87
X150.98Y-101.74
X150.99Y-103.0
X151.04Y-46.99
X151.05Y-50.01
X151.07Y-104.75
X151.46Y-62.08
X152.04Y-55.95
X152.12Y-57.94
X152.28Y-93.73
X152.57Y-91.87
X152.99Y-101.79
X153.02Y-103.0
X153.05Y-47.04
X153.05Y-50.01
X153.46Y-62.08
X153.75Y-78.79
X154.28Y-93.73
X154.33Y-83.94
X154.4Y-82.18
X154.45Y-95.96
X154.47Y-98.0
X154.57Y-91.87
X154.88Y-85.61
X155.02Y-103.0
X156.03Y-82.12
X156.27Y-85.64
X156.29Y-83.89
X156.34Y-93.75
X156.46Y-96.01
X156.48Y-98.0
X156.63Y-91.89
X156.665Y-66.175
X157.96Y-91.99
X157.99Y-93.86
X158.0Y-98.01
X158.04Y-100.02
X158.06Y-96.0
X158.07Y-103.96
X159.96Y-46.02
X159.96Y-91.99
X159.99Y-93.86
X160.0Y-98.01
X160.04Y-100.02
X160.06Y-96.0
X160.07Y-103.96
X160.32Y-76.65
X160.32Y-78.454
X160.376Y-67.37
X161.96Y-46.02
X161.96Y-91.99
X161.99Y-93.86
X162.0Y-98.01
X162.04Y-100.02
X162.06Y-96.0
X162.07Y-103.96
X162.42Y-69.51
X163.1Y-81.5
X163.34Y-70.48
X163.63Y-67.41
X163.84Y-69.16
X163.96Y-46.02
X163.96Y-91.99
X163.99Y-93.86
X164.0Y-80.1
X164.0Y-98.01
X164.04Y-100.02
X164.06Y-96.0
X164.07Y-103.96
X164.35Y-83.87
X165.552Y-63.47
X165.8Y-74.12
X165.84Y-72.68
X165.96Y-46.02
X165.98Y-42.02
X165.98Y-95.98
X166.02Y-92.01
X166.02Y-98.01
X166.02Y-100.02
X166.03Y-75.23
X166.05Y-93.88
X166.05Y-104.0
X167.052Y-81.14
X167.39Y-72.63
X167.4Y-74.12
X167.46Y-63.47
X167.6Y-75.21
X167.89Y-66.27
X167.93Y-93.9
X167.96Y-92.03
X167.98Y-42.02
X167.98Y-95.98
X168.02Y-98.01
X168.02Y-100.02
X168.06Y-46.04
X168.99Y-103.98
X169.01Y-72.59
X169.09Y-74.11
X169.11Y-75.31
X169.14Y-80.84
X169.281Y-79.892
X169.94Y-93.95
X169.97Y-92.08
X169.98Y-42.02
X169.98Y-95.98
X170.02Y-98.01
X170.02Y-100.02
X170.99Y-103.98
X171.01Y-46.04
X171.1Y-64.9
X171.92Y-92.03
X171.92Y-93.96
X171.98Y-42.02
X171.98Y-95.98
X172.02Y-98.01
X172.02Y-100.02
X172.23Y-66.98
X172.27Y-69.445
X172.99Y-103.98
X173.01Y-46.04
X173.93Y-92.08
X173.93Y-94.01
X174.02Y-96.03
X174.02Y-98.03
X174.02Y-100.03
X174.07Y-42.05
X174.37Y-71.8
X174.99Y-103.98
X175.01Y-46.04
X175.07Y-78.33
X175.75Y-70.21
X176.0Y-80.0
X176.05Y-98.04
X176.05Y-100.04
X176.07Y-42.05
X177.0Y-76.0
X177.01Y-46.04
X177.07Y-104.01
X178.07Y-42.05
X178.445Y-71.685
X179.01Y-53.01
X179.02Y-46.05
X179.03Y-51.0
X179.07Y-104.01
X180.07Y-42.05
X180.17Y-70.14
X181.01Y-53.01
X181.03Y-51.0
X181.07Y-104.01
X181.5Y-97.0
X181.97Y-61.01
X181.99Y-58.96
X182.0Y-46.02
X182.02Y-41.99
X182.72Y-71.69
X183.01Y-53.01
X183.03Y-51.0
X183.07Y-104.01
X183.155Y-76.875
X183.97Y-61.01
X183.99Y-58.96
X184.0Y-46.02
X184.0Y-97.0
X184.02Y-41.99
X184.9Y-76.0
X185.0Y-72.5
X185.0Y-74.5
X185.01Y-53.01
X185.02Y-104.03
X185.03Y-51.0
X185.97Y-61.01
X185.99Y-58.96
X186.0Y-46.02
X186.02Y-41.99
X187.02Y-104.03
X187.05Y-51.01
X187.05Y-53.01
X187.97Y-61.01
X187.99Y-58.96
X188.0Y-46.02
X188.02Y-41.99
X189.01Y-101.99
X189.02Y-104.03
X189.35Y-71.86
X189.41Y-91.58
X189.42Y-93.15
X189.46Y-94.75
X189.49Y-96.27
X190.02Y-59.04
X190.02Y-61.04
X190.03Y-41.99
X190.04Y-46.03
X190.3Y-69.65
X190.37Y-71.14
X191.01Y-101.99
X191.02Y-104.03
X191.42Y-91.63
X191.43Y-93.2
X191.47Y-94.8
X191.5Y-96.32
X191.89Y-81.87
X191.91Y-59.0
X191.94Y-61.0
X191.94Y-84.27
X192.0Y-99.96
X192.025Y-89.2
X192.03Y-41.99
X192.04Y-46.03
X192.05Y-86.75
X192.31Y-68.02
X192.46Y-69.92
X193.01Y-101.99
X193.02Y-104.05
X193.84Y-58.94
X193.84Y-60.98
X194.0Y-99.96
X194.03Y-41.99
X194.04Y-46.03
X194.84Y-66.06
X194.98Y-94.01
X195.0Y-92.02
X195.01Y-101.99
X195.02Y-104.05
X195.06Y-68.01
X196.0Y-99.96
X196.04Y-46.03
X196.98Y-94.01
X197.0Y-92.02
X197.02Y-104.05
X197.04Y-101.99
X197.62Y-63.99
X197.69Y-65.91
X197.79Y-67.53
X198.0Y-46.02
X198.0Y-99.96
X198.98Y-94.01
X199.0Y-92.02
X200.0Y-46.02
X200.03Y-99.94
X200.32Y-52.77
X200.98Y-94.01
X200.99Y-67.61
X201.0Y-92.02
X201.04Y-65.98
X201.93Y-60.83
X201.98Y-62.24
X202.99Y-92.01
X202.99Y-94.01
X203.94Y-60.88
X203.99Y-62.29
X204.0Y-80.3
X204.57Y-66.06
X204.66Y-67.52
X206.06Y-82.09
X206.13Y-84.08
X206.18Y-80.25
X206.18Y-88.5
X206.2Y-86.25
X206.44Y-65.89
X206.47Y-67.44
T3
X155.85Y-69.37
X155.85Y-74.25
T4
X164.7Y-48.975
X164.7Y-51.515
X164.7Y-54.055
X164.7Y-56.595
X172.32Y-48.975
X172.32Y-51.515
X172.32Y-54.055
X172.32Y-56.595
T5
X138.22Y-68.752
X138.22Y-70.784
X138.22Y-72.816
X138.22Y-74.848
X140.0Y-67.736
X140.0Y-69.768
X140.0Y-71.8
X140.0Y-73.832
X144.82Y-64.428
X144.82Y-66.718
X144.82Y-75.858
X144.82Y-78.148
T6
X173.83Y-60.645
X173.83Y-63.145
X173.83Y-65.645
X177.13Y-60.645
X177.13Y-63.145
X177.13Y-65.645
T7
X158.65Y-86.55
X161.19Y-86.55
X163.73Y-86.55
X166.27Y-86.55
X168.81Y-86.55
X171.35Y-86.55
X173.89Y-86.55
X182.38Y-65.595
X184.92Y-65.595
X187.46Y-65.595
X190.0Y-65.595
T8
X139.11Y-63.158
X139.11Y-79.418
T9
X133.0Y-43.0
X133.0Y-102.0
X204.0Y-43.0
X204.0Y-102.0
T10
X135.68Y-64.938
X135.68Y-77.638
T2
G00X201.32Y-69.18
M15
G01X200.22Y-69.18
M16
G05
G00X201.32Y-77.82
M15
G01X200.22Y-77.82
M16
G05
G00X205.34Y-69.18
M15
G01X204.54Y-69.18
M16
G05
G00X205.34Y-77.82
M15
G01X204.54Y-77.82
M16
G05
M30
