%TF.GenerationSoftware,KiCad,Pcbnew,8.0.2*%
%TF.CreationDate,2024-05-08T19:58:53+03:00*%
%TF.ProjectId,deneme,64656e65-6d65-42e6-9b69-6361645f7063,rev?*%
%TF.SameCoordinates,Original*%
%TF.FileFunction,Soldermask,Bot*%
%TF.FilePolarity,Negative*%
%FSLAX46Y46*%
G04 Gerber Fmt 4.6, Leading zero omitted, Abs format (unit mm)*
G04 Created by KiCad (PCBNEW 8.0.2) date 2024-05-08 19:58:53*
%MOMM*%
%LPD*%
G01*
G04 APERTURE LIST*
G04 Aperture macros list*
%AMRoundRect*
0 Rectangle with rounded corners*
0 $1 Rounding radius*
0 $2 $3 $4 $5 $6 $7 $8 $9 X,Y pos of 4 corners*
0 Add a 4 corners polygon primitive as box body*
4,1,4,$2,$3,$4,$5,$6,$7,$8,$9,$2,$3,0*
0 Add four circle primitives for the rounded corners*
1,1,$1+$1,$2,$3*
1,1,$1+$1,$4,$5*
1,1,$1+$1,$6,$7*
1,1,$1+$1,$8,$9*
0 Add four rect primitives between the rounded corners*
20,1,$1+$1,$2,$3,$4,$5,0*
20,1,$1+$1,$4,$5,$6,$7,0*
20,1,$1+$1,$6,$7,$8,$9,0*
20,1,$1+$1,$8,$9,$2,$3,0*%
G04 Aperture macros list end*
%ADD10R,1.700000X1.700000*%
%ADD11O,1.700000X1.700000*%
%ADD12C,3.250000*%
%ADD13R,1.500000X1.500000*%
%ADD14C,1.500000*%
%ADD15C,2.300000*%
%ADD16C,2.100000*%
%ADD17R,1.600000X1.600000*%
%ADD18O,1.600000X1.600000*%
%ADD19O,2.000000X0.900000*%
%ADD20O,1.700000X0.900000*%
%ADD21C,1.284000*%
%ADD22RoundRect,0.250000X0.450000X-0.450000X0.450000X0.450000X-0.450000X0.450000X-0.450000X-0.450000X0*%
%ADD23C,1.400000*%
G04 APERTURE END LIST*
D10*
%TO.C,J2*%
X190000000Y-65595000D03*
D11*
X187460000Y-65595000D03*
X184920000Y-65595000D03*
X182380000Y-65595000D03*
%TD*%
D12*
%TO.C,J4*%
X135680000Y-77638000D03*
X135680000Y-64938000D03*
D13*
X138220000Y-74848000D03*
D14*
X140000000Y-73832000D03*
X138220000Y-72816000D03*
X140000000Y-71800000D03*
X138220000Y-70784000D03*
X140000000Y-69768000D03*
X138220000Y-68752000D03*
X140000000Y-67736000D03*
X144820000Y-78148000D03*
X144820000Y-75858000D03*
X144820000Y-66718000D03*
X144820000Y-64428000D03*
D15*
X139110000Y-79418000D03*
X139110000Y-63158000D03*
%TD*%
D16*
%TO.C,H1*%
X204000000Y-102000000D03*
%TD*%
D10*
%TO.C,J3*%
X173890000Y-86550000D03*
D11*
X171350000Y-86550000D03*
X168810000Y-86550000D03*
X166270000Y-86550000D03*
X163730000Y-86550000D03*
X161190000Y-86550000D03*
X158650000Y-86550000D03*
%TD*%
D17*
%TO.C,U6*%
X172320000Y-56595000D03*
D18*
X172320000Y-54055000D03*
X172320000Y-51515000D03*
X172320000Y-48975000D03*
X164700000Y-48975000D03*
X164700000Y-51515000D03*
X164700000Y-54055000D03*
X164700000Y-56595000D03*
%TD*%
D19*
%TO.C,J1*%
X200770000Y-77820000D03*
D20*
X204940000Y-77820000D03*
D19*
X200770000Y-69180000D03*
D20*
X204940000Y-69180000D03*
%TD*%
D16*
%TO.C,H1*%
X133000000Y-43000000D03*
%TD*%
D21*
%TO.C,Y2*%
X155850000Y-74250000D03*
X155850000Y-69370000D03*
%TD*%
D16*
%TO.C,H1*%
X204000000Y-43000000D03*
%TD*%
%TO.C,H1*%
X133000000Y-102000000D03*
%TD*%
D22*
%TO.C,SW1*%
X173830000Y-65645000D03*
D23*
X173830000Y-63145000D03*
X173830000Y-60645000D03*
X177130000Y-60645000D03*
X177130000Y-63145000D03*
X177130000Y-65645000D03*
%TD*%
M02*
