%TF.GenerationSoftware,KiCad,Pcbnew,8.0.2*%
%TF.CreationDate,2024-05-08T19:58:44+03:00*%
%TF.ProjectId,deneme,64656e65-6d65-42e6-9b69-6361645f7063,rev?*%
%TF.SameCoordinates,Original*%
%TF.FileFunction,Legend,Top*%
%TF.FilePolarity,Positive*%
%FSLAX46Y46*%
G04 Gerber Fmt 4.6, Leading zero omitted, Abs format (unit mm)*
G04 Created by KiCad (PCBNEW 8.0.2) date 2024-05-08 19:58:44*
%MOMM*%
%LPD*%
G01*
G04 APERTURE LIST*
%ADD10C,0.080000*%
%ADD11C,0.100000*%
%ADD12C,0.200000*%
%ADD13C,0.150000*%
%ADD14C,0.120000*%
%ADD15C,0.127000*%
G04 APERTURE END LIST*
D10*
X170871678Y-88664649D02*
X170871678Y-88164649D01*
X170871678Y-88164649D02*
X171038345Y-88521792D01*
X171038345Y-88521792D02*
X171205011Y-88164649D01*
X171205011Y-88164649D02*
X171205011Y-88664649D01*
X171705012Y-88664649D02*
X171419298Y-88664649D01*
X171562155Y-88664649D02*
X171562155Y-88164649D01*
X171562155Y-88164649D02*
X171514536Y-88236078D01*
X171514536Y-88236078D02*
X171466917Y-88283697D01*
X171466917Y-88283697D02*
X171419298Y-88307506D01*
X165750250Y-88134649D02*
X166035964Y-88134649D01*
X165893107Y-88634649D02*
X165893107Y-88134649D01*
X166155011Y-88134649D02*
X166488344Y-88634649D01*
X166488344Y-88134649D02*
X166155011Y-88634649D01*
X166678820Y-88634649D02*
X166678820Y-88134649D01*
X166678820Y-88134649D02*
X166797868Y-88134649D01*
X166797868Y-88134649D02*
X166869296Y-88158459D01*
X166869296Y-88158459D02*
X166916915Y-88206078D01*
X166916915Y-88206078D02*
X166940725Y-88253697D01*
X166940725Y-88253697D02*
X166964534Y-88348935D01*
X166964534Y-88348935D02*
X166964534Y-88420363D01*
X166964534Y-88420363D02*
X166940725Y-88515601D01*
X166940725Y-88515601D02*
X166916915Y-88563220D01*
X166916915Y-88563220D02*
X166869296Y-88610840D01*
X166869296Y-88610840D02*
X166797868Y-88634649D01*
X166797868Y-88634649D02*
X166678820Y-88634649D01*
X186537869Y-63460840D02*
X186609297Y-63484649D01*
X186609297Y-63484649D02*
X186728345Y-63484649D01*
X186728345Y-63484649D02*
X186775964Y-63460840D01*
X186775964Y-63460840D02*
X186799773Y-63437030D01*
X186799773Y-63437030D02*
X186823583Y-63389411D01*
X186823583Y-63389411D02*
X186823583Y-63341792D01*
X186823583Y-63341792D02*
X186799773Y-63294173D01*
X186799773Y-63294173D02*
X186775964Y-63270363D01*
X186775964Y-63270363D02*
X186728345Y-63246554D01*
X186728345Y-63246554D02*
X186633107Y-63222744D01*
X186633107Y-63222744D02*
X186585488Y-63198935D01*
X186585488Y-63198935D02*
X186561678Y-63175125D01*
X186561678Y-63175125D02*
X186537869Y-63127506D01*
X186537869Y-63127506D02*
X186537869Y-63079887D01*
X186537869Y-63079887D02*
X186561678Y-63032268D01*
X186561678Y-63032268D02*
X186585488Y-63008459D01*
X186585488Y-63008459D02*
X186633107Y-62984649D01*
X186633107Y-62984649D02*
X186752154Y-62984649D01*
X186752154Y-62984649D02*
X186823583Y-63008459D01*
X186990249Y-62984649D02*
X187109297Y-63484649D01*
X187109297Y-63484649D02*
X187204535Y-63127506D01*
X187204535Y-63127506D02*
X187299773Y-63484649D01*
X187299773Y-63484649D02*
X187418821Y-62984649D01*
X187609297Y-63484649D02*
X187609297Y-62984649D01*
X187609297Y-62984649D02*
X187728345Y-62984649D01*
X187728345Y-62984649D02*
X187799773Y-63008459D01*
X187799773Y-63008459D02*
X187847392Y-63056078D01*
X187847392Y-63056078D02*
X187871202Y-63103697D01*
X187871202Y-63103697D02*
X187895011Y-63198935D01*
X187895011Y-63198935D02*
X187895011Y-63270363D01*
X187895011Y-63270363D02*
X187871202Y-63365601D01*
X187871202Y-63365601D02*
X187847392Y-63413220D01*
X187847392Y-63413220D02*
X187799773Y-63460840D01*
X187799773Y-63460840D02*
X187728345Y-63484649D01*
X187728345Y-63484649D02*
X187609297Y-63484649D01*
X188109297Y-63484649D02*
X188109297Y-62984649D01*
X188442630Y-62984649D02*
X188537868Y-62984649D01*
X188537868Y-62984649D02*
X188585487Y-63008459D01*
X188585487Y-63008459D02*
X188633106Y-63056078D01*
X188633106Y-63056078D02*
X188656916Y-63151316D01*
X188656916Y-63151316D02*
X188656916Y-63317982D01*
X188656916Y-63317982D02*
X188633106Y-63413220D01*
X188633106Y-63413220D02*
X188585487Y-63460840D01*
X188585487Y-63460840D02*
X188537868Y-63484649D01*
X188537868Y-63484649D02*
X188442630Y-63484649D01*
X188442630Y-63484649D02*
X188395011Y-63460840D01*
X188395011Y-63460840D02*
X188347392Y-63413220D01*
X188347392Y-63413220D02*
X188323583Y-63317982D01*
X188323583Y-63317982D02*
X188323583Y-63151316D01*
X188323583Y-63151316D02*
X188347392Y-63056078D01*
X188347392Y-63056078D02*
X188395011Y-63008459D01*
X188395011Y-63008459D02*
X188442630Y-62984649D01*
X189544059Y-62994649D02*
X189853583Y-62994649D01*
X189853583Y-62994649D02*
X189686916Y-63185125D01*
X189686916Y-63185125D02*
X189758345Y-63185125D01*
X189758345Y-63185125D02*
X189805964Y-63208935D01*
X189805964Y-63208935D02*
X189829773Y-63232744D01*
X189829773Y-63232744D02*
X189853583Y-63280363D01*
X189853583Y-63280363D02*
X189853583Y-63399411D01*
X189853583Y-63399411D02*
X189829773Y-63447030D01*
X189829773Y-63447030D02*
X189805964Y-63470840D01*
X189805964Y-63470840D02*
X189758345Y-63494649D01*
X189758345Y-63494649D02*
X189615488Y-63494649D01*
X189615488Y-63494649D02*
X189567869Y-63470840D01*
X189567869Y-63470840D02*
X189544059Y-63447030D01*
X189996440Y-62994649D02*
X190163106Y-63494649D01*
X190163106Y-63494649D02*
X190329773Y-62994649D01*
X190448820Y-62994649D02*
X190758344Y-62994649D01*
X190758344Y-62994649D02*
X190591677Y-63185125D01*
X190591677Y-63185125D02*
X190663106Y-63185125D01*
X190663106Y-63185125D02*
X190710725Y-63208935D01*
X190710725Y-63208935D02*
X190734534Y-63232744D01*
X190734534Y-63232744D02*
X190758344Y-63280363D01*
X190758344Y-63280363D02*
X190758344Y-63399411D01*
X190758344Y-63399411D02*
X190734534Y-63447030D01*
X190734534Y-63447030D02*
X190710725Y-63470840D01*
X190710725Y-63470840D02*
X190663106Y-63494649D01*
X190663106Y-63494649D02*
X190520249Y-63494649D01*
X190520249Y-63494649D02*
X190472630Y-63470840D01*
X190472630Y-63470840D02*
X190448820Y-63447030D01*
X158293583Y-88218459D02*
X158245964Y-88194649D01*
X158245964Y-88194649D02*
X158174535Y-88194649D01*
X158174535Y-88194649D02*
X158103107Y-88218459D01*
X158103107Y-88218459D02*
X158055488Y-88266078D01*
X158055488Y-88266078D02*
X158031678Y-88313697D01*
X158031678Y-88313697D02*
X158007869Y-88408935D01*
X158007869Y-88408935D02*
X158007869Y-88480363D01*
X158007869Y-88480363D02*
X158031678Y-88575601D01*
X158031678Y-88575601D02*
X158055488Y-88623220D01*
X158055488Y-88623220D02*
X158103107Y-88670840D01*
X158103107Y-88670840D02*
X158174535Y-88694649D01*
X158174535Y-88694649D02*
X158222154Y-88694649D01*
X158222154Y-88694649D02*
X158293583Y-88670840D01*
X158293583Y-88670840D02*
X158317392Y-88647030D01*
X158317392Y-88647030D02*
X158317392Y-88480363D01*
X158317392Y-88480363D02*
X158222154Y-88480363D01*
X158531678Y-88694649D02*
X158531678Y-88194649D01*
X158531678Y-88194649D02*
X158817392Y-88694649D01*
X158817392Y-88694649D02*
X158817392Y-88194649D01*
X159055488Y-88694649D02*
X159055488Y-88194649D01*
X159055488Y-88194649D02*
X159174536Y-88194649D01*
X159174536Y-88194649D02*
X159245964Y-88218459D01*
X159245964Y-88218459D02*
X159293583Y-88266078D01*
X159293583Y-88266078D02*
X159317393Y-88313697D01*
X159317393Y-88313697D02*
X159341202Y-88408935D01*
X159341202Y-88408935D02*
X159341202Y-88480363D01*
X159341202Y-88480363D02*
X159317393Y-88575601D01*
X159317393Y-88575601D02*
X159293583Y-88623220D01*
X159293583Y-88623220D02*
X159245964Y-88670840D01*
X159245964Y-88670840D02*
X159174536Y-88694649D01*
X159174536Y-88694649D02*
X159055488Y-88694649D01*
D11*
X193851027Y-95062419D02*
X194422455Y-95062419D01*
X194136741Y-96062419D02*
X194136741Y-95062419D01*
X195184360Y-95395752D02*
X195184360Y-96062419D01*
X194755789Y-95395752D02*
X194755789Y-95919561D01*
X194755789Y-95919561D02*
X194803408Y-96014800D01*
X194803408Y-96014800D02*
X194898646Y-96062419D01*
X194898646Y-96062419D02*
X195041503Y-96062419D01*
X195041503Y-96062419D02*
X195136741Y-96014800D01*
X195136741Y-96014800D02*
X195184360Y-95967180D01*
X195660551Y-95395752D02*
X195660551Y-96062419D01*
X195660551Y-95490990D02*
X195708170Y-95443371D01*
X195708170Y-95443371D02*
X195803408Y-95395752D01*
X195803408Y-95395752D02*
X195946265Y-95395752D01*
X195946265Y-95395752D02*
X196041503Y-95443371D01*
X196041503Y-95443371D02*
X196089122Y-95538609D01*
X196089122Y-95538609D02*
X196089122Y-96062419D01*
X196993884Y-96062419D02*
X196993884Y-95538609D01*
X196993884Y-95538609D02*
X196946265Y-95443371D01*
X196946265Y-95443371D02*
X196851027Y-95395752D01*
X196851027Y-95395752D02*
X196660551Y-95395752D01*
X196660551Y-95395752D02*
X196565313Y-95443371D01*
X196993884Y-96014800D02*
X196898646Y-96062419D01*
X196898646Y-96062419D02*
X196660551Y-96062419D01*
X196660551Y-96062419D02*
X196565313Y-96014800D01*
X196565313Y-96014800D02*
X196517694Y-95919561D01*
X196517694Y-95919561D02*
X196517694Y-95824323D01*
X196517694Y-95824323D02*
X196565313Y-95729085D01*
X196565313Y-95729085D02*
X196660551Y-95681466D01*
X196660551Y-95681466D02*
X196898646Y-95681466D01*
X196898646Y-95681466D02*
X196993884Y-95633847D01*
X197470075Y-96062419D02*
X197470075Y-95062419D01*
X197898646Y-96062419D02*
X197898646Y-95538609D01*
X197898646Y-95538609D02*
X197851027Y-95443371D01*
X197851027Y-95443371D02*
X197755789Y-95395752D01*
X197755789Y-95395752D02*
X197612932Y-95395752D01*
X197612932Y-95395752D02*
X197517694Y-95443371D01*
X197517694Y-95443371D02*
X197470075Y-95490990D01*
X198803408Y-96062419D02*
X198803408Y-95538609D01*
X198803408Y-95538609D02*
X198755789Y-95443371D01*
X198755789Y-95443371D02*
X198660551Y-95395752D01*
X198660551Y-95395752D02*
X198470075Y-95395752D01*
X198470075Y-95395752D02*
X198374837Y-95443371D01*
X198803408Y-96014800D02*
X198708170Y-96062419D01*
X198708170Y-96062419D02*
X198470075Y-96062419D01*
X198470075Y-96062419D02*
X198374837Y-96014800D01*
X198374837Y-96014800D02*
X198327218Y-95919561D01*
X198327218Y-95919561D02*
X198327218Y-95824323D01*
X198327218Y-95824323D02*
X198374837Y-95729085D01*
X198374837Y-95729085D02*
X198470075Y-95681466D01*
X198470075Y-95681466D02*
X198708170Y-95681466D01*
X198708170Y-95681466D02*
X198803408Y-95633847D01*
X199279599Y-95395752D02*
X199279599Y-96062419D01*
X199279599Y-95490990D02*
X199327218Y-95443371D01*
X199327218Y-95443371D02*
X199422456Y-95395752D01*
X199422456Y-95395752D02*
X199565313Y-95395752D01*
X199565313Y-95395752D02*
X199660551Y-95443371D01*
X199660551Y-95443371D02*
X199708170Y-95538609D01*
X199708170Y-95538609D02*
X199708170Y-96062419D01*
X200946266Y-96062419D02*
X200946266Y-95062419D01*
X201517694Y-96062419D02*
X201089123Y-95490990D01*
X201517694Y-95062419D02*
X200946266Y-95633847D01*
X202374837Y-96062419D02*
X202374837Y-95538609D01*
X202374837Y-95538609D02*
X202327218Y-95443371D01*
X202327218Y-95443371D02*
X202231980Y-95395752D01*
X202231980Y-95395752D02*
X202041504Y-95395752D01*
X202041504Y-95395752D02*
X201946266Y-95443371D01*
X202374837Y-96014800D02*
X202279599Y-96062419D01*
X202279599Y-96062419D02*
X202041504Y-96062419D01*
X202041504Y-96062419D02*
X201946266Y-96014800D01*
X201946266Y-96014800D02*
X201898647Y-95919561D01*
X201898647Y-95919561D02*
X201898647Y-95824323D01*
X201898647Y-95824323D02*
X201946266Y-95729085D01*
X201946266Y-95729085D02*
X202041504Y-95681466D01*
X202041504Y-95681466D02*
X202279599Y-95681466D01*
X202279599Y-95681466D02*
X202374837Y-95633847D01*
X202755790Y-95395752D02*
X202993885Y-96062419D01*
X203231980Y-95395752D02*
X202993885Y-96062419D01*
X202993885Y-96062419D02*
X202898647Y-96300514D01*
X202898647Y-96300514D02*
X202851028Y-96348133D01*
X202851028Y-96348133D02*
X202755790Y-96395752D01*
X204041504Y-96062419D02*
X204041504Y-95538609D01*
X204041504Y-95538609D02*
X203993885Y-95443371D01*
X203993885Y-95443371D02*
X203898647Y-95395752D01*
X203898647Y-95395752D02*
X203708171Y-95395752D01*
X203708171Y-95395752D02*
X203612933Y-95443371D01*
X204041504Y-96014800D02*
X203946266Y-96062419D01*
X203946266Y-96062419D02*
X203708171Y-96062419D01*
X203708171Y-96062419D02*
X203612933Y-96014800D01*
X203612933Y-96014800D02*
X203565314Y-95919561D01*
X203565314Y-95919561D02*
X203565314Y-95824323D01*
X203565314Y-95824323D02*
X203612933Y-95729085D01*
X203612933Y-95729085D02*
X203708171Y-95681466D01*
X203708171Y-95681466D02*
X203946266Y-95681466D01*
X203946266Y-95681466D02*
X204041504Y-95633847D01*
D12*
X137102530Y-43533409D02*
X138054911Y-43533409D01*
X136912054Y-44104838D02*
X137578720Y-42104838D01*
X137578720Y-42104838D02*
X138245387Y-44104838D01*
X138912054Y-44104838D02*
X138912054Y-42104838D01*
X140054911Y-44104838D02*
X139197768Y-42961980D01*
X140054911Y-42104838D02*
X138912054Y-43247695D01*
X140816816Y-44009600D02*
X141102530Y-44104838D01*
X141102530Y-44104838D02*
X141578721Y-44104838D01*
X141578721Y-44104838D02*
X141769197Y-44009600D01*
X141769197Y-44009600D02*
X141864435Y-43914361D01*
X141864435Y-43914361D02*
X141959673Y-43723885D01*
X141959673Y-43723885D02*
X141959673Y-43533409D01*
X141959673Y-43533409D02*
X141864435Y-43342933D01*
X141864435Y-43342933D02*
X141769197Y-43247695D01*
X141769197Y-43247695D02*
X141578721Y-43152457D01*
X141578721Y-43152457D02*
X141197768Y-43057219D01*
X141197768Y-43057219D02*
X141007292Y-42961980D01*
X141007292Y-42961980D02*
X140912054Y-42866742D01*
X140912054Y-42866742D02*
X140816816Y-42676266D01*
X140816816Y-42676266D02*
X140816816Y-42485790D01*
X140816816Y-42485790D02*
X140912054Y-42295314D01*
X140912054Y-42295314D02*
X141007292Y-42200076D01*
X141007292Y-42200076D02*
X141197768Y-42104838D01*
X141197768Y-42104838D02*
X141673959Y-42104838D01*
X141673959Y-42104838D02*
X141959673Y-42200076D01*
X144340626Y-44104838D02*
X144340626Y-42104838D01*
X144340626Y-42104838D02*
X145102531Y-42104838D01*
X145102531Y-42104838D02*
X145293007Y-42200076D01*
X145293007Y-42200076D02*
X145388245Y-42295314D01*
X145388245Y-42295314D02*
X145483483Y-42485790D01*
X145483483Y-42485790D02*
X145483483Y-42771504D01*
X145483483Y-42771504D02*
X145388245Y-42961980D01*
X145388245Y-42961980D02*
X145293007Y-43057219D01*
X145293007Y-43057219D02*
X145102531Y-43152457D01*
X145102531Y-43152457D02*
X144340626Y-43152457D01*
X146340626Y-44104838D02*
X146340626Y-42771504D01*
X146340626Y-43152457D02*
X146435864Y-42961980D01*
X146435864Y-42961980D02*
X146531102Y-42866742D01*
X146531102Y-42866742D02*
X146721578Y-42771504D01*
X146721578Y-42771504D02*
X146912055Y-42771504D01*
X147864435Y-44104838D02*
X147673959Y-44009600D01*
X147673959Y-44009600D02*
X147578721Y-43914361D01*
X147578721Y-43914361D02*
X147483483Y-43723885D01*
X147483483Y-43723885D02*
X147483483Y-43152457D01*
X147483483Y-43152457D02*
X147578721Y-42961980D01*
X147578721Y-42961980D02*
X147673959Y-42866742D01*
X147673959Y-42866742D02*
X147864435Y-42771504D01*
X147864435Y-42771504D02*
X148150150Y-42771504D01*
X148150150Y-42771504D02*
X148340626Y-42866742D01*
X148340626Y-42866742D02*
X148435864Y-42961980D01*
X148435864Y-42961980D02*
X148531102Y-43152457D01*
X148531102Y-43152457D02*
X148531102Y-43723885D01*
X148531102Y-43723885D02*
X148435864Y-43914361D01*
X148435864Y-43914361D02*
X148340626Y-44009600D01*
X148340626Y-44009600D02*
X148150150Y-44104838D01*
X148150150Y-44104838D02*
X147864435Y-44104838D01*
X149102531Y-42771504D02*
X149864435Y-42771504D01*
X149388245Y-42104838D02*
X149388245Y-43819123D01*
X149388245Y-43819123D02*
X149483483Y-44009600D01*
X149483483Y-44009600D02*
X149673959Y-44104838D01*
X149673959Y-44104838D02*
X149864435Y-44104838D01*
X150816816Y-44104838D02*
X150626340Y-44009600D01*
X150626340Y-44009600D02*
X150531102Y-43914361D01*
X150531102Y-43914361D02*
X150435864Y-43723885D01*
X150435864Y-43723885D02*
X150435864Y-43152457D01*
X150435864Y-43152457D02*
X150531102Y-42961980D01*
X150531102Y-42961980D02*
X150626340Y-42866742D01*
X150626340Y-42866742D02*
X150816816Y-42771504D01*
X150816816Y-42771504D02*
X151102531Y-42771504D01*
X151102531Y-42771504D02*
X151293007Y-42866742D01*
X151293007Y-42866742D02*
X151388245Y-42961980D01*
X151388245Y-42961980D02*
X151483483Y-43152457D01*
X151483483Y-43152457D02*
X151483483Y-43723885D01*
X151483483Y-43723885D02*
X151388245Y-43914361D01*
X151388245Y-43914361D02*
X151293007Y-44009600D01*
X151293007Y-44009600D02*
X151102531Y-44104838D01*
X151102531Y-44104838D02*
X150816816Y-44104838D01*
X152054912Y-42771504D02*
X152816816Y-42771504D01*
X152340626Y-42104838D02*
X152340626Y-43819123D01*
X152340626Y-43819123D02*
X152435864Y-44009600D01*
X152435864Y-44009600D02*
X152626340Y-44104838D01*
X152626340Y-44104838D02*
X152816816Y-44104838D01*
X153483483Y-44104838D02*
X153483483Y-42771504D01*
X153483483Y-42104838D02*
X153388245Y-42200076D01*
X153388245Y-42200076D02*
X153483483Y-42295314D01*
X153483483Y-42295314D02*
X153578721Y-42200076D01*
X153578721Y-42200076D02*
X153483483Y-42104838D01*
X153483483Y-42104838D02*
X153483483Y-42295314D01*
X154435864Y-42771504D02*
X154435864Y-44771504D01*
X154435864Y-42866742D02*
X154626340Y-42771504D01*
X154626340Y-42771504D02*
X155007293Y-42771504D01*
X155007293Y-42771504D02*
X155197769Y-42866742D01*
X155197769Y-42866742D02*
X155293007Y-42961980D01*
X155293007Y-42961980D02*
X155388245Y-43152457D01*
X155388245Y-43152457D02*
X155388245Y-43723885D01*
X155388245Y-43723885D02*
X155293007Y-43914361D01*
X155293007Y-43914361D02*
X155197769Y-44009600D01*
X155197769Y-44009600D02*
X155007293Y-44104838D01*
X155007293Y-44104838D02*
X154626340Y-44104838D01*
X154626340Y-44104838D02*
X154435864Y-44009600D01*
X158150150Y-42104838D02*
X158340627Y-42104838D01*
X158340627Y-42104838D02*
X158531103Y-42200076D01*
X158531103Y-42200076D02*
X158626341Y-42295314D01*
X158626341Y-42295314D02*
X158721579Y-42485790D01*
X158721579Y-42485790D02*
X158816817Y-42866742D01*
X158816817Y-42866742D02*
X158816817Y-43342933D01*
X158816817Y-43342933D02*
X158721579Y-43723885D01*
X158721579Y-43723885D02*
X158626341Y-43914361D01*
X158626341Y-43914361D02*
X158531103Y-44009600D01*
X158531103Y-44009600D02*
X158340627Y-44104838D01*
X158340627Y-44104838D02*
X158150150Y-44104838D01*
X158150150Y-44104838D02*
X157959674Y-44009600D01*
X157959674Y-44009600D02*
X157864436Y-43914361D01*
X157864436Y-43914361D02*
X157769198Y-43723885D01*
X157769198Y-43723885D02*
X157673960Y-43342933D01*
X157673960Y-43342933D02*
X157673960Y-42866742D01*
X157673960Y-42866742D02*
X157769198Y-42485790D01*
X157769198Y-42485790D02*
X157864436Y-42295314D01*
X157864436Y-42295314D02*
X157959674Y-42200076D01*
X157959674Y-42200076D02*
X158150150Y-42104838D01*
X159673960Y-43914361D02*
X159769198Y-44009600D01*
X159769198Y-44009600D02*
X159673960Y-44104838D01*
X159673960Y-44104838D02*
X159578722Y-44009600D01*
X159578722Y-44009600D02*
X159673960Y-43914361D01*
X159673960Y-43914361D02*
X159673960Y-44104838D01*
X161673960Y-44104838D02*
X160531103Y-44104838D01*
X161102531Y-44104838D02*
X161102531Y-42104838D01*
X161102531Y-42104838D02*
X160912055Y-42390552D01*
X160912055Y-42390552D02*
X160721579Y-42581028D01*
X160721579Y-42581028D02*
X160531103Y-42676266D01*
D10*
X163067869Y-88481792D02*
X163305964Y-88481792D01*
X163020250Y-88624649D02*
X163186916Y-88124649D01*
X163186916Y-88124649D02*
X163353583Y-88624649D01*
X163520249Y-88124649D02*
X163520249Y-88529411D01*
X163520249Y-88529411D02*
X163544059Y-88577030D01*
X163544059Y-88577030D02*
X163567868Y-88600840D01*
X163567868Y-88600840D02*
X163615487Y-88624649D01*
X163615487Y-88624649D02*
X163710725Y-88624649D01*
X163710725Y-88624649D02*
X163758344Y-88600840D01*
X163758344Y-88600840D02*
X163782154Y-88577030D01*
X163782154Y-88577030D02*
X163805963Y-88529411D01*
X163805963Y-88529411D02*
X163805963Y-88124649D01*
X163996440Y-88124649D02*
X164329773Y-88624649D01*
X164329773Y-88124649D02*
X163996440Y-88624649D01*
X173461678Y-88684649D02*
X173461678Y-88184649D01*
X173461678Y-88184649D02*
X173628345Y-88541792D01*
X173628345Y-88541792D02*
X173795011Y-88184649D01*
X173795011Y-88184649D02*
X173795011Y-88684649D01*
X174128345Y-88184649D02*
X174175964Y-88184649D01*
X174175964Y-88184649D02*
X174223583Y-88208459D01*
X174223583Y-88208459D02*
X174247393Y-88232268D01*
X174247393Y-88232268D02*
X174271202Y-88279887D01*
X174271202Y-88279887D02*
X174295012Y-88375125D01*
X174295012Y-88375125D02*
X174295012Y-88494173D01*
X174295012Y-88494173D02*
X174271202Y-88589411D01*
X174271202Y-88589411D02*
X174247393Y-88637030D01*
X174247393Y-88637030D02*
X174223583Y-88660840D01*
X174223583Y-88660840D02*
X174175964Y-88684649D01*
X174175964Y-88684649D02*
X174128345Y-88684649D01*
X174128345Y-88684649D02*
X174080726Y-88660840D01*
X174080726Y-88660840D02*
X174056917Y-88637030D01*
X174056917Y-88637030D02*
X174033107Y-88589411D01*
X174033107Y-88589411D02*
X174009298Y-88494173D01*
X174009298Y-88494173D02*
X174009298Y-88375125D01*
X174009298Y-88375125D02*
X174033107Y-88279887D01*
X174033107Y-88279887D02*
X174056917Y-88232268D01*
X174056917Y-88232268D02*
X174080726Y-88208459D01*
X174080726Y-88208459D02*
X174128345Y-88184649D01*
X183737869Y-63410840D02*
X183809297Y-63434649D01*
X183809297Y-63434649D02*
X183928345Y-63434649D01*
X183928345Y-63434649D02*
X183975964Y-63410840D01*
X183975964Y-63410840D02*
X183999773Y-63387030D01*
X183999773Y-63387030D02*
X184023583Y-63339411D01*
X184023583Y-63339411D02*
X184023583Y-63291792D01*
X184023583Y-63291792D02*
X183999773Y-63244173D01*
X183999773Y-63244173D02*
X183975964Y-63220363D01*
X183975964Y-63220363D02*
X183928345Y-63196554D01*
X183928345Y-63196554D02*
X183833107Y-63172744D01*
X183833107Y-63172744D02*
X183785488Y-63148935D01*
X183785488Y-63148935D02*
X183761678Y-63125125D01*
X183761678Y-63125125D02*
X183737869Y-63077506D01*
X183737869Y-63077506D02*
X183737869Y-63029887D01*
X183737869Y-63029887D02*
X183761678Y-62982268D01*
X183761678Y-62982268D02*
X183785488Y-62958459D01*
X183785488Y-62958459D02*
X183833107Y-62934649D01*
X183833107Y-62934649D02*
X183952154Y-62934649D01*
X183952154Y-62934649D02*
X184023583Y-62958459D01*
X184190249Y-62934649D02*
X184309297Y-63434649D01*
X184309297Y-63434649D02*
X184404535Y-63077506D01*
X184404535Y-63077506D02*
X184499773Y-63434649D01*
X184499773Y-63434649D02*
X184618821Y-62934649D01*
X185095011Y-63387030D02*
X185071202Y-63410840D01*
X185071202Y-63410840D02*
X184999773Y-63434649D01*
X184999773Y-63434649D02*
X184952154Y-63434649D01*
X184952154Y-63434649D02*
X184880726Y-63410840D01*
X184880726Y-63410840D02*
X184833107Y-63363220D01*
X184833107Y-63363220D02*
X184809297Y-63315601D01*
X184809297Y-63315601D02*
X184785488Y-63220363D01*
X184785488Y-63220363D02*
X184785488Y-63148935D01*
X184785488Y-63148935D02*
X184809297Y-63053697D01*
X184809297Y-63053697D02*
X184833107Y-63006078D01*
X184833107Y-63006078D02*
X184880726Y-62958459D01*
X184880726Y-62958459D02*
X184952154Y-62934649D01*
X184952154Y-62934649D02*
X184999773Y-62934649D01*
X184999773Y-62934649D02*
X185071202Y-62958459D01*
X185071202Y-62958459D02*
X185095011Y-62982268D01*
X185547392Y-63434649D02*
X185309297Y-63434649D01*
X185309297Y-63434649D02*
X185309297Y-62934649D01*
X185714059Y-63434649D02*
X185714059Y-62934649D01*
X185999773Y-63434649D02*
X185785488Y-63148935D01*
X185999773Y-62934649D02*
X185714059Y-63220363D01*
X160524059Y-88204649D02*
X160833583Y-88204649D01*
X160833583Y-88204649D02*
X160666916Y-88395125D01*
X160666916Y-88395125D02*
X160738345Y-88395125D01*
X160738345Y-88395125D02*
X160785964Y-88418935D01*
X160785964Y-88418935D02*
X160809773Y-88442744D01*
X160809773Y-88442744D02*
X160833583Y-88490363D01*
X160833583Y-88490363D02*
X160833583Y-88609411D01*
X160833583Y-88609411D02*
X160809773Y-88657030D01*
X160809773Y-88657030D02*
X160785964Y-88680840D01*
X160785964Y-88680840D02*
X160738345Y-88704649D01*
X160738345Y-88704649D02*
X160595488Y-88704649D01*
X160595488Y-88704649D02*
X160547869Y-88680840D01*
X160547869Y-88680840D02*
X160524059Y-88657030D01*
X160976440Y-88204649D02*
X161143106Y-88704649D01*
X161143106Y-88704649D02*
X161309773Y-88204649D01*
X161428820Y-88204649D02*
X161738344Y-88204649D01*
X161738344Y-88204649D02*
X161571677Y-88395125D01*
X161571677Y-88395125D02*
X161643106Y-88395125D01*
X161643106Y-88395125D02*
X161690725Y-88418935D01*
X161690725Y-88418935D02*
X161714534Y-88442744D01*
X161714534Y-88442744D02*
X161738344Y-88490363D01*
X161738344Y-88490363D02*
X161738344Y-88609411D01*
X161738344Y-88609411D02*
X161714534Y-88657030D01*
X161714534Y-88657030D02*
X161690725Y-88680840D01*
X161690725Y-88680840D02*
X161643106Y-88704649D01*
X161643106Y-88704649D02*
X161500249Y-88704649D01*
X161500249Y-88704649D02*
X161452630Y-88680840D01*
X161452630Y-88680840D02*
X161428820Y-88657030D01*
D11*
X193227217Y-97068609D02*
X193370074Y-97116228D01*
X193370074Y-97116228D02*
X193417693Y-97163847D01*
X193417693Y-97163847D02*
X193465312Y-97259085D01*
X193465312Y-97259085D02*
X193465312Y-97401942D01*
X193465312Y-97401942D02*
X193417693Y-97497180D01*
X193417693Y-97497180D02*
X193370074Y-97544800D01*
X193370074Y-97544800D02*
X193274836Y-97592419D01*
X193274836Y-97592419D02*
X192893884Y-97592419D01*
X192893884Y-97592419D02*
X192893884Y-96592419D01*
X192893884Y-96592419D02*
X193227217Y-96592419D01*
X193227217Y-96592419D02*
X193322455Y-96640038D01*
X193322455Y-96640038D02*
X193370074Y-96687657D01*
X193370074Y-96687657D02*
X193417693Y-96782895D01*
X193417693Y-96782895D02*
X193417693Y-96878133D01*
X193417693Y-96878133D02*
X193370074Y-96973371D01*
X193370074Y-96973371D02*
X193322455Y-97020990D01*
X193322455Y-97020990D02*
X193227217Y-97068609D01*
X193227217Y-97068609D02*
X192893884Y-97068609D01*
X194322455Y-96925752D02*
X194322455Y-97592419D01*
X193893884Y-96925752D02*
X193893884Y-97449561D01*
X193893884Y-97449561D02*
X193941503Y-97544800D01*
X193941503Y-97544800D02*
X194036741Y-97592419D01*
X194036741Y-97592419D02*
X194179598Y-97592419D01*
X194179598Y-97592419D02*
X194274836Y-97544800D01*
X194274836Y-97544800D02*
X194322455Y-97497180D01*
X195227217Y-96925752D02*
X195227217Y-97735276D01*
X195227217Y-97735276D02*
X195179598Y-97830514D01*
X195179598Y-97830514D02*
X195131979Y-97878133D01*
X195131979Y-97878133D02*
X195036741Y-97925752D01*
X195036741Y-97925752D02*
X194893884Y-97925752D01*
X194893884Y-97925752D02*
X194798646Y-97878133D01*
X195227217Y-97544800D02*
X195131979Y-97592419D01*
X195131979Y-97592419D02*
X194941503Y-97592419D01*
X194941503Y-97592419D02*
X194846265Y-97544800D01*
X194846265Y-97544800D02*
X194798646Y-97497180D01*
X194798646Y-97497180D02*
X194751027Y-97401942D01*
X194751027Y-97401942D02*
X194751027Y-97116228D01*
X194751027Y-97116228D02*
X194798646Y-97020990D01*
X194798646Y-97020990D02*
X194846265Y-96973371D01*
X194846265Y-96973371D02*
X194941503Y-96925752D01*
X194941503Y-96925752D02*
X195131979Y-96925752D01*
X195131979Y-96925752D02*
X195227217Y-96973371D01*
X194798646Y-96544800D02*
X194846265Y-96640038D01*
X194846265Y-96640038D02*
X194941503Y-96687657D01*
X194941503Y-96687657D02*
X195036741Y-96687657D01*
X195036741Y-96687657D02*
X195131979Y-96640038D01*
X195131979Y-96640038D02*
X195179598Y-96544800D01*
X195703408Y-97592419D02*
X195703408Y-96925752D01*
X195703408Y-97116228D02*
X195751027Y-97020990D01*
X195751027Y-97020990D02*
X195798646Y-96973371D01*
X195798646Y-96973371D02*
X195893884Y-96925752D01*
X195893884Y-96925752D02*
X195989122Y-96925752D01*
X196751027Y-97592419D02*
X196751027Y-97068609D01*
X196751027Y-97068609D02*
X196703408Y-96973371D01*
X196703408Y-96973371D02*
X196608170Y-96925752D01*
X196608170Y-96925752D02*
X196417694Y-96925752D01*
X196417694Y-96925752D02*
X196322456Y-96973371D01*
X196751027Y-97544800D02*
X196655789Y-97592419D01*
X196655789Y-97592419D02*
X196417694Y-97592419D01*
X196417694Y-97592419D02*
X196322456Y-97544800D01*
X196322456Y-97544800D02*
X196274837Y-97449561D01*
X196274837Y-97449561D02*
X196274837Y-97354323D01*
X196274837Y-97354323D02*
X196322456Y-97259085D01*
X196322456Y-97259085D02*
X196417694Y-97211466D01*
X196417694Y-97211466D02*
X196655789Y-97211466D01*
X196655789Y-97211466D02*
X196751027Y-97163847D01*
X197941504Y-97306704D02*
X198417694Y-97306704D01*
X197846266Y-97592419D02*
X198179599Y-96592419D01*
X198179599Y-96592419D02*
X198512932Y-97592419D01*
X198989123Y-97592419D02*
X198893885Y-97544800D01*
X198893885Y-97544800D02*
X198846266Y-97449561D01*
X198846266Y-97449561D02*
X198846266Y-96592419D01*
X199370076Y-96925752D02*
X199370076Y-97925752D01*
X199370076Y-96973371D02*
X199465314Y-96925752D01*
X199465314Y-96925752D02*
X199655790Y-96925752D01*
X199655790Y-96925752D02*
X199751028Y-96973371D01*
X199751028Y-96973371D02*
X199798647Y-97020990D01*
X199798647Y-97020990D02*
X199846266Y-97116228D01*
X199846266Y-97116228D02*
X199846266Y-97401942D01*
X199846266Y-97401942D02*
X199798647Y-97497180D01*
X199798647Y-97497180D02*
X199751028Y-97544800D01*
X199751028Y-97544800D02*
X199655790Y-97592419D01*
X199655790Y-97592419D02*
X199465314Y-97592419D01*
X199465314Y-97592419D02*
X199370076Y-97544800D01*
X200989124Y-97306704D02*
X201465314Y-97306704D01*
X200893886Y-97592419D02*
X201227219Y-96592419D01*
X201227219Y-96592419D02*
X201560552Y-97592419D01*
X201798648Y-96925752D02*
X202036743Y-97592419D01*
X202274838Y-96925752D02*
X202036743Y-97592419D01*
X202036743Y-97592419D02*
X201941505Y-97830514D01*
X201941505Y-97830514D02*
X201893886Y-97878133D01*
X201893886Y-97878133D02*
X201798648Y-97925752D01*
X203084362Y-97592419D02*
X203084362Y-96592419D01*
X203084362Y-97544800D02*
X202989124Y-97592419D01*
X202989124Y-97592419D02*
X202798648Y-97592419D01*
X202798648Y-97592419D02*
X202703410Y-97544800D01*
X202703410Y-97544800D02*
X202655791Y-97497180D01*
X202655791Y-97497180D02*
X202608172Y-97401942D01*
X202608172Y-97401942D02*
X202608172Y-97116228D01*
X202608172Y-97116228D02*
X202655791Y-97020990D01*
X202655791Y-97020990D02*
X202703410Y-96973371D01*
X202703410Y-96973371D02*
X202798648Y-96925752D01*
X202798648Y-96925752D02*
X202989124Y-96925752D01*
X202989124Y-96925752D02*
X203084362Y-96973371D01*
X203560553Y-97592419D02*
X203560553Y-96925752D01*
X204036743Y-96925752D02*
X204036743Y-97592419D01*
X204036743Y-97020990D02*
X204084362Y-96973371D01*
X204084362Y-96973371D02*
X204179600Y-96925752D01*
X204179600Y-96925752D02*
X204322457Y-96925752D01*
X204322457Y-96925752D02*
X204417695Y-96973371D01*
X204417695Y-96973371D02*
X204465314Y-97068609D01*
X204465314Y-97068609D02*
X204465314Y-97592419D01*
D10*
X168447392Y-88624649D02*
X168280726Y-88386554D01*
X168161678Y-88624649D02*
X168161678Y-88124649D01*
X168161678Y-88124649D02*
X168352154Y-88124649D01*
X168352154Y-88124649D02*
X168399773Y-88148459D01*
X168399773Y-88148459D02*
X168423583Y-88172268D01*
X168423583Y-88172268D02*
X168447392Y-88219887D01*
X168447392Y-88219887D02*
X168447392Y-88291316D01*
X168447392Y-88291316D02*
X168423583Y-88338935D01*
X168423583Y-88338935D02*
X168399773Y-88362744D01*
X168399773Y-88362744D02*
X168352154Y-88386554D01*
X168352154Y-88386554D02*
X168161678Y-88386554D01*
X168614059Y-88124649D02*
X168947392Y-88624649D01*
X168947392Y-88124649D02*
X168614059Y-88624649D01*
X169137868Y-88624649D02*
X169137868Y-88124649D01*
X169137868Y-88124649D02*
X169256916Y-88124649D01*
X169256916Y-88124649D02*
X169328344Y-88148459D01*
X169328344Y-88148459D02*
X169375963Y-88196078D01*
X169375963Y-88196078D02*
X169399773Y-88243697D01*
X169399773Y-88243697D02*
X169423582Y-88338935D01*
X169423582Y-88338935D02*
X169423582Y-88410363D01*
X169423582Y-88410363D02*
X169399773Y-88505601D01*
X169399773Y-88505601D02*
X169375963Y-88553220D01*
X169375963Y-88553220D02*
X169328344Y-88600840D01*
X169328344Y-88600840D02*
X169256916Y-88624649D01*
X169256916Y-88624649D02*
X169137868Y-88624649D01*
X182053583Y-62958459D02*
X182005964Y-62934649D01*
X182005964Y-62934649D02*
X181934535Y-62934649D01*
X181934535Y-62934649D02*
X181863107Y-62958459D01*
X181863107Y-62958459D02*
X181815488Y-63006078D01*
X181815488Y-63006078D02*
X181791678Y-63053697D01*
X181791678Y-63053697D02*
X181767869Y-63148935D01*
X181767869Y-63148935D02*
X181767869Y-63220363D01*
X181767869Y-63220363D02*
X181791678Y-63315601D01*
X181791678Y-63315601D02*
X181815488Y-63363220D01*
X181815488Y-63363220D02*
X181863107Y-63410840D01*
X181863107Y-63410840D02*
X181934535Y-63434649D01*
X181934535Y-63434649D02*
X181982154Y-63434649D01*
X181982154Y-63434649D02*
X182053583Y-63410840D01*
X182053583Y-63410840D02*
X182077392Y-63387030D01*
X182077392Y-63387030D02*
X182077392Y-63220363D01*
X182077392Y-63220363D02*
X181982154Y-63220363D01*
X182291678Y-63434649D02*
X182291678Y-62934649D01*
X182291678Y-62934649D02*
X182577392Y-63434649D01*
X182577392Y-63434649D02*
X182577392Y-62934649D01*
X182815488Y-63434649D02*
X182815488Y-62934649D01*
X182815488Y-62934649D02*
X182934536Y-62934649D01*
X182934536Y-62934649D02*
X183005964Y-62958459D01*
X183005964Y-62958459D02*
X183053583Y-63006078D01*
X183053583Y-63006078D02*
X183077393Y-63053697D01*
X183077393Y-63053697D02*
X183101202Y-63148935D01*
X183101202Y-63148935D02*
X183101202Y-63220363D01*
X183101202Y-63220363D02*
X183077393Y-63315601D01*
X183077393Y-63315601D02*
X183053583Y-63363220D01*
X183053583Y-63363220D02*
X183005964Y-63410840D01*
X183005964Y-63410840D02*
X182934536Y-63434649D01*
X182934536Y-63434649D02*
X182815488Y-63434649D01*
D13*
X202461905Y-87184819D02*
X202461905Y-86184819D01*
X202461905Y-86184819D02*
X202700000Y-86184819D01*
X202700000Y-86184819D02*
X202842857Y-86232438D01*
X202842857Y-86232438D02*
X202938095Y-86327676D01*
X202938095Y-86327676D02*
X202985714Y-86422914D01*
X202985714Y-86422914D02*
X203033333Y-86613390D01*
X203033333Y-86613390D02*
X203033333Y-86756247D01*
X203033333Y-86756247D02*
X202985714Y-86946723D01*
X202985714Y-86946723D02*
X202938095Y-87041961D01*
X202938095Y-87041961D02*
X202842857Y-87137200D01*
X202842857Y-87137200D02*
X202700000Y-87184819D01*
X202700000Y-87184819D02*
X202461905Y-87184819D01*
X203414286Y-86280057D02*
X203461905Y-86232438D01*
X203461905Y-86232438D02*
X203557143Y-86184819D01*
X203557143Y-86184819D02*
X203795238Y-86184819D01*
X203795238Y-86184819D02*
X203890476Y-86232438D01*
X203890476Y-86232438D02*
X203938095Y-86280057D01*
X203938095Y-86280057D02*
X203985714Y-86375295D01*
X203985714Y-86375295D02*
X203985714Y-86470533D01*
X203985714Y-86470533D02*
X203938095Y-86613390D01*
X203938095Y-86613390D02*
X203366667Y-87184819D01*
X203366667Y-87184819D02*
X203985714Y-87184819D01*
X140667142Y-55919580D02*
X140619523Y-55967200D01*
X140619523Y-55967200D02*
X140476666Y-56014819D01*
X140476666Y-56014819D02*
X140381428Y-56014819D01*
X140381428Y-56014819D02*
X140238571Y-55967200D01*
X140238571Y-55967200D02*
X140143333Y-55871961D01*
X140143333Y-55871961D02*
X140095714Y-55776723D01*
X140095714Y-55776723D02*
X140048095Y-55586247D01*
X140048095Y-55586247D02*
X140048095Y-55443390D01*
X140048095Y-55443390D02*
X140095714Y-55252914D01*
X140095714Y-55252914D02*
X140143333Y-55157676D01*
X140143333Y-55157676D02*
X140238571Y-55062438D01*
X140238571Y-55062438D02*
X140381428Y-55014819D01*
X140381428Y-55014819D02*
X140476666Y-55014819D01*
X140476666Y-55014819D02*
X140619523Y-55062438D01*
X140619523Y-55062438D02*
X140667142Y-55110057D01*
X141048095Y-55110057D02*
X141095714Y-55062438D01*
X141095714Y-55062438D02*
X141190952Y-55014819D01*
X141190952Y-55014819D02*
X141429047Y-55014819D01*
X141429047Y-55014819D02*
X141524285Y-55062438D01*
X141524285Y-55062438D02*
X141571904Y-55110057D01*
X141571904Y-55110057D02*
X141619523Y-55205295D01*
X141619523Y-55205295D02*
X141619523Y-55300533D01*
X141619523Y-55300533D02*
X141571904Y-55443390D01*
X141571904Y-55443390D02*
X141000476Y-56014819D01*
X141000476Y-56014819D02*
X141619523Y-56014819D01*
X142238571Y-55014819D02*
X142333809Y-55014819D01*
X142333809Y-55014819D02*
X142429047Y-55062438D01*
X142429047Y-55062438D02*
X142476666Y-55110057D01*
X142476666Y-55110057D02*
X142524285Y-55205295D01*
X142524285Y-55205295D02*
X142571904Y-55395771D01*
X142571904Y-55395771D02*
X142571904Y-55633866D01*
X142571904Y-55633866D02*
X142524285Y-55824342D01*
X142524285Y-55824342D02*
X142476666Y-55919580D01*
X142476666Y-55919580D02*
X142429047Y-55967200D01*
X142429047Y-55967200D02*
X142333809Y-56014819D01*
X142333809Y-56014819D02*
X142238571Y-56014819D01*
X142238571Y-56014819D02*
X142143333Y-55967200D01*
X142143333Y-55967200D02*
X142095714Y-55919580D01*
X142095714Y-55919580D02*
X142048095Y-55824342D01*
X142048095Y-55824342D02*
X142000476Y-55633866D01*
X142000476Y-55633866D02*
X142000476Y-55395771D01*
X142000476Y-55395771D02*
X142048095Y-55205295D01*
X142048095Y-55205295D02*
X142095714Y-55110057D01*
X142095714Y-55110057D02*
X142143333Y-55062438D01*
X142143333Y-55062438D02*
X142238571Y-55014819D01*
X179366666Y-65224819D02*
X179366666Y-65939104D01*
X179366666Y-65939104D02*
X179319047Y-66081961D01*
X179319047Y-66081961D02*
X179223809Y-66177200D01*
X179223809Y-66177200D02*
X179080952Y-66224819D01*
X179080952Y-66224819D02*
X178985714Y-66224819D01*
X179795238Y-65320057D02*
X179842857Y-65272438D01*
X179842857Y-65272438D02*
X179938095Y-65224819D01*
X179938095Y-65224819D02*
X180176190Y-65224819D01*
X180176190Y-65224819D02*
X180271428Y-65272438D01*
X180271428Y-65272438D02*
X180319047Y-65320057D01*
X180319047Y-65320057D02*
X180366666Y-65415295D01*
X180366666Y-65415295D02*
X180366666Y-65510533D01*
X180366666Y-65510533D02*
X180319047Y-65653390D01*
X180319047Y-65653390D02*
X179747619Y-66224819D01*
X179747619Y-66224819D02*
X180366666Y-66224819D01*
X138574819Y-59552857D02*
X138098628Y-59886190D01*
X138574819Y-60124285D02*
X137574819Y-60124285D01*
X137574819Y-60124285D02*
X137574819Y-59743333D01*
X137574819Y-59743333D02*
X137622438Y-59648095D01*
X137622438Y-59648095D02*
X137670057Y-59600476D01*
X137670057Y-59600476D02*
X137765295Y-59552857D01*
X137765295Y-59552857D02*
X137908152Y-59552857D01*
X137908152Y-59552857D02*
X138003390Y-59600476D01*
X138003390Y-59600476D02*
X138051009Y-59648095D01*
X138051009Y-59648095D02*
X138098628Y-59743333D01*
X138098628Y-59743333D02*
X138098628Y-60124285D01*
X138574819Y-58600476D02*
X138574819Y-59171904D01*
X138574819Y-58886190D02*
X137574819Y-58886190D01*
X137574819Y-58886190D02*
X137717676Y-58981428D01*
X137717676Y-58981428D02*
X137812914Y-59076666D01*
X137812914Y-59076666D02*
X137860533Y-59171904D01*
X137574819Y-58267142D02*
X137574819Y-57600476D01*
X137574819Y-57600476D02*
X138574819Y-58029047D01*
X188938333Y-99984819D02*
X188605000Y-99508628D01*
X188366905Y-99984819D02*
X188366905Y-98984819D01*
X188366905Y-98984819D02*
X188747857Y-98984819D01*
X188747857Y-98984819D02*
X188843095Y-99032438D01*
X188843095Y-99032438D02*
X188890714Y-99080057D01*
X188890714Y-99080057D02*
X188938333Y-99175295D01*
X188938333Y-99175295D02*
X188938333Y-99318152D01*
X188938333Y-99318152D02*
X188890714Y-99413390D01*
X188890714Y-99413390D02*
X188843095Y-99461009D01*
X188843095Y-99461009D02*
X188747857Y-99508628D01*
X188747857Y-99508628D02*
X188366905Y-99508628D01*
X189509762Y-99413390D02*
X189414524Y-99365771D01*
X189414524Y-99365771D02*
X189366905Y-99318152D01*
X189366905Y-99318152D02*
X189319286Y-99222914D01*
X189319286Y-99222914D02*
X189319286Y-99175295D01*
X189319286Y-99175295D02*
X189366905Y-99080057D01*
X189366905Y-99080057D02*
X189414524Y-99032438D01*
X189414524Y-99032438D02*
X189509762Y-98984819D01*
X189509762Y-98984819D02*
X189700238Y-98984819D01*
X189700238Y-98984819D02*
X189795476Y-99032438D01*
X189795476Y-99032438D02*
X189843095Y-99080057D01*
X189843095Y-99080057D02*
X189890714Y-99175295D01*
X189890714Y-99175295D02*
X189890714Y-99222914D01*
X189890714Y-99222914D02*
X189843095Y-99318152D01*
X189843095Y-99318152D02*
X189795476Y-99365771D01*
X189795476Y-99365771D02*
X189700238Y-99413390D01*
X189700238Y-99413390D02*
X189509762Y-99413390D01*
X189509762Y-99413390D02*
X189414524Y-99461009D01*
X189414524Y-99461009D02*
X189366905Y-99508628D01*
X189366905Y-99508628D02*
X189319286Y-99603866D01*
X189319286Y-99603866D02*
X189319286Y-99794342D01*
X189319286Y-99794342D02*
X189366905Y-99889580D01*
X189366905Y-99889580D02*
X189414524Y-99937200D01*
X189414524Y-99937200D02*
X189509762Y-99984819D01*
X189509762Y-99984819D02*
X189700238Y-99984819D01*
X189700238Y-99984819D02*
X189795476Y-99937200D01*
X189795476Y-99937200D02*
X189843095Y-99889580D01*
X189843095Y-99889580D02*
X189890714Y-99794342D01*
X189890714Y-99794342D02*
X189890714Y-99603866D01*
X189890714Y-99603866D02*
X189843095Y-99508628D01*
X189843095Y-99508628D02*
X189795476Y-99461009D01*
X189795476Y-99461009D02*
X189700238Y-99413390D01*
X130444819Y-71803333D02*
X131159104Y-71803333D01*
X131159104Y-71803333D02*
X131301961Y-71850952D01*
X131301961Y-71850952D02*
X131397200Y-71946190D01*
X131397200Y-71946190D02*
X131444819Y-72089047D01*
X131444819Y-72089047D02*
X131444819Y-72184285D01*
X130778152Y-70898571D02*
X131444819Y-70898571D01*
X130397200Y-71136666D02*
X131111485Y-71374761D01*
X131111485Y-71374761D02*
X131111485Y-70755714D01*
X179023333Y-70529580D02*
X178975714Y-70577200D01*
X178975714Y-70577200D02*
X178832857Y-70624819D01*
X178832857Y-70624819D02*
X178737619Y-70624819D01*
X178737619Y-70624819D02*
X178594762Y-70577200D01*
X178594762Y-70577200D02*
X178499524Y-70481961D01*
X178499524Y-70481961D02*
X178451905Y-70386723D01*
X178451905Y-70386723D02*
X178404286Y-70196247D01*
X178404286Y-70196247D02*
X178404286Y-70053390D01*
X178404286Y-70053390D02*
X178451905Y-69862914D01*
X178451905Y-69862914D02*
X178499524Y-69767676D01*
X178499524Y-69767676D02*
X178594762Y-69672438D01*
X178594762Y-69672438D02*
X178737619Y-69624819D01*
X178737619Y-69624819D02*
X178832857Y-69624819D01*
X178832857Y-69624819D02*
X178975714Y-69672438D01*
X178975714Y-69672438D02*
X179023333Y-69720057D01*
X179404286Y-69720057D02*
X179451905Y-69672438D01*
X179451905Y-69672438D02*
X179547143Y-69624819D01*
X179547143Y-69624819D02*
X179785238Y-69624819D01*
X179785238Y-69624819D02*
X179880476Y-69672438D01*
X179880476Y-69672438D02*
X179928095Y-69720057D01*
X179928095Y-69720057D02*
X179975714Y-69815295D01*
X179975714Y-69815295D02*
X179975714Y-69910533D01*
X179975714Y-69910533D02*
X179928095Y-70053390D01*
X179928095Y-70053390D02*
X179356667Y-70624819D01*
X179356667Y-70624819D02*
X179975714Y-70624819D01*
X152624819Y-77332857D02*
X152148628Y-77666190D01*
X152624819Y-77904285D02*
X151624819Y-77904285D01*
X151624819Y-77904285D02*
X151624819Y-77523333D01*
X151624819Y-77523333D02*
X151672438Y-77428095D01*
X151672438Y-77428095D02*
X151720057Y-77380476D01*
X151720057Y-77380476D02*
X151815295Y-77332857D01*
X151815295Y-77332857D02*
X151958152Y-77332857D01*
X151958152Y-77332857D02*
X152053390Y-77380476D01*
X152053390Y-77380476D02*
X152101009Y-77428095D01*
X152101009Y-77428095D02*
X152148628Y-77523333D01*
X152148628Y-77523333D02*
X152148628Y-77904285D01*
X152624819Y-76380476D02*
X152624819Y-76951904D01*
X152624819Y-76666190D02*
X151624819Y-76666190D01*
X151624819Y-76666190D02*
X151767676Y-76761428D01*
X151767676Y-76761428D02*
X151862914Y-76856666D01*
X151862914Y-76856666D02*
X151910533Y-76951904D01*
X151624819Y-75523333D02*
X151624819Y-75713809D01*
X151624819Y-75713809D02*
X151672438Y-75809047D01*
X151672438Y-75809047D02*
X151720057Y-75856666D01*
X151720057Y-75856666D02*
X151862914Y-75951904D01*
X151862914Y-75951904D02*
X152053390Y-75999523D01*
X152053390Y-75999523D02*
X152434342Y-75999523D01*
X152434342Y-75999523D02*
X152529580Y-75951904D01*
X152529580Y-75951904D02*
X152577200Y-75904285D01*
X152577200Y-75904285D02*
X152624819Y-75809047D01*
X152624819Y-75809047D02*
X152624819Y-75618571D01*
X152624819Y-75618571D02*
X152577200Y-75523333D01*
X152577200Y-75523333D02*
X152529580Y-75475714D01*
X152529580Y-75475714D02*
X152434342Y-75428095D01*
X152434342Y-75428095D02*
X152196247Y-75428095D01*
X152196247Y-75428095D02*
X152101009Y-75475714D01*
X152101009Y-75475714D02*
X152053390Y-75523333D01*
X152053390Y-75523333D02*
X152005771Y-75618571D01*
X152005771Y-75618571D02*
X152005771Y-75809047D01*
X152005771Y-75809047D02*
X152053390Y-75904285D01*
X152053390Y-75904285D02*
X152101009Y-75951904D01*
X152101009Y-75951904D02*
X152196247Y-75999523D01*
X164273333Y-60469580D02*
X164225714Y-60517200D01*
X164225714Y-60517200D02*
X164082857Y-60564819D01*
X164082857Y-60564819D02*
X163987619Y-60564819D01*
X163987619Y-60564819D02*
X163844762Y-60517200D01*
X163844762Y-60517200D02*
X163749524Y-60421961D01*
X163749524Y-60421961D02*
X163701905Y-60326723D01*
X163701905Y-60326723D02*
X163654286Y-60136247D01*
X163654286Y-60136247D02*
X163654286Y-59993390D01*
X163654286Y-59993390D02*
X163701905Y-59802914D01*
X163701905Y-59802914D02*
X163749524Y-59707676D01*
X163749524Y-59707676D02*
X163844762Y-59612438D01*
X163844762Y-59612438D02*
X163987619Y-59564819D01*
X163987619Y-59564819D02*
X164082857Y-59564819D01*
X164082857Y-59564819D02*
X164225714Y-59612438D01*
X164225714Y-59612438D02*
X164273333Y-59660057D01*
X165178095Y-59564819D02*
X164701905Y-59564819D01*
X164701905Y-59564819D02*
X164654286Y-60041009D01*
X164654286Y-60041009D02*
X164701905Y-59993390D01*
X164701905Y-59993390D02*
X164797143Y-59945771D01*
X164797143Y-59945771D02*
X165035238Y-59945771D01*
X165035238Y-59945771D02*
X165130476Y-59993390D01*
X165130476Y-59993390D02*
X165178095Y-60041009D01*
X165178095Y-60041009D02*
X165225714Y-60136247D01*
X165225714Y-60136247D02*
X165225714Y-60374342D01*
X165225714Y-60374342D02*
X165178095Y-60469580D01*
X165178095Y-60469580D02*
X165130476Y-60517200D01*
X165130476Y-60517200D02*
X165035238Y-60564819D01*
X165035238Y-60564819D02*
X164797143Y-60564819D01*
X164797143Y-60564819D02*
X164701905Y-60517200D01*
X164701905Y-60517200D02*
X164654286Y-60469580D01*
X200518095Y-59199819D02*
X200518095Y-60009342D01*
X200518095Y-60009342D02*
X200565714Y-60104580D01*
X200565714Y-60104580D02*
X200613333Y-60152200D01*
X200613333Y-60152200D02*
X200708571Y-60199819D01*
X200708571Y-60199819D02*
X200899047Y-60199819D01*
X200899047Y-60199819D02*
X200994285Y-60152200D01*
X200994285Y-60152200D02*
X201041904Y-60104580D01*
X201041904Y-60104580D02*
X201089523Y-60009342D01*
X201089523Y-60009342D02*
X201089523Y-59199819D01*
X201518095Y-59295057D02*
X201565714Y-59247438D01*
X201565714Y-59247438D02*
X201660952Y-59199819D01*
X201660952Y-59199819D02*
X201899047Y-59199819D01*
X201899047Y-59199819D02*
X201994285Y-59247438D01*
X201994285Y-59247438D02*
X202041904Y-59295057D01*
X202041904Y-59295057D02*
X202089523Y-59390295D01*
X202089523Y-59390295D02*
X202089523Y-59485533D01*
X202089523Y-59485533D02*
X202041904Y-59628390D01*
X202041904Y-59628390D02*
X201470476Y-60199819D01*
X201470476Y-60199819D02*
X202089523Y-60199819D01*
X194029580Y-56292857D02*
X194077200Y-56340476D01*
X194077200Y-56340476D02*
X194124819Y-56483333D01*
X194124819Y-56483333D02*
X194124819Y-56578571D01*
X194124819Y-56578571D02*
X194077200Y-56721428D01*
X194077200Y-56721428D02*
X193981961Y-56816666D01*
X193981961Y-56816666D02*
X193886723Y-56864285D01*
X193886723Y-56864285D02*
X193696247Y-56911904D01*
X193696247Y-56911904D02*
X193553390Y-56911904D01*
X193553390Y-56911904D02*
X193362914Y-56864285D01*
X193362914Y-56864285D02*
X193267676Y-56816666D01*
X193267676Y-56816666D02*
X193172438Y-56721428D01*
X193172438Y-56721428D02*
X193124819Y-56578571D01*
X193124819Y-56578571D02*
X193124819Y-56483333D01*
X193124819Y-56483333D02*
X193172438Y-56340476D01*
X193172438Y-56340476D02*
X193220057Y-56292857D01*
X194124819Y-55340476D02*
X194124819Y-55911904D01*
X194124819Y-55626190D02*
X193124819Y-55626190D01*
X193124819Y-55626190D02*
X193267676Y-55721428D01*
X193267676Y-55721428D02*
X193362914Y-55816666D01*
X193362914Y-55816666D02*
X193410533Y-55911904D01*
X193220057Y-54959523D02*
X193172438Y-54911904D01*
X193172438Y-54911904D02*
X193124819Y-54816666D01*
X193124819Y-54816666D02*
X193124819Y-54578571D01*
X193124819Y-54578571D02*
X193172438Y-54483333D01*
X193172438Y-54483333D02*
X193220057Y-54435714D01*
X193220057Y-54435714D02*
X193315295Y-54388095D01*
X193315295Y-54388095D02*
X193410533Y-54388095D01*
X193410533Y-54388095D02*
X193553390Y-54435714D01*
X193553390Y-54435714D02*
X194124819Y-55007142D01*
X194124819Y-55007142D02*
X194124819Y-54388095D01*
X155697142Y-54769819D02*
X155363809Y-54293628D01*
X155125714Y-54769819D02*
X155125714Y-53769819D01*
X155125714Y-53769819D02*
X155506666Y-53769819D01*
X155506666Y-53769819D02*
X155601904Y-53817438D01*
X155601904Y-53817438D02*
X155649523Y-53865057D01*
X155649523Y-53865057D02*
X155697142Y-53960295D01*
X155697142Y-53960295D02*
X155697142Y-54103152D01*
X155697142Y-54103152D02*
X155649523Y-54198390D01*
X155649523Y-54198390D02*
X155601904Y-54246009D01*
X155601904Y-54246009D02*
X155506666Y-54293628D01*
X155506666Y-54293628D02*
X155125714Y-54293628D01*
X156649523Y-54769819D02*
X156078095Y-54769819D01*
X156363809Y-54769819D02*
X156363809Y-53769819D01*
X156363809Y-53769819D02*
X156268571Y-53912676D01*
X156268571Y-53912676D02*
X156173333Y-54007914D01*
X156173333Y-54007914D02*
X156078095Y-54055533D01*
X156982857Y-53769819D02*
X157601904Y-53769819D01*
X157601904Y-53769819D02*
X157268571Y-54150771D01*
X157268571Y-54150771D02*
X157411428Y-54150771D01*
X157411428Y-54150771D02*
X157506666Y-54198390D01*
X157506666Y-54198390D02*
X157554285Y-54246009D01*
X157554285Y-54246009D02*
X157601904Y-54341247D01*
X157601904Y-54341247D02*
X157601904Y-54579342D01*
X157601904Y-54579342D02*
X157554285Y-54674580D01*
X157554285Y-54674580D02*
X157506666Y-54722200D01*
X157506666Y-54722200D02*
X157411428Y-54769819D01*
X157411428Y-54769819D02*
X157125714Y-54769819D01*
X157125714Y-54769819D02*
X157030476Y-54722200D01*
X157030476Y-54722200D02*
X156982857Y-54674580D01*
X193998095Y-75634819D02*
X193998095Y-76444342D01*
X193998095Y-76444342D02*
X194045714Y-76539580D01*
X194045714Y-76539580D02*
X194093333Y-76587200D01*
X194093333Y-76587200D02*
X194188571Y-76634819D01*
X194188571Y-76634819D02*
X194379047Y-76634819D01*
X194379047Y-76634819D02*
X194474285Y-76587200D01*
X194474285Y-76587200D02*
X194521904Y-76539580D01*
X194521904Y-76539580D02*
X194569523Y-76444342D01*
X194569523Y-76444342D02*
X194569523Y-75634819D01*
X195521904Y-75634819D02*
X195045714Y-75634819D01*
X195045714Y-75634819D02*
X194998095Y-76111009D01*
X194998095Y-76111009D02*
X195045714Y-76063390D01*
X195045714Y-76063390D02*
X195140952Y-76015771D01*
X195140952Y-76015771D02*
X195379047Y-76015771D01*
X195379047Y-76015771D02*
X195474285Y-76063390D01*
X195474285Y-76063390D02*
X195521904Y-76111009D01*
X195521904Y-76111009D02*
X195569523Y-76206247D01*
X195569523Y-76206247D02*
X195569523Y-76444342D01*
X195569523Y-76444342D02*
X195521904Y-76539580D01*
X195521904Y-76539580D02*
X195474285Y-76587200D01*
X195474285Y-76587200D02*
X195379047Y-76634819D01*
X195379047Y-76634819D02*
X195140952Y-76634819D01*
X195140952Y-76634819D02*
X195045714Y-76587200D01*
X195045714Y-76587200D02*
X194998095Y-76539580D01*
X179373333Y-95534819D02*
X179040000Y-95058628D01*
X178801905Y-95534819D02*
X178801905Y-94534819D01*
X178801905Y-94534819D02*
X179182857Y-94534819D01*
X179182857Y-94534819D02*
X179278095Y-94582438D01*
X179278095Y-94582438D02*
X179325714Y-94630057D01*
X179325714Y-94630057D02*
X179373333Y-94725295D01*
X179373333Y-94725295D02*
X179373333Y-94868152D01*
X179373333Y-94868152D02*
X179325714Y-94963390D01*
X179325714Y-94963390D02*
X179278095Y-95011009D01*
X179278095Y-95011009D02*
X179182857Y-95058628D01*
X179182857Y-95058628D02*
X178801905Y-95058628D01*
X179849524Y-95534819D02*
X180040000Y-95534819D01*
X180040000Y-95534819D02*
X180135238Y-95487200D01*
X180135238Y-95487200D02*
X180182857Y-95439580D01*
X180182857Y-95439580D02*
X180278095Y-95296723D01*
X180278095Y-95296723D02*
X180325714Y-95106247D01*
X180325714Y-95106247D02*
X180325714Y-94725295D01*
X180325714Y-94725295D02*
X180278095Y-94630057D01*
X180278095Y-94630057D02*
X180230476Y-94582438D01*
X180230476Y-94582438D02*
X180135238Y-94534819D01*
X180135238Y-94534819D02*
X179944762Y-94534819D01*
X179944762Y-94534819D02*
X179849524Y-94582438D01*
X179849524Y-94582438D02*
X179801905Y-94630057D01*
X179801905Y-94630057D02*
X179754286Y-94725295D01*
X179754286Y-94725295D02*
X179754286Y-94963390D01*
X179754286Y-94963390D02*
X179801905Y-95058628D01*
X179801905Y-95058628D02*
X179849524Y-95106247D01*
X179849524Y-95106247D02*
X179944762Y-95153866D01*
X179944762Y-95153866D02*
X180135238Y-95153866D01*
X180135238Y-95153866D02*
X180230476Y-95106247D01*
X180230476Y-95106247D02*
X180278095Y-95058628D01*
X180278095Y-95058628D02*
X180325714Y-94963390D01*
X131594819Y-60032857D02*
X131118628Y-60366190D01*
X131594819Y-60604285D02*
X130594819Y-60604285D01*
X130594819Y-60604285D02*
X130594819Y-60223333D01*
X130594819Y-60223333D02*
X130642438Y-60128095D01*
X130642438Y-60128095D02*
X130690057Y-60080476D01*
X130690057Y-60080476D02*
X130785295Y-60032857D01*
X130785295Y-60032857D02*
X130928152Y-60032857D01*
X130928152Y-60032857D02*
X131023390Y-60080476D01*
X131023390Y-60080476D02*
X131071009Y-60128095D01*
X131071009Y-60128095D02*
X131118628Y-60223333D01*
X131118628Y-60223333D02*
X131118628Y-60604285D01*
X131594819Y-59080476D02*
X131594819Y-59651904D01*
X131594819Y-59366190D02*
X130594819Y-59366190D01*
X130594819Y-59366190D02*
X130737676Y-59461428D01*
X130737676Y-59461428D02*
X130832914Y-59556666D01*
X130832914Y-59556666D02*
X130880533Y-59651904D01*
X130594819Y-58175714D02*
X130594819Y-58651904D01*
X130594819Y-58651904D02*
X131071009Y-58699523D01*
X131071009Y-58699523D02*
X131023390Y-58651904D01*
X131023390Y-58651904D02*
X130975771Y-58556666D01*
X130975771Y-58556666D02*
X130975771Y-58318571D01*
X130975771Y-58318571D02*
X131023390Y-58223333D01*
X131023390Y-58223333D02*
X131071009Y-58175714D01*
X131071009Y-58175714D02*
X131166247Y-58128095D01*
X131166247Y-58128095D02*
X131404342Y-58128095D01*
X131404342Y-58128095D02*
X131499580Y-58175714D01*
X131499580Y-58175714D02*
X131547200Y-58223333D01*
X131547200Y-58223333D02*
X131594819Y-58318571D01*
X131594819Y-58318571D02*
X131594819Y-58556666D01*
X131594819Y-58556666D02*
X131547200Y-58651904D01*
X131547200Y-58651904D02*
X131499580Y-58699523D01*
X154904819Y-87003333D02*
X155619104Y-87003333D01*
X155619104Y-87003333D02*
X155761961Y-87050952D01*
X155761961Y-87050952D02*
X155857200Y-87146190D01*
X155857200Y-87146190D02*
X155904819Y-87289047D01*
X155904819Y-87289047D02*
X155904819Y-87384285D01*
X154904819Y-86622380D02*
X154904819Y-86003333D01*
X154904819Y-86003333D02*
X155285771Y-86336666D01*
X155285771Y-86336666D02*
X155285771Y-86193809D01*
X155285771Y-86193809D02*
X155333390Y-86098571D01*
X155333390Y-86098571D02*
X155381009Y-86050952D01*
X155381009Y-86050952D02*
X155476247Y-86003333D01*
X155476247Y-86003333D02*
X155714342Y-86003333D01*
X155714342Y-86003333D02*
X155809580Y-86050952D01*
X155809580Y-86050952D02*
X155857200Y-86098571D01*
X155857200Y-86098571D02*
X155904819Y-86193809D01*
X155904819Y-86193809D02*
X155904819Y-86479523D01*
X155904819Y-86479523D02*
X155857200Y-86574761D01*
X155857200Y-86574761D02*
X155809580Y-86622380D01*
X152704819Y-80372857D02*
X152228628Y-80706190D01*
X152704819Y-80944285D02*
X151704819Y-80944285D01*
X151704819Y-80944285D02*
X151704819Y-80563333D01*
X151704819Y-80563333D02*
X151752438Y-80468095D01*
X151752438Y-80468095D02*
X151800057Y-80420476D01*
X151800057Y-80420476D02*
X151895295Y-80372857D01*
X151895295Y-80372857D02*
X152038152Y-80372857D01*
X152038152Y-80372857D02*
X152133390Y-80420476D01*
X152133390Y-80420476D02*
X152181009Y-80468095D01*
X152181009Y-80468095D02*
X152228628Y-80563333D01*
X152228628Y-80563333D02*
X152228628Y-80944285D01*
X152704819Y-79420476D02*
X152704819Y-79991904D01*
X152704819Y-79706190D02*
X151704819Y-79706190D01*
X151704819Y-79706190D02*
X151847676Y-79801428D01*
X151847676Y-79801428D02*
X151942914Y-79896666D01*
X151942914Y-79896666D02*
X151990533Y-79991904D01*
X152133390Y-78849047D02*
X152085771Y-78944285D01*
X152085771Y-78944285D02*
X152038152Y-78991904D01*
X152038152Y-78991904D02*
X151942914Y-79039523D01*
X151942914Y-79039523D02*
X151895295Y-79039523D01*
X151895295Y-79039523D02*
X151800057Y-78991904D01*
X151800057Y-78991904D02*
X151752438Y-78944285D01*
X151752438Y-78944285D02*
X151704819Y-78849047D01*
X151704819Y-78849047D02*
X151704819Y-78658571D01*
X151704819Y-78658571D02*
X151752438Y-78563333D01*
X151752438Y-78563333D02*
X151800057Y-78515714D01*
X151800057Y-78515714D02*
X151895295Y-78468095D01*
X151895295Y-78468095D02*
X151942914Y-78468095D01*
X151942914Y-78468095D02*
X152038152Y-78515714D01*
X152038152Y-78515714D02*
X152085771Y-78563333D01*
X152085771Y-78563333D02*
X152133390Y-78658571D01*
X152133390Y-78658571D02*
X152133390Y-78849047D01*
X152133390Y-78849047D02*
X152181009Y-78944285D01*
X152181009Y-78944285D02*
X152228628Y-78991904D01*
X152228628Y-78991904D02*
X152323866Y-79039523D01*
X152323866Y-79039523D02*
X152514342Y-79039523D01*
X152514342Y-79039523D02*
X152609580Y-78991904D01*
X152609580Y-78991904D02*
X152657200Y-78944285D01*
X152657200Y-78944285D02*
X152704819Y-78849047D01*
X152704819Y-78849047D02*
X152704819Y-78658571D01*
X152704819Y-78658571D02*
X152657200Y-78563333D01*
X152657200Y-78563333D02*
X152609580Y-78515714D01*
X152609580Y-78515714D02*
X152514342Y-78468095D01*
X152514342Y-78468095D02*
X152323866Y-78468095D01*
X152323866Y-78468095D02*
X152228628Y-78515714D01*
X152228628Y-78515714D02*
X152181009Y-78563333D01*
X152181009Y-78563333D02*
X152133390Y-78658571D01*
X167938095Y-59274819D02*
X167938095Y-60084342D01*
X167938095Y-60084342D02*
X167985714Y-60179580D01*
X167985714Y-60179580D02*
X168033333Y-60227200D01*
X168033333Y-60227200D02*
X168128571Y-60274819D01*
X168128571Y-60274819D02*
X168319047Y-60274819D01*
X168319047Y-60274819D02*
X168414285Y-60227200D01*
X168414285Y-60227200D02*
X168461904Y-60179580D01*
X168461904Y-60179580D02*
X168509523Y-60084342D01*
X168509523Y-60084342D02*
X168509523Y-59274819D01*
X169414285Y-59274819D02*
X169223809Y-59274819D01*
X169223809Y-59274819D02*
X169128571Y-59322438D01*
X169128571Y-59322438D02*
X169080952Y-59370057D01*
X169080952Y-59370057D02*
X168985714Y-59512914D01*
X168985714Y-59512914D02*
X168938095Y-59703390D01*
X168938095Y-59703390D02*
X168938095Y-60084342D01*
X168938095Y-60084342D02*
X168985714Y-60179580D01*
X168985714Y-60179580D02*
X169033333Y-60227200D01*
X169033333Y-60227200D02*
X169128571Y-60274819D01*
X169128571Y-60274819D02*
X169319047Y-60274819D01*
X169319047Y-60274819D02*
X169414285Y-60227200D01*
X169414285Y-60227200D02*
X169461904Y-60179580D01*
X169461904Y-60179580D02*
X169509523Y-60084342D01*
X169509523Y-60084342D02*
X169509523Y-59846247D01*
X169509523Y-59846247D02*
X169461904Y-59751009D01*
X169461904Y-59751009D02*
X169414285Y-59703390D01*
X169414285Y-59703390D02*
X169319047Y-59655771D01*
X169319047Y-59655771D02*
X169128571Y-59655771D01*
X169128571Y-59655771D02*
X169033333Y-59703390D01*
X169033333Y-59703390D02*
X168985714Y-59751009D01*
X168985714Y-59751009D02*
X168938095Y-59846247D01*
X159929580Y-64776666D02*
X159977200Y-64824285D01*
X159977200Y-64824285D02*
X160024819Y-64967142D01*
X160024819Y-64967142D02*
X160024819Y-65062380D01*
X160024819Y-65062380D02*
X159977200Y-65205237D01*
X159977200Y-65205237D02*
X159881961Y-65300475D01*
X159881961Y-65300475D02*
X159786723Y-65348094D01*
X159786723Y-65348094D02*
X159596247Y-65395713D01*
X159596247Y-65395713D02*
X159453390Y-65395713D01*
X159453390Y-65395713D02*
X159262914Y-65348094D01*
X159262914Y-65348094D02*
X159167676Y-65300475D01*
X159167676Y-65300475D02*
X159072438Y-65205237D01*
X159072438Y-65205237D02*
X159024819Y-65062380D01*
X159024819Y-65062380D02*
X159024819Y-64967142D01*
X159024819Y-64967142D02*
X159072438Y-64824285D01*
X159072438Y-64824285D02*
X159120057Y-64776666D01*
X160024819Y-63824285D02*
X160024819Y-64395713D01*
X160024819Y-64109999D02*
X159024819Y-64109999D01*
X159024819Y-64109999D02*
X159167676Y-64205237D01*
X159167676Y-64205237D02*
X159262914Y-64300475D01*
X159262914Y-64300475D02*
X159310533Y-64395713D01*
X156129580Y-81176666D02*
X156177200Y-81224285D01*
X156177200Y-81224285D02*
X156224819Y-81367142D01*
X156224819Y-81367142D02*
X156224819Y-81462380D01*
X156224819Y-81462380D02*
X156177200Y-81605237D01*
X156177200Y-81605237D02*
X156081961Y-81700475D01*
X156081961Y-81700475D02*
X155986723Y-81748094D01*
X155986723Y-81748094D02*
X155796247Y-81795713D01*
X155796247Y-81795713D02*
X155653390Y-81795713D01*
X155653390Y-81795713D02*
X155462914Y-81748094D01*
X155462914Y-81748094D02*
X155367676Y-81700475D01*
X155367676Y-81700475D02*
X155272438Y-81605237D01*
X155272438Y-81605237D02*
X155224819Y-81462380D01*
X155224819Y-81462380D02*
X155224819Y-81367142D01*
X155224819Y-81367142D02*
X155272438Y-81224285D01*
X155272438Y-81224285D02*
X155320057Y-81176666D01*
X155653390Y-80605237D02*
X155605771Y-80700475D01*
X155605771Y-80700475D02*
X155558152Y-80748094D01*
X155558152Y-80748094D02*
X155462914Y-80795713D01*
X155462914Y-80795713D02*
X155415295Y-80795713D01*
X155415295Y-80795713D02*
X155320057Y-80748094D01*
X155320057Y-80748094D02*
X155272438Y-80700475D01*
X155272438Y-80700475D02*
X155224819Y-80605237D01*
X155224819Y-80605237D02*
X155224819Y-80414761D01*
X155224819Y-80414761D02*
X155272438Y-80319523D01*
X155272438Y-80319523D02*
X155320057Y-80271904D01*
X155320057Y-80271904D02*
X155415295Y-80224285D01*
X155415295Y-80224285D02*
X155462914Y-80224285D01*
X155462914Y-80224285D02*
X155558152Y-80271904D01*
X155558152Y-80271904D02*
X155605771Y-80319523D01*
X155605771Y-80319523D02*
X155653390Y-80414761D01*
X155653390Y-80414761D02*
X155653390Y-80605237D01*
X155653390Y-80605237D02*
X155701009Y-80700475D01*
X155701009Y-80700475D02*
X155748628Y-80748094D01*
X155748628Y-80748094D02*
X155843866Y-80795713D01*
X155843866Y-80795713D02*
X156034342Y-80795713D01*
X156034342Y-80795713D02*
X156129580Y-80748094D01*
X156129580Y-80748094D02*
X156177200Y-80700475D01*
X156177200Y-80700475D02*
X156224819Y-80605237D01*
X156224819Y-80605237D02*
X156224819Y-80414761D01*
X156224819Y-80414761D02*
X156177200Y-80319523D01*
X156177200Y-80319523D02*
X156129580Y-80271904D01*
X156129580Y-80271904D02*
X156034342Y-80224285D01*
X156034342Y-80224285D02*
X155843866Y-80224285D01*
X155843866Y-80224285D02*
X155748628Y-80271904D01*
X155748628Y-80271904D02*
X155701009Y-80319523D01*
X155701009Y-80319523D02*
X155653390Y-80414761D01*
X151387142Y-64069580D02*
X151339523Y-64117200D01*
X151339523Y-64117200D02*
X151196666Y-64164819D01*
X151196666Y-64164819D02*
X151101428Y-64164819D01*
X151101428Y-64164819D02*
X150958571Y-64117200D01*
X150958571Y-64117200D02*
X150863333Y-64021961D01*
X150863333Y-64021961D02*
X150815714Y-63926723D01*
X150815714Y-63926723D02*
X150768095Y-63736247D01*
X150768095Y-63736247D02*
X150768095Y-63593390D01*
X150768095Y-63593390D02*
X150815714Y-63402914D01*
X150815714Y-63402914D02*
X150863333Y-63307676D01*
X150863333Y-63307676D02*
X150958571Y-63212438D01*
X150958571Y-63212438D02*
X151101428Y-63164819D01*
X151101428Y-63164819D02*
X151196666Y-63164819D01*
X151196666Y-63164819D02*
X151339523Y-63212438D01*
X151339523Y-63212438D02*
X151387142Y-63260057D01*
X152339523Y-64164819D02*
X151768095Y-64164819D01*
X152053809Y-64164819D02*
X152053809Y-63164819D01*
X152053809Y-63164819D02*
X151958571Y-63307676D01*
X151958571Y-63307676D02*
X151863333Y-63402914D01*
X151863333Y-63402914D02*
X151768095Y-63450533D01*
X152958571Y-63164819D02*
X153053809Y-63164819D01*
X153053809Y-63164819D02*
X153149047Y-63212438D01*
X153149047Y-63212438D02*
X153196666Y-63260057D01*
X153196666Y-63260057D02*
X153244285Y-63355295D01*
X153244285Y-63355295D02*
X153291904Y-63545771D01*
X153291904Y-63545771D02*
X153291904Y-63783866D01*
X153291904Y-63783866D02*
X153244285Y-63974342D01*
X153244285Y-63974342D02*
X153196666Y-64069580D01*
X153196666Y-64069580D02*
X153149047Y-64117200D01*
X153149047Y-64117200D02*
X153053809Y-64164819D01*
X153053809Y-64164819D02*
X152958571Y-64164819D01*
X152958571Y-64164819D02*
X152863333Y-64117200D01*
X152863333Y-64117200D02*
X152815714Y-64069580D01*
X152815714Y-64069580D02*
X152768095Y-63974342D01*
X152768095Y-63974342D02*
X152720476Y-63783866D01*
X152720476Y-63783866D02*
X152720476Y-63545771D01*
X152720476Y-63545771D02*
X152768095Y-63355295D01*
X152768095Y-63355295D02*
X152815714Y-63260057D01*
X152815714Y-63260057D02*
X152863333Y-63212438D01*
X152863333Y-63212438D02*
X152958571Y-63164819D01*
X171654819Y-67496666D02*
X171178628Y-67829999D01*
X171654819Y-68068094D02*
X170654819Y-68068094D01*
X170654819Y-68068094D02*
X170654819Y-67687142D01*
X170654819Y-67687142D02*
X170702438Y-67591904D01*
X170702438Y-67591904D02*
X170750057Y-67544285D01*
X170750057Y-67544285D02*
X170845295Y-67496666D01*
X170845295Y-67496666D02*
X170988152Y-67496666D01*
X170988152Y-67496666D02*
X171083390Y-67544285D01*
X171083390Y-67544285D02*
X171131009Y-67591904D01*
X171131009Y-67591904D02*
X171178628Y-67687142D01*
X171178628Y-67687142D02*
X171178628Y-68068094D01*
X171654819Y-66544285D02*
X171654819Y-67115713D01*
X171654819Y-66829999D02*
X170654819Y-66829999D01*
X170654819Y-66829999D02*
X170797676Y-66925237D01*
X170797676Y-66925237D02*
X170892914Y-67020475D01*
X170892914Y-67020475D02*
X170940533Y-67115713D01*
X149899580Y-72402857D02*
X149947200Y-72450476D01*
X149947200Y-72450476D02*
X149994819Y-72593333D01*
X149994819Y-72593333D02*
X149994819Y-72688571D01*
X149994819Y-72688571D02*
X149947200Y-72831428D01*
X149947200Y-72831428D02*
X149851961Y-72926666D01*
X149851961Y-72926666D02*
X149756723Y-72974285D01*
X149756723Y-72974285D02*
X149566247Y-73021904D01*
X149566247Y-73021904D02*
X149423390Y-73021904D01*
X149423390Y-73021904D02*
X149232914Y-72974285D01*
X149232914Y-72974285D02*
X149137676Y-72926666D01*
X149137676Y-72926666D02*
X149042438Y-72831428D01*
X149042438Y-72831428D02*
X148994819Y-72688571D01*
X148994819Y-72688571D02*
X148994819Y-72593333D01*
X148994819Y-72593333D02*
X149042438Y-72450476D01*
X149042438Y-72450476D02*
X149090057Y-72402857D01*
X149994819Y-71450476D02*
X149994819Y-72021904D01*
X149994819Y-71736190D02*
X148994819Y-71736190D01*
X148994819Y-71736190D02*
X149137676Y-71831428D01*
X149137676Y-71831428D02*
X149232914Y-71926666D01*
X149232914Y-71926666D02*
X149280533Y-72021904D01*
X149994819Y-70498095D02*
X149994819Y-71069523D01*
X149994819Y-70783809D02*
X148994819Y-70783809D01*
X148994819Y-70783809D02*
X149137676Y-70879047D01*
X149137676Y-70879047D02*
X149232914Y-70974285D01*
X149232914Y-70974285D02*
X149280533Y-71069523D01*
X174517142Y-56889580D02*
X174469523Y-56937200D01*
X174469523Y-56937200D02*
X174326666Y-56984819D01*
X174326666Y-56984819D02*
X174231428Y-56984819D01*
X174231428Y-56984819D02*
X174088571Y-56937200D01*
X174088571Y-56937200D02*
X173993333Y-56841961D01*
X173993333Y-56841961D02*
X173945714Y-56746723D01*
X173945714Y-56746723D02*
X173898095Y-56556247D01*
X173898095Y-56556247D02*
X173898095Y-56413390D01*
X173898095Y-56413390D02*
X173945714Y-56222914D01*
X173945714Y-56222914D02*
X173993333Y-56127676D01*
X173993333Y-56127676D02*
X174088571Y-56032438D01*
X174088571Y-56032438D02*
X174231428Y-55984819D01*
X174231428Y-55984819D02*
X174326666Y-55984819D01*
X174326666Y-55984819D02*
X174469523Y-56032438D01*
X174469523Y-56032438D02*
X174517142Y-56080057D01*
X175469523Y-56984819D02*
X174898095Y-56984819D01*
X175183809Y-56984819D02*
X175183809Y-55984819D01*
X175183809Y-55984819D02*
X175088571Y-56127676D01*
X175088571Y-56127676D02*
X174993333Y-56222914D01*
X174993333Y-56222914D02*
X174898095Y-56270533D01*
X176326666Y-55984819D02*
X176136190Y-55984819D01*
X176136190Y-55984819D02*
X176040952Y-56032438D01*
X176040952Y-56032438D02*
X175993333Y-56080057D01*
X175993333Y-56080057D02*
X175898095Y-56222914D01*
X175898095Y-56222914D02*
X175850476Y-56413390D01*
X175850476Y-56413390D02*
X175850476Y-56794342D01*
X175850476Y-56794342D02*
X175898095Y-56889580D01*
X175898095Y-56889580D02*
X175945714Y-56937200D01*
X175945714Y-56937200D02*
X176040952Y-56984819D01*
X176040952Y-56984819D02*
X176231428Y-56984819D01*
X176231428Y-56984819D02*
X176326666Y-56937200D01*
X176326666Y-56937200D02*
X176374285Y-56889580D01*
X176374285Y-56889580D02*
X176421904Y-56794342D01*
X176421904Y-56794342D02*
X176421904Y-56556247D01*
X176421904Y-56556247D02*
X176374285Y-56461009D01*
X176374285Y-56461009D02*
X176326666Y-56413390D01*
X176326666Y-56413390D02*
X176231428Y-56365771D01*
X176231428Y-56365771D02*
X176040952Y-56365771D01*
X176040952Y-56365771D02*
X175945714Y-56413390D01*
X175945714Y-56413390D02*
X175898095Y-56461009D01*
X175898095Y-56461009D02*
X175850476Y-56556247D01*
X197574819Y-73833333D02*
X198289104Y-73833333D01*
X198289104Y-73833333D02*
X198431961Y-73880952D01*
X198431961Y-73880952D02*
X198527200Y-73976190D01*
X198527200Y-73976190D02*
X198574819Y-74119047D01*
X198574819Y-74119047D02*
X198574819Y-74214285D01*
X198574819Y-72833333D02*
X198574819Y-73404761D01*
X198574819Y-73119047D02*
X197574819Y-73119047D01*
X197574819Y-73119047D02*
X197717676Y-73214285D01*
X197717676Y-73214285D02*
X197812914Y-73309523D01*
X197812914Y-73309523D02*
X197860533Y-73404761D01*
X189094819Y-76966666D02*
X188618628Y-77299999D01*
X189094819Y-77538094D02*
X188094819Y-77538094D01*
X188094819Y-77538094D02*
X188094819Y-77157142D01*
X188094819Y-77157142D02*
X188142438Y-77061904D01*
X188142438Y-77061904D02*
X188190057Y-77014285D01*
X188190057Y-77014285D02*
X188285295Y-76966666D01*
X188285295Y-76966666D02*
X188428152Y-76966666D01*
X188428152Y-76966666D02*
X188523390Y-77014285D01*
X188523390Y-77014285D02*
X188571009Y-77061904D01*
X188571009Y-77061904D02*
X188618628Y-77157142D01*
X188618628Y-77157142D02*
X188618628Y-77538094D01*
X188428152Y-76109523D02*
X189094819Y-76109523D01*
X188047200Y-76347618D02*
X188761485Y-76585713D01*
X188761485Y-76585713D02*
X188761485Y-75966666D01*
X176183333Y-75564819D02*
X175850000Y-75088628D01*
X175611905Y-75564819D02*
X175611905Y-74564819D01*
X175611905Y-74564819D02*
X175992857Y-74564819D01*
X175992857Y-74564819D02*
X176088095Y-74612438D01*
X176088095Y-74612438D02*
X176135714Y-74660057D01*
X176135714Y-74660057D02*
X176183333Y-74755295D01*
X176183333Y-74755295D02*
X176183333Y-74898152D01*
X176183333Y-74898152D02*
X176135714Y-74993390D01*
X176135714Y-74993390D02*
X176088095Y-75041009D01*
X176088095Y-75041009D02*
X175992857Y-75088628D01*
X175992857Y-75088628D02*
X175611905Y-75088628D01*
X177040476Y-74564819D02*
X176850000Y-74564819D01*
X176850000Y-74564819D02*
X176754762Y-74612438D01*
X176754762Y-74612438D02*
X176707143Y-74660057D01*
X176707143Y-74660057D02*
X176611905Y-74802914D01*
X176611905Y-74802914D02*
X176564286Y-74993390D01*
X176564286Y-74993390D02*
X176564286Y-75374342D01*
X176564286Y-75374342D02*
X176611905Y-75469580D01*
X176611905Y-75469580D02*
X176659524Y-75517200D01*
X176659524Y-75517200D02*
X176754762Y-75564819D01*
X176754762Y-75564819D02*
X176945238Y-75564819D01*
X176945238Y-75564819D02*
X177040476Y-75517200D01*
X177040476Y-75517200D02*
X177088095Y-75469580D01*
X177088095Y-75469580D02*
X177135714Y-75374342D01*
X177135714Y-75374342D02*
X177135714Y-75136247D01*
X177135714Y-75136247D02*
X177088095Y-75041009D01*
X177088095Y-75041009D02*
X177040476Y-74993390D01*
X177040476Y-74993390D02*
X176945238Y-74945771D01*
X176945238Y-74945771D02*
X176754762Y-74945771D01*
X176754762Y-74945771D02*
X176659524Y-74993390D01*
X176659524Y-74993390D02*
X176611905Y-75041009D01*
X176611905Y-75041009D02*
X176564286Y-75136247D01*
X176783333Y-99024819D02*
X176450000Y-98548628D01*
X176211905Y-99024819D02*
X176211905Y-98024819D01*
X176211905Y-98024819D02*
X176592857Y-98024819D01*
X176592857Y-98024819D02*
X176688095Y-98072438D01*
X176688095Y-98072438D02*
X176735714Y-98120057D01*
X176735714Y-98120057D02*
X176783333Y-98215295D01*
X176783333Y-98215295D02*
X176783333Y-98358152D01*
X176783333Y-98358152D02*
X176735714Y-98453390D01*
X176735714Y-98453390D02*
X176688095Y-98501009D01*
X176688095Y-98501009D02*
X176592857Y-98548628D01*
X176592857Y-98548628D02*
X176211905Y-98548628D01*
X177116667Y-98024819D02*
X177783333Y-98024819D01*
X177783333Y-98024819D02*
X177354762Y-99024819D01*
X131543333Y-53679580D02*
X131495714Y-53727200D01*
X131495714Y-53727200D02*
X131352857Y-53774819D01*
X131352857Y-53774819D02*
X131257619Y-53774819D01*
X131257619Y-53774819D02*
X131114762Y-53727200D01*
X131114762Y-53727200D02*
X131019524Y-53631961D01*
X131019524Y-53631961D02*
X130971905Y-53536723D01*
X130971905Y-53536723D02*
X130924286Y-53346247D01*
X130924286Y-53346247D02*
X130924286Y-53203390D01*
X130924286Y-53203390D02*
X130971905Y-53012914D01*
X130971905Y-53012914D02*
X131019524Y-52917676D01*
X131019524Y-52917676D02*
X131114762Y-52822438D01*
X131114762Y-52822438D02*
X131257619Y-52774819D01*
X131257619Y-52774819D02*
X131352857Y-52774819D01*
X131352857Y-52774819D02*
X131495714Y-52822438D01*
X131495714Y-52822438D02*
X131543333Y-52870057D01*
X131876667Y-52774819D02*
X132543333Y-52774819D01*
X132543333Y-52774819D02*
X132114762Y-53774819D01*
X184074819Y-76941666D02*
X183598628Y-77274999D01*
X184074819Y-77513094D02*
X183074819Y-77513094D01*
X183074819Y-77513094D02*
X183074819Y-77132142D01*
X183074819Y-77132142D02*
X183122438Y-77036904D01*
X183122438Y-77036904D02*
X183170057Y-76989285D01*
X183170057Y-76989285D02*
X183265295Y-76941666D01*
X183265295Y-76941666D02*
X183408152Y-76941666D01*
X183408152Y-76941666D02*
X183503390Y-76989285D01*
X183503390Y-76989285D02*
X183551009Y-77036904D01*
X183551009Y-77036904D02*
X183598628Y-77132142D01*
X183598628Y-77132142D02*
X183598628Y-77513094D01*
X183074819Y-76036904D02*
X183074819Y-76513094D01*
X183074819Y-76513094D02*
X183551009Y-76560713D01*
X183551009Y-76560713D02*
X183503390Y-76513094D01*
X183503390Y-76513094D02*
X183455771Y-76417856D01*
X183455771Y-76417856D02*
X183455771Y-76179761D01*
X183455771Y-76179761D02*
X183503390Y-76084523D01*
X183503390Y-76084523D02*
X183551009Y-76036904D01*
X183551009Y-76036904D02*
X183646247Y-75989285D01*
X183646247Y-75989285D02*
X183884342Y-75989285D01*
X183884342Y-75989285D02*
X183979580Y-76036904D01*
X183979580Y-76036904D02*
X184027200Y-76084523D01*
X184027200Y-76084523D02*
X184074819Y-76179761D01*
X184074819Y-76179761D02*
X184074819Y-76417856D01*
X184074819Y-76417856D02*
X184027200Y-76513094D01*
X184027200Y-76513094D02*
X183979580Y-76560713D01*
X157987142Y-51864819D02*
X157653809Y-51388628D01*
X157415714Y-51864819D02*
X157415714Y-50864819D01*
X157415714Y-50864819D02*
X157796666Y-50864819D01*
X157796666Y-50864819D02*
X157891904Y-50912438D01*
X157891904Y-50912438D02*
X157939523Y-50960057D01*
X157939523Y-50960057D02*
X157987142Y-51055295D01*
X157987142Y-51055295D02*
X157987142Y-51198152D01*
X157987142Y-51198152D02*
X157939523Y-51293390D01*
X157939523Y-51293390D02*
X157891904Y-51341009D01*
X157891904Y-51341009D02*
X157796666Y-51388628D01*
X157796666Y-51388628D02*
X157415714Y-51388628D01*
X158939523Y-51864819D02*
X158368095Y-51864819D01*
X158653809Y-51864819D02*
X158653809Y-50864819D01*
X158653809Y-50864819D02*
X158558571Y-51007676D01*
X158558571Y-51007676D02*
X158463333Y-51102914D01*
X158463333Y-51102914D02*
X158368095Y-51150533D01*
X159320476Y-50960057D02*
X159368095Y-50912438D01*
X159368095Y-50912438D02*
X159463333Y-50864819D01*
X159463333Y-50864819D02*
X159701428Y-50864819D01*
X159701428Y-50864819D02*
X159796666Y-50912438D01*
X159796666Y-50912438D02*
X159844285Y-50960057D01*
X159844285Y-50960057D02*
X159891904Y-51055295D01*
X159891904Y-51055295D02*
X159891904Y-51150533D01*
X159891904Y-51150533D02*
X159844285Y-51293390D01*
X159844285Y-51293390D02*
X159272857Y-51864819D01*
X159272857Y-51864819D02*
X159891904Y-51864819D01*
X172463333Y-79749580D02*
X172415714Y-79797200D01*
X172415714Y-79797200D02*
X172272857Y-79844819D01*
X172272857Y-79844819D02*
X172177619Y-79844819D01*
X172177619Y-79844819D02*
X172034762Y-79797200D01*
X172034762Y-79797200D02*
X171939524Y-79701961D01*
X171939524Y-79701961D02*
X171891905Y-79606723D01*
X171891905Y-79606723D02*
X171844286Y-79416247D01*
X171844286Y-79416247D02*
X171844286Y-79273390D01*
X171844286Y-79273390D02*
X171891905Y-79082914D01*
X171891905Y-79082914D02*
X171939524Y-78987676D01*
X171939524Y-78987676D02*
X172034762Y-78892438D01*
X172034762Y-78892438D02*
X172177619Y-78844819D01*
X172177619Y-78844819D02*
X172272857Y-78844819D01*
X172272857Y-78844819D02*
X172415714Y-78892438D01*
X172415714Y-78892438D02*
X172463333Y-78940057D01*
X172796667Y-78844819D02*
X173415714Y-78844819D01*
X173415714Y-78844819D02*
X173082381Y-79225771D01*
X173082381Y-79225771D02*
X173225238Y-79225771D01*
X173225238Y-79225771D02*
X173320476Y-79273390D01*
X173320476Y-79273390D02*
X173368095Y-79321009D01*
X173368095Y-79321009D02*
X173415714Y-79416247D01*
X173415714Y-79416247D02*
X173415714Y-79654342D01*
X173415714Y-79654342D02*
X173368095Y-79749580D01*
X173368095Y-79749580D02*
X173320476Y-79797200D01*
X173320476Y-79797200D02*
X173225238Y-79844819D01*
X173225238Y-79844819D02*
X172939524Y-79844819D01*
X172939524Y-79844819D02*
X172844286Y-79797200D01*
X172844286Y-79797200D02*
X172796667Y-79749580D01*
X167190595Y-73889819D02*
X167190595Y-74699342D01*
X167190595Y-74699342D02*
X167238214Y-74794580D01*
X167238214Y-74794580D02*
X167285833Y-74842200D01*
X167285833Y-74842200D02*
X167381071Y-74889819D01*
X167381071Y-74889819D02*
X167571547Y-74889819D01*
X167571547Y-74889819D02*
X167666785Y-74842200D01*
X167666785Y-74842200D02*
X167714404Y-74794580D01*
X167714404Y-74794580D02*
X167762023Y-74699342D01*
X167762023Y-74699342D02*
X167762023Y-73889819D01*
X168762023Y-74889819D02*
X168190595Y-74889819D01*
X168476309Y-74889819D02*
X168476309Y-73889819D01*
X168476309Y-73889819D02*
X168381071Y-74032676D01*
X168381071Y-74032676D02*
X168285833Y-74127914D01*
X168285833Y-74127914D02*
X168190595Y-74175533D01*
X158787142Y-54724819D02*
X158453809Y-54248628D01*
X158215714Y-54724819D02*
X158215714Y-53724819D01*
X158215714Y-53724819D02*
X158596666Y-53724819D01*
X158596666Y-53724819D02*
X158691904Y-53772438D01*
X158691904Y-53772438D02*
X158739523Y-53820057D01*
X158739523Y-53820057D02*
X158787142Y-53915295D01*
X158787142Y-53915295D02*
X158787142Y-54058152D01*
X158787142Y-54058152D02*
X158739523Y-54153390D01*
X158739523Y-54153390D02*
X158691904Y-54201009D01*
X158691904Y-54201009D02*
X158596666Y-54248628D01*
X158596666Y-54248628D02*
X158215714Y-54248628D01*
X159739523Y-54724819D02*
X159168095Y-54724819D01*
X159453809Y-54724819D02*
X159453809Y-53724819D01*
X159453809Y-53724819D02*
X159358571Y-53867676D01*
X159358571Y-53867676D02*
X159263333Y-53962914D01*
X159263333Y-53962914D02*
X159168095Y-54010533D01*
X160596666Y-54058152D02*
X160596666Y-54724819D01*
X160358571Y-53677200D02*
X160120476Y-54391485D01*
X160120476Y-54391485D02*
X160739523Y-54391485D01*
X140267142Y-83239580D02*
X140219523Y-83287200D01*
X140219523Y-83287200D02*
X140076666Y-83334819D01*
X140076666Y-83334819D02*
X139981428Y-83334819D01*
X139981428Y-83334819D02*
X139838571Y-83287200D01*
X139838571Y-83287200D02*
X139743333Y-83191961D01*
X139743333Y-83191961D02*
X139695714Y-83096723D01*
X139695714Y-83096723D02*
X139648095Y-82906247D01*
X139648095Y-82906247D02*
X139648095Y-82763390D01*
X139648095Y-82763390D02*
X139695714Y-82572914D01*
X139695714Y-82572914D02*
X139743333Y-82477676D01*
X139743333Y-82477676D02*
X139838571Y-82382438D01*
X139838571Y-82382438D02*
X139981428Y-82334819D01*
X139981428Y-82334819D02*
X140076666Y-82334819D01*
X140076666Y-82334819D02*
X140219523Y-82382438D01*
X140219523Y-82382438D02*
X140267142Y-82430057D01*
X141219523Y-83334819D02*
X140648095Y-83334819D01*
X140933809Y-83334819D02*
X140933809Y-82334819D01*
X140933809Y-82334819D02*
X140838571Y-82477676D01*
X140838571Y-82477676D02*
X140743333Y-82572914D01*
X140743333Y-82572914D02*
X140648095Y-82620533D01*
X141695714Y-83334819D02*
X141886190Y-83334819D01*
X141886190Y-83334819D02*
X141981428Y-83287200D01*
X141981428Y-83287200D02*
X142029047Y-83239580D01*
X142029047Y-83239580D02*
X142124285Y-83096723D01*
X142124285Y-83096723D02*
X142171904Y-82906247D01*
X142171904Y-82906247D02*
X142171904Y-82525295D01*
X142171904Y-82525295D02*
X142124285Y-82430057D01*
X142124285Y-82430057D02*
X142076666Y-82382438D01*
X142076666Y-82382438D02*
X141981428Y-82334819D01*
X141981428Y-82334819D02*
X141790952Y-82334819D01*
X141790952Y-82334819D02*
X141695714Y-82382438D01*
X141695714Y-82382438D02*
X141648095Y-82430057D01*
X141648095Y-82430057D02*
X141600476Y-82525295D01*
X141600476Y-82525295D02*
X141600476Y-82763390D01*
X141600476Y-82763390D02*
X141648095Y-82858628D01*
X141648095Y-82858628D02*
X141695714Y-82906247D01*
X141695714Y-82906247D02*
X141790952Y-82953866D01*
X141790952Y-82953866D02*
X141981428Y-82953866D01*
X141981428Y-82953866D02*
X142076666Y-82906247D01*
X142076666Y-82906247D02*
X142124285Y-82858628D01*
X142124285Y-82858628D02*
X142171904Y-82763390D01*
X195474819Y-69207857D02*
X194998628Y-69541190D01*
X195474819Y-69779285D02*
X194474819Y-69779285D01*
X194474819Y-69779285D02*
X194474819Y-69398333D01*
X194474819Y-69398333D02*
X194522438Y-69303095D01*
X194522438Y-69303095D02*
X194570057Y-69255476D01*
X194570057Y-69255476D02*
X194665295Y-69207857D01*
X194665295Y-69207857D02*
X194808152Y-69207857D01*
X194808152Y-69207857D02*
X194903390Y-69255476D01*
X194903390Y-69255476D02*
X194951009Y-69303095D01*
X194951009Y-69303095D02*
X194998628Y-69398333D01*
X194998628Y-69398333D02*
X194998628Y-69779285D01*
X195474819Y-68255476D02*
X195474819Y-68826904D01*
X195474819Y-68541190D02*
X194474819Y-68541190D01*
X194474819Y-68541190D02*
X194617676Y-68636428D01*
X194617676Y-68636428D02*
X194712914Y-68731666D01*
X194712914Y-68731666D02*
X194760533Y-68826904D01*
X195474819Y-67303095D02*
X195474819Y-67874523D01*
X195474819Y-67588809D02*
X194474819Y-67588809D01*
X194474819Y-67588809D02*
X194617676Y-67684047D01*
X194617676Y-67684047D02*
X194712914Y-67779285D01*
X194712914Y-67779285D02*
X194760533Y-67874523D01*
X188868095Y-86914819D02*
X188868095Y-87724342D01*
X188868095Y-87724342D02*
X188915714Y-87819580D01*
X188915714Y-87819580D02*
X188963333Y-87867200D01*
X188963333Y-87867200D02*
X189058571Y-87914819D01*
X189058571Y-87914819D02*
X189249047Y-87914819D01*
X189249047Y-87914819D02*
X189344285Y-87867200D01*
X189344285Y-87867200D02*
X189391904Y-87819580D01*
X189391904Y-87819580D02*
X189439523Y-87724342D01*
X189439523Y-87724342D02*
X189439523Y-86914819D01*
X189820476Y-86914819D02*
X190439523Y-86914819D01*
X190439523Y-86914819D02*
X190106190Y-87295771D01*
X190106190Y-87295771D02*
X190249047Y-87295771D01*
X190249047Y-87295771D02*
X190344285Y-87343390D01*
X190344285Y-87343390D02*
X190391904Y-87391009D01*
X190391904Y-87391009D02*
X190439523Y-87486247D01*
X190439523Y-87486247D02*
X190439523Y-87724342D01*
X190439523Y-87724342D02*
X190391904Y-87819580D01*
X190391904Y-87819580D02*
X190344285Y-87867200D01*
X190344285Y-87867200D02*
X190249047Y-87914819D01*
X190249047Y-87914819D02*
X189963333Y-87914819D01*
X189963333Y-87914819D02*
X189868095Y-87867200D01*
X189868095Y-87867200D02*
X189820476Y-87819580D01*
X155828616Y-72286651D02*
X156305268Y-72286651D01*
X155304299Y-72620307D02*
X155828616Y-72286651D01*
X155828616Y-72286651D02*
X155304299Y-71952994D01*
X155399629Y-71667004D02*
X155351964Y-71619339D01*
X155351964Y-71619339D02*
X155304299Y-71524008D01*
X155304299Y-71524008D02*
X155304299Y-71285682D01*
X155304299Y-71285682D02*
X155351964Y-71190352D01*
X155351964Y-71190352D02*
X155399629Y-71142687D01*
X155399629Y-71142687D02*
X155494959Y-71095021D01*
X155494959Y-71095021D02*
X155590290Y-71095021D01*
X155590290Y-71095021D02*
X155733285Y-71142687D01*
X155733285Y-71142687D02*
X156305268Y-71714669D01*
X156305268Y-71714669D02*
X156305268Y-71095021D01*
X202611905Y-89624819D02*
X202611905Y-88624819D01*
X202611905Y-88624819D02*
X202850000Y-88624819D01*
X202850000Y-88624819D02*
X202992857Y-88672438D01*
X202992857Y-88672438D02*
X203088095Y-88767676D01*
X203088095Y-88767676D02*
X203135714Y-88862914D01*
X203135714Y-88862914D02*
X203183333Y-89053390D01*
X203183333Y-89053390D02*
X203183333Y-89196247D01*
X203183333Y-89196247D02*
X203135714Y-89386723D01*
X203135714Y-89386723D02*
X203088095Y-89481961D01*
X203088095Y-89481961D02*
X202992857Y-89577200D01*
X202992857Y-89577200D02*
X202850000Y-89624819D01*
X202850000Y-89624819D02*
X202611905Y-89624819D01*
X204088095Y-88624819D02*
X203611905Y-88624819D01*
X203611905Y-88624819D02*
X203564286Y-89101009D01*
X203564286Y-89101009D02*
X203611905Y-89053390D01*
X203611905Y-89053390D02*
X203707143Y-89005771D01*
X203707143Y-89005771D02*
X203945238Y-89005771D01*
X203945238Y-89005771D02*
X204040476Y-89053390D01*
X204040476Y-89053390D02*
X204088095Y-89101009D01*
X204088095Y-89101009D02*
X204135714Y-89196247D01*
X204135714Y-89196247D02*
X204135714Y-89434342D01*
X204135714Y-89434342D02*
X204088095Y-89529580D01*
X204088095Y-89529580D02*
X204040476Y-89577200D01*
X204040476Y-89577200D02*
X203945238Y-89624819D01*
X203945238Y-89624819D02*
X203707143Y-89624819D01*
X203707143Y-89624819D02*
X203611905Y-89577200D01*
X203611905Y-89577200D02*
X203564286Y-89529580D01*
X158896666Y-84391009D02*
X158563333Y-84391009D01*
X158563333Y-84914819D02*
X158563333Y-83914819D01*
X158563333Y-83914819D02*
X159039523Y-83914819D01*
X159753809Y-84391009D02*
X159896666Y-84438628D01*
X159896666Y-84438628D02*
X159944285Y-84486247D01*
X159944285Y-84486247D02*
X159991904Y-84581485D01*
X159991904Y-84581485D02*
X159991904Y-84724342D01*
X159991904Y-84724342D02*
X159944285Y-84819580D01*
X159944285Y-84819580D02*
X159896666Y-84867200D01*
X159896666Y-84867200D02*
X159801428Y-84914819D01*
X159801428Y-84914819D02*
X159420476Y-84914819D01*
X159420476Y-84914819D02*
X159420476Y-83914819D01*
X159420476Y-83914819D02*
X159753809Y-83914819D01*
X159753809Y-83914819D02*
X159849047Y-83962438D01*
X159849047Y-83962438D02*
X159896666Y-84010057D01*
X159896666Y-84010057D02*
X159944285Y-84105295D01*
X159944285Y-84105295D02*
X159944285Y-84200533D01*
X159944285Y-84200533D02*
X159896666Y-84295771D01*
X159896666Y-84295771D02*
X159849047Y-84343390D01*
X159849047Y-84343390D02*
X159753809Y-84391009D01*
X159753809Y-84391009D02*
X159420476Y-84391009D01*
X160944285Y-84914819D02*
X160372857Y-84914819D01*
X160658571Y-84914819D02*
X160658571Y-83914819D01*
X160658571Y-83914819D02*
X160563333Y-84057676D01*
X160563333Y-84057676D02*
X160468095Y-84152914D01*
X160468095Y-84152914D02*
X160372857Y-84200533D01*
X190408333Y-50284819D02*
X190075000Y-49808628D01*
X189836905Y-50284819D02*
X189836905Y-49284819D01*
X189836905Y-49284819D02*
X190217857Y-49284819D01*
X190217857Y-49284819D02*
X190313095Y-49332438D01*
X190313095Y-49332438D02*
X190360714Y-49380057D01*
X190360714Y-49380057D02*
X190408333Y-49475295D01*
X190408333Y-49475295D02*
X190408333Y-49618152D01*
X190408333Y-49618152D02*
X190360714Y-49713390D01*
X190360714Y-49713390D02*
X190313095Y-49761009D01*
X190313095Y-49761009D02*
X190217857Y-49808628D01*
X190217857Y-49808628D02*
X189836905Y-49808628D01*
X190741667Y-49284819D02*
X191360714Y-49284819D01*
X191360714Y-49284819D02*
X191027381Y-49665771D01*
X191027381Y-49665771D02*
X191170238Y-49665771D01*
X191170238Y-49665771D02*
X191265476Y-49713390D01*
X191265476Y-49713390D02*
X191313095Y-49761009D01*
X191313095Y-49761009D02*
X191360714Y-49856247D01*
X191360714Y-49856247D02*
X191360714Y-50094342D01*
X191360714Y-50094342D02*
X191313095Y-50189580D01*
X191313095Y-50189580D02*
X191265476Y-50237200D01*
X191265476Y-50237200D02*
X191170238Y-50284819D01*
X191170238Y-50284819D02*
X190884524Y-50284819D01*
X190884524Y-50284819D02*
X190789286Y-50237200D01*
X190789286Y-50237200D02*
X190741667Y-50189580D01*
X154209580Y-58282857D02*
X154257200Y-58330476D01*
X154257200Y-58330476D02*
X154304819Y-58473333D01*
X154304819Y-58473333D02*
X154304819Y-58568571D01*
X154304819Y-58568571D02*
X154257200Y-58711428D01*
X154257200Y-58711428D02*
X154161961Y-58806666D01*
X154161961Y-58806666D02*
X154066723Y-58854285D01*
X154066723Y-58854285D02*
X153876247Y-58901904D01*
X153876247Y-58901904D02*
X153733390Y-58901904D01*
X153733390Y-58901904D02*
X153542914Y-58854285D01*
X153542914Y-58854285D02*
X153447676Y-58806666D01*
X153447676Y-58806666D02*
X153352438Y-58711428D01*
X153352438Y-58711428D02*
X153304819Y-58568571D01*
X153304819Y-58568571D02*
X153304819Y-58473333D01*
X153304819Y-58473333D02*
X153352438Y-58330476D01*
X153352438Y-58330476D02*
X153400057Y-58282857D01*
X154304819Y-57330476D02*
X154304819Y-57901904D01*
X154304819Y-57616190D02*
X153304819Y-57616190D01*
X153304819Y-57616190D02*
X153447676Y-57711428D01*
X153447676Y-57711428D02*
X153542914Y-57806666D01*
X153542914Y-57806666D02*
X153590533Y-57901904D01*
X153733390Y-56759047D02*
X153685771Y-56854285D01*
X153685771Y-56854285D02*
X153638152Y-56901904D01*
X153638152Y-56901904D02*
X153542914Y-56949523D01*
X153542914Y-56949523D02*
X153495295Y-56949523D01*
X153495295Y-56949523D02*
X153400057Y-56901904D01*
X153400057Y-56901904D02*
X153352438Y-56854285D01*
X153352438Y-56854285D02*
X153304819Y-56759047D01*
X153304819Y-56759047D02*
X153304819Y-56568571D01*
X153304819Y-56568571D02*
X153352438Y-56473333D01*
X153352438Y-56473333D02*
X153400057Y-56425714D01*
X153400057Y-56425714D02*
X153495295Y-56378095D01*
X153495295Y-56378095D02*
X153542914Y-56378095D01*
X153542914Y-56378095D02*
X153638152Y-56425714D01*
X153638152Y-56425714D02*
X153685771Y-56473333D01*
X153685771Y-56473333D02*
X153733390Y-56568571D01*
X153733390Y-56568571D02*
X153733390Y-56759047D01*
X153733390Y-56759047D02*
X153781009Y-56854285D01*
X153781009Y-56854285D02*
X153828628Y-56901904D01*
X153828628Y-56901904D02*
X153923866Y-56949523D01*
X153923866Y-56949523D02*
X154114342Y-56949523D01*
X154114342Y-56949523D02*
X154209580Y-56901904D01*
X154209580Y-56901904D02*
X154257200Y-56854285D01*
X154257200Y-56854285D02*
X154304819Y-56759047D01*
X154304819Y-56759047D02*
X154304819Y-56568571D01*
X154304819Y-56568571D02*
X154257200Y-56473333D01*
X154257200Y-56473333D02*
X154209580Y-56425714D01*
X154209580Y-56425714D02*
X154114342Y-56378095D01*
X154114342Y-56378095D02*
X153923866Y-56378095D01*
X153923866Y-56378095D02*
X153828628Y-56425714D01*
X153828628Y-56425714D02*
X153781009Y-56473333D01*
X153781009Y-56473333D02*
X153733390Y-56568571D01*
X155899580Y-48502857D02*
X155947200Y-48550476D01*
X155947200Y-48550476D02*
X155994819Y-48693333D01*
X155994819Y-48693333D02*
X155994819Y-48788571D01*
X155994819Y-48788571D02*
X155947200Y-48931428D01*
X155947200Y-48931428D02*
X155851961Y-49026666D01*
X155851961Y-49026666D02*
X155756723Y-49074285D01*
X155756723Y-49074285D02*
X155566247Y-49121904D01*
X155566247Y-49121904D02*
X155423390Y-49121904D01*
X155423390Y-49121904D02*
X155232914Y-49074285D01*
X155232914Y-49074285D02*
X155137676Y-49026666D01*
X155137676Y-49026666D02*
X155042438Y-48931428D01*
X155042438Y-48931428D02*
X154994819Y-48788571D01*
X154994819Y-48788571D02*
X154994819Y-48693333D01*
X154994819Y-48693333D02*
X155042438Y-48550476D01*
X155042438Y-48550476D02*
X155090057Y-48502857D01*
X155994819Y-47550476D02*
X155994819Y-48121904D01*
X155994819Y-47836190D02*
X154994819Y-47836190D01*
X154994819Y-47836190D02*
X155137676Y-47931428D01*
X155137676Y-47931428D02*
X155232914Y-48026666D01*
X155232914Y-48026666D02*
X155280533Y-48121904D01*
X154994819Y-47217142D02*
X154994819Y-46550476D01*
X154994819Y-46550476D02*
X155994819Y-46979047D01*
X159703333Y-71949580D02*
X159655714Y-71997200D01*
X159655714Y-71997200D02*
X159512857Y-72044819D01*
X159512857Y-72044819D02*
X159417619Y-72044819D01*
X159417619Y-72044819D02*
X159274762Y-71997200D01*
X159274762Y-71997200D02*
X159179524Y-71901961D01*
X159179524Y-71901961D02*
X159131905Y-71806723D01*
X159131905Y-71806723D02*
X159084286Y-71616247D01*
X159084286Y-71616247D02*
X159084286Y-71473390D01*
X159084286Y-71473390D02*
X159131905Y-71282914D01*
X159131905Y-71282914D02*
X159179524Y-71187676D01*
X159179524Y-71187676D02*
X159274762Y-71092438D01*
X159274762Y-71092438D02*
X159417619Y-71044819D01*
X159417619Y-71044819D02*
X159512857Y-71044819D01*
X159512857Y-71044819D02*
X159655714Y-71092438D01*
X159655714Y-71092438D02*
X159703333Y-71140057D01*
X160560476Y-71044819D02*
X160370000Y-71044819D01*
X160370000Y-71044819D02*
X160274762Y-71092438D01*
X160274762Y-71092438D02*
X160227143Y-71140057D01*
X160227143Y-71140057D02*
X160131905Y-71282914D01*
X160131905Y-71282914D02*
X160084286Y-71473390D01*
X160084286Y-71473390D02*
X160084286Y-71854342D01*
X160084286Y-71854342D02*
X160131905Y-71949580D01*
X160131905Y-71949580D02*
X160179524Y-71997200D01*
X160179524Y-71997200D02*
X160274762Y-72044819D01*
X160274762Y-72044819D02*
X160465238Y-72044819D01*
X160465238Y-72044819D02*
X160560476Y-71997200D01*
X160560476Y-71997200D02*
X160608095Y-71949580D01*
X160608095Y-71949580D02*
X160655714Y-71854342D01*
X160655714Y-71854342D02*
X160655714Y-71616247D01*
X160655714Y-71616247D02*
X160608095Y-71521009D01*
X160608095Y-71521009D02*
X160560476Y-71473390D01*
X160560476Y-71473390D02*
X160465238Y-71425771D01*
X160465238Y-71425771D02*
X160274762Y-71425771D01*
X160274762Y-71425771D02*
X160179524Y-71473390D01*
X160179524Y-71473390D02*
X160131905Y-71521009D01*
X160131905Y-71521009D02*
X160084286Y-71616247D01*
X202421905Y-84694819D02*
X202421905Y-83694819D01*
X202421905Y-83694819D02*
X202660000Y-83694819D01*
X202660000Y-83694819D02*
X202802857Y-83742438D01*
X202802857Y-83742438D02*
X202898095Y-83837676D01*
X202898095Y-83837676D02*
X202945714Y-83932914D01*
X202945714Y-83932914D02*
X202993333Y-84123390D01*
X202993333Y-84123390D02*
X202993333Y-84266247D01*
X202993333Y-84266247D02*
X202945714Y-84456723D01*
X202945714Y-84456723D02*
X202898095Y-84551961D01*
X202898095Y-84551961D02*
X202802857Y-84647200D01*
X202802857Y-84647200D02*
X202660000Y-84694819D01*
X202660000Y-84694819D02*
X202421905Y-84694819D01*
X203326667Y-83694819D02*
X203945714Y-83694819D01*
X203945714Y-83694819D02*
X203612381Y-84075771D01*
X203612381Y-84075771D02*
X203755238Y-84075771D01*
X203755238Y-84075771D02*
X203850476Y-84123390D01*
X203850476Y-84123390D02*
X203898095Y-84171009D01*
X203898095Y-84171009D02*
X203945714Y-84266247D01*
X203945714Y-84266247D02*
X203945714Y-84504342D01*
X203945714Y-84504342D02*
X203898095Y-84599580D01*
X203898095Y-84599580D02*
X203850476Y-84647200D01*
X203850476Y-84647200D02*
X203755238Y-84694819D01*
X203755238Y-84694819D02*
X203469524Y-84694819D01*
X203469524Y-84694819D02*
X203374286Y-84647200D01*
X203374286Y-84647200D02*
X203326667Y-84599580D01*
X186336905Y-55204819D02*
X186336905Y-54204819D01*
X186336905Y-54204819D02*
X186575000Y-54204819D01*
X186575000Y-54204819D02*
X186717857Y-54252438D01*
X186717857Y-54252438D02*
X186813095Y-54347676D01*
X186813095Y-54347676D02*
X186860714Y-54442914D01*
X186860714Y-54442914D02*
X186908333Y-54633390D01*
X186908333Y-54633390D02*
X186908333Y-54776247D01*
X186908333Y-54776247D02*
X186860714Y-54966723D01*
X186860714Y-54966723D02*
X186813095Y-55061961D01*
X186813095Y-55061961D02*
X186717857Y-55157200D01*
X186717857Y-55157200D02*
X186575000Y-55204819D01*
X186575000Y-55204819D02*
X186336905Y-55204819D01*
X187860714Y-55204819D02*
X187289286Y-55204819D01*
X187575000Y-55204819D02*
X187575000Y-54204819D01*
X187575000Y-54204819D02*
X187479762Y-54347676D01*
X187479762Y-54347676D02*
X187384524Y-54442914D01*
X187384524Y-54442914D02*
X187289286Y-54490533D01*
X179537200Y-63978332D02*
X179584819Y-63835475D01*
X179584819Y-63835475D02*
X179584819Y-63597380D01*
X179584819Y-63597380D02*
X179537200Y-63502142D01*
X179537200Y-63502142D02*
X179489580Y-63454523D01*
X179489580Y-63454523D02*
X179394342Y-63406904D01*
X179394342Y-63406904D02*
X179299104Y-63406904D01*
X179299104Y-63406904D02*
X179203866Y-63454523D01*
X179203866Y-63454523D02*
X179156247Y-63502142D01*
X179156247Y-63502142D02*
X179108628Y-63597380D01*
X179108628Y-63597380D02*
X179061009Y-63787856D01*
X179061009Y-63787856D02*
X179013390Y-63883094D01*
X179013390Y-63883094D02*
X178965771Y-63930713D01*
X178965771Y-63930713D02*
X178870533Y-63978332D01*
X178870533Y-63978332D02*
X178775295Y-63978332D01*
X178775295Y-63978332D02*
X178680057Y-63930713D01*
X178680057Y-63930713D02*
X178632438Y-63883094D01*
X178632438Y-63883094D02*
X178584819Y-63787856D01*
X178584819Y-63787856D02*
X178584819Y-63549761D01*
X178584819Y-63549761D02*
X178632438Y-63406904D01*
X178584819Y-63073570D02*
X179584819Y-62835475D01*
X179584819Y-62835475D02*
X178870533Y-62644999D01*
X178870533Y-62644999D02*
X179584819Y-62454523D01*
X179584819Y-62454523D02*
X178584819Y-62216428D01*
X179584819Y-61311666D02*
X179584819Y-61883094D01*
X179584819Y-61597380D02*
X178584819Y-61597380D01*
X178584819Y-61597380D02*
X178727676Y-61692618D01*
X178727676Y-61692618D02*
X178822914Y-61787856D01*
X178822914Y-61787856D02*
X178870533Y-61883094D01*
X149187142Y-81109580D02*
X149139523Y-81157200D01*
X149139523Y-81157200D02*
X148996666Y-81204819D01*
X148996666Y-81204819D02*
X148901428Y-81204819D01*
X148901428Y-81204819D02*
X148758571Y-81157200D01*
X148758571Y-81157200D02*
X148663333Y-81061961D01*
X148663333Y-81061961D02*
X148615714Y-80966723D01*
X148615714Y-80966723D02*
X148568095Y-80776247D01*
X148568095Y-80776247D02*
X148568095Y-80633390D01*
X148568095Y-80633390D02*
X148615714Y-80442914D01*
X148615714Y-80442914D02*
X148663333Y-80347676D01*
X148663333Y-80347676D02*
X148758571Y-80252438D01*
X148758571Y-80252438D02*
X148901428Y-80204819D01*
X148901428Y-80204819D02*
X148996666Y-80204819D01*
X148996666Y-80204819D02*
X149139523Y-80252438D01*
X149139523Y-80252438D02*
X149187142Y-80300057D01*
X149568095Y-80300057D02*
X149615714Y-80252438D01*
X149615714Y-80252438D02*
X149710952Y-80204819D01*
X149710952Y-80204819D02*
X149949047Y-80204819D01*
X149949047Y-80204819D02*
X150044285Y-80252438D01*
X150044285Y-80252438D02*
X150091904Y-80300057D01*
X150091904Y-80300057D02*
X150139523Y-80395295D01*
X150139523Y-80395295D02*
X150139523Y-80490533D01*
X150139523Y-80490533D02*
X150091904Y-80633390D01*
X150091904Y-80633390D02*
X149520476Y-81204819D01*
X149520476Y-81204819D02*
X150139523Y-81204819D01*
X151091904Y-81204819D02*
X150520476Y-81204819D01*
X150806190Y-81204819D02*
X150806190Y-80204819D01*
X150806190Y-80204819D02*
X150710952Y-80347676D01*
X150710952Y-80347676D02*
X150615714Y-80442914D01*
X150615714Y-80442914D02*
X150520476Y-80490533D01*
X155129580Y-63316666D02*
X155177200Y-63364285D01*
X155177200Y-63364285D02*
X155224819Y-63507142D01*
X155224819Y-63507142D02*
X155224819Y-63602380D01*
X155224819Y-63602380D02*
X155177200Y-63745237D01*
X155177200Y-63745237D02*
X155081961Y-63840475D01*
X155081961Y-63840475D02*
X154986723Y-63888094D01*
X154986723Y-63888094D02*
X154796247Y-63935713D01*
X154796247Y-63935713D02*
X154653390Y-63935713D01*
X154653390Y-63935713D02*
X154462914Y-63888094D01*
X154462914Y-63888094D02*
X154367676Y-63840475D01*
X154367676Y-63840475D02*
X154272438Y-63745237D01*
X154272438Y-63745237D02*
X154224819Y-63602380D01*
X154224819Y-63602380D02*
X154224819Y-63507142D01*
X154224819Y-63507142D02*
X154272438Y-63364285D01*
X154272438Y-63364285D02*
X154320057Y-63316666D01*
X155224819Y-62840475D02*
X155224819Y-62649999D01*
X155224819Y-62649999D02*
X155177200Y-62554761D01*
X155177200Y-62554761D02*
X155129580Y-62507142D01*
X155129580Y-62507142D02*
X154986723Y-62411904D01*
X154986723Y-62411904D02*
X154796247Y-62364285D01*
X154796247Y-62364285D02*
X154415295Y-62364285D01*
X154415295Y-62364285D02*
X154320057Y-62411904D01*
X154320057Y-62411904D02*
X154272438Y-62459523D01*
X154272438Y-62459523D02*
X154224819Y-62554761D01*
X154224819Y-62554761D02*
X154224819Y-62745237D01*
X154224819Y-62745237D02*
X154272438Y-62840475D01*
X154272438Y-62840475D02*
X154320057Y-62888094D01*
X154320057Y-62888094D02*
X154415295Y-62935713D01*
X154415295Y-62935713D02*
X154653390Y-62935713D01*
X154653390Y-62935713D02*
X154748628Y-62888094D01*
X154748628Y-62888094D02*
X154796247Y-62840475D01*
X154796247Y-62840475D02*
X154843866Y-62745237D01*
X154843866Y-62745237D02*
X154843866Y-62554761D01*
X154843866Y-62554761D02*
X154796247Y-62459523D01*
X154796247Y-62459523D02*
X154748628Y-62411904D01*
X154748628Y-62411904D02*
X154653390Y-62364285D01*
X163383333Y-69639580D02*
X163335714Y-69687200D01*
X163335714Y-69687200D02*
X163192857Y-69734819D01*
X163192857Y-69734819D02*
X163097619Y-69734819D01*
X163097619Y-69734819D02*
X162954762Y-69687200D01*
X162954762Y-69687200D02*
X162859524Y-69591961D01*
X162859524Y-69591961D02*
X162811905Y-69496723D01*
X162811905Y-69496723D02*
X162764286Y-69306247D01*
X162764286Y-69306247D02*
X162764286Y-69163390D01*
X162764286Y-69163390D02*
X162811905Y-68972914D01*
X162811905Y-68972914D02*
X162859524Y-68877676D01*
X162859524Y-68877676D02*
X162954762Y-68782438D01*
X162954762Y-68782438D02*
X163097619Y-68734819D01*
X163097619Y-68734819D02*
X163192857Y-68734819D01*
X163192857Y-68734819D02*
X163335714Y-68782438D01*
X163335714Y-68782438D02*
X163383333Y-68830057D01*
X164240476Y-69068152D02*
X164240476Y-69734819D01*
X164002381Y-68687200D02*
X163764286Y-69401485D01*
X163764286Y-69401485D02*
X164383333Y-69401485D01*
X158873333Y-62364819D02*
X158540000Y-61888628D01*
X158301905Y-62364819D02*
X158301905Y-61364819D01*
X158301905Y-61364819D02*
X158682857Y-61364819D01*
X158682857Y-61364819D02*
X158778095Y-61412438D01*
X158778095Y-61412438D02*
X158825714Y-61460057D01*
X158825714Y-61460057D02*
X158873333Y-61555295D01*
X158873333Y-61555295D02*
X158873333Y-61698152D01*
X158873333Y-61698152D02*
X158825714Y-61793390D01*
X158825714Y-61793390D02*
X158778095Y-61841009D01*
X158778095Y-61841009D02*
X158682857Y-61888628D01*
X158682857Y-61888628D02*
X158301905Y-61888628D01*
X159254286Y-61460057D02*
X159301905Y-61412438D01*
X159301905Y-61412438D02*
X159397143Y-61364819D01*
X159397143Y-61364819D02*
X159635238Y-61364819D01*
X159635238Y-61364819D02*
X159730476Y-61412438D01*
X159730476Y-61412438D02*
X159778095Y-61460057D01*
X159778095Y-61460057D02*
X159825714Y-61555295D01*
X159825714Y-61555295D02*
X159825714Y-61650533D01*
X159825714Y-61650533D02*
X159778095Y-61793390D01*
X159778095Y-61793390D02*
X159206667Y-62364819D01*
X159206667Y-62364819D02*
X159825714Y-62364819D01*
X203197142Y-49994580D02*
X203149523Y-50042200D01*
X203149523Y-50042200D02*
X203006666Y-50089819D01*
X203006666Y-50089819D02*
X202911428Y-50089819D01*
X202911428Y-50089819D02*
X202768571Y-50042200D01*
X202768571Y-50042200D02*
X202673333Y-49946961D01*
X202673333Y-49946961D02*
X202625714Y-49851723D01*
X202625714Y-49851723D02*
X202578095Y-49661247D01*
X202578095Y-49661247D02*
X202578095Y-49518390D01*
X202578095Y-49518390D02*
X202625714Y-49327914D01*
X202625714Y-49327914D02*
X202673333Y-49232676D01*
X202673333Y-49232676D02*
X202768571Y-49137438D01*
X202768571Y-49137438D02*
X202911428Y-49089819D01*
X202911428Y-49089819D02*
X203006666Y-49089819D01*
X203006666Y-49089819D02*
X203149523Y-49137438D01*
X203149523Y-49137438D02*
X203197142Y-49185057D01*
X204149523Y-50089819D02*
X203578095Y-50089819D01*
X203863809Y-50089819D02*
X203863809Y-49089819D01*
X203863809Y-49089819D02*
X203768571Y-49232676D01*
X203768571Y-49232676D02*
X203673333Y-49327914D01*
X203673333Y-49327914D02*
X203578095Y-49375533D01*
X204482857Y-49089819D02*
X205101904Y-49089819D01*
X205101904Y-49089819D02*
X204768571Y-49470771D01*
X204768571Y-49470771D02*
X204911428Y-49470771D01*
X204911428Y-49470771D02*
X205006666Y-49518390D01*
X205006666Y-49518390D02*
X205054285Y-49566009D01*
X205054285Y-49566009D02*
X205101904Y-49661247D01*
X205101904Y-49661247D02*
X205101904Y-49899342D01*
X205101904Y-49899342D02*
X205054285Y-49994580D01*
X205054285Y-49994580D02*
X205006666Y-50042200D01*
X205006666Y-50042200D02*
X204911428Y-50089819D01*
X204911428Y-50089819D02*
X204625714Y-50089819D01*
X204625714Y-50089819D02*
X204530476Y-50042200D01*
X204530476Y-50042200D02*
X204482857Y-49994580D01*
X197157142Y-80474819D02*
X196823809Y-79998628D01*
X196585714Y-80474819D02*
X196585714Y-79474819D01*
X196585714Y-79474819D02*
X196966666Y-79474819D01*
X196966666Y-79474819D02*
X197061904Y-79522438D01*
X197061904Y-79522438D02*
X197109523Y-79570057D01*
X197109523Y-79570057D02*
X197157142Y-79665295D01*
X197157142Y-79665295D02*
X197157142Y-79808152D01*
X197157142Y-79808152D02*
X197109523Y-79903390D01*
X197109523Y-79903390D02*
X197061904Y-79951009D01*
X197061904Y-79951009D02*
X196966666Y-79998628D01*
X196966666Y-79998628D02*
X196585714Y-79998628D01*
X198109523Y-80474819D02*
X197538095Y-80474819D01*
X197823809Y-80474819D02*
X197823809Y-79474819D01*
X197823809Y-79474819D02*
X197728571Y-79617676D01*
X197728571Y-79617676D02*
X197633333Y-79712914D01*
X197633333Y-79712914D02*
X197538095Y-79760533D01*
X198728571Y-79474819D02*
X198823809Y-79474819D01*
X198823809Y-79474819D02*
X198919047Y-79522438D01*
X198919047Y-79522438D02*
X198966666Y-79570057D01*
X198966666Y-79570057D02*
X199014285Y-79665295D01*
X199014285Y-79665295D02*
X199061904Y-79855771D01*
X199061904Y-79855771D02*
X199061904Y-80093866D01*
X199061904Y-80093866D02*
X199014285Y-80284342D01*
X199014285Y-80284342D02*
X198966666Y-80379580D01*
X198966666Y-80379580D02*
X198919047Y-80427200D01*
X198919047Y-80427200D02*
X198823809Y-80474819D01*
X198823809Y-80474819D02*
X198728571Y-80474819D01*
X198728571Y-80474819D02*
X198633333Y-80427200D01*
X198633333Y-80427200D02*
X198585714Y-80379580D01*
X198585714Y-80379580D02*
X198538095Y-80284342D01*
X198538095Y-80284342D02*
X198490476Y-80093866D01*
X198490476Y-80093866D02*
X198490476Y-79855771D01*
X198490476Y-79855771D02*
X198538095Y-79665295D01*
X198538095Y-79665295D02*
X198585714Y-79570057D01*
X198585714Y-79570057D02*
X198633333Y-79522438D01*
X198633333Y-79522438D02*
X198728571Y-79474819D01*
X202481905Y-82274819D02*
X202481905Y-81274819D01*
X202481905Y-81274819D02*
X202720000Y-81274819D01*
X202720000Y-81274819D02*
X202862857Y-81322438D01*
X202862857Y-81322438D02*
X202958095Y-81417676D01*
X202958095Y-81417676D02*
X203005714Y-81512914D01*
X203005714Y-81512914D02*
X203053333Y-81703390D01*
X203053333Y-81703390D02*
X203053333Y-81846247D01*
X203053333Y-81846247D02*
X203005714Y-82036723D01*
X203005714Y-82036723D02*
X202958095Y-82131961D01*
X202958095Y-82131961D02*
X202862857Y-82227200D01*
X202862857Y-82227200D02*
X202720000Y-82274819D01*
X202720000Y-82274819D02*
X202481905Y-82274819D01*
X203910476Y-81608152D02*
X203910476Y-82274819D01*
X203672381Y-81227200D02*
X203434286Y-81941485D01*
X203434286Y-81941485D02*
X204053333Y-81941485D01*
D14*
%TO.C,D2*%
X197800000Y-87910000D02*
X201685000Y-87910000D01*
X201685000Y-85640000D02*
X197800000Y-85640000D01*
X201685000Y-87910000D02*
X201685000Y-85640000D01*
%TO.C,C20*%
X136718748Y-54240000D02*
X138141252Y-54240000D01*
X136718748Y-56060000D02*
X138141252Y-56060000D01*
%TO.C,J2*%
X181050000Y-64265000D02*
X181050000Y-66925000D01*
X188730000Y-64265000D02*
X181050000Y-64265000D01*
X188730000Y-64265000D02*
X188730000Y-66925000D01*
X188730000Y-66925000D02*
X181050000Y-66925000D01*
X190000000Y-64265000D02*
X191330000Y-64265000D01*
X191330000Y-64265000D02*
X191330000Y-65595000D01*
%TO.C,R17*%
X135040000Y-59691252D02*
X135040000Y-58268748D01*
X136860000Y-59691252D02*
X136860000Y-58268748D01*
%TO.C,R8*%
X184972936Y-97570000D02*
X186427064Y-97570000D01*
X184972936Y-99390000D02*
X186427064Y-99390000D01*
%TO.C,J4*%
X130110000Y-62923000D02*
X137720000Y-62923000D01*
X130110000Y-79653000D02*
X130110000Y-62923000D01*
X130110000Y-79653000D02*
X137720000Y-79653000D01*
X137020000Y-80348000D02*
X137520000Y-79848000D01*
X137520000Y-79848000D02*
X138020000Y-80348000D01*
X138020000Y-80348000D02*
X137020000Y-80348000D01*
X146080000Y-62923000D02*
X140520000Y-62923000D01*
X146080000Y-79653000D02*
X140520000Y-79653000D01*
X146080000Y-79653000D02*
X146080000Y-62923000D01*
%TO.C,C2*%
X175208748Y-69280000D02*
X176631252Y-69280000D01*
X175208748Y-71100000D02*
X176631252Y-71100000D01*
%TO.C,R16*%
X146850000Y-76488748D02*
X146850000Y-77911252D01*
X148670000Y-76488748D02*
X148670000Y-77911252D01*
%TO.C,C5*%
X163251252Y-61130000D02*
X161828748Y-61130000D01*
X163251252Y-62950000D02*
X161828748Y-62950000D01*
%TO.C,U2*%
X199430000Y-51735000D02*
X203190000Y-51735000D01*
X199430000Y-58555000D02*
X203190000Y-58555000D01*
X203190000Y-51735000D02*
X203190000Y-52995000D01*
X203190000Y-58555000D02*
X203190000Y-57295000D01*
X198150000Y-51835000D02*
X197910000Y-51505000D01*
X198390000Y-51505000D01*
X198150000Y-51835000D01*
G36*
X198150000Y-51835000D02*
G01*
X197910000Y-51505000D01*
X198390000Y-51505000D01*
X198150000Y-51835000D01*
G37*
%TO.C,C12*%
X194590000Y-55711252D02*
X194590000Y-54288748D01*
X196410000Y-55711252D02*
X196410000Y-54288748D01*
%TO.C,R13*%
X161237064Y-55520000D02*
X159782936Y-55520000D01*
X161237064Y-57340000D02*
X159782936Y-57340000D01*
%TO.C,U5*%
X193840000Y-71885000D02*
X193040000Y-71885000D01*
X193840000Y-71885000D02*
X194640000Y-71885000D01*
X193840000Y-75005000D02*
X193040000Y-75005000D01*
X193840000Y-75005000D02*
X194640000Y-75005000D01*
X195380000Y-75285000D02*
X194900000Y-75285000D01*
X195140000Y-74955000D01*
X195380000Y-75285000D01*
G36*
X195380000Y-75285000D02*
G01*
X194900000Y-75285000D01*
X195140000Y-74955000D01*
X195380000Y-75285000D01*
G37*
%TO.C,R9*%
X183737064Y-94460000D02*
X182282936Y-94460000D01*
X183737064Y-96280000D02*
X182282936Y-96280000D01*
%TO.C,R15*%
X132350000Y-59691252D02*
X132350000Y-58268748D01*
X134170000Y-59691252D02*
X134170000Y-58268748D01*
%TO.C,J3*%
X157320000Y-85220000D02*
X157320000Y-87880000D01*
X172620000Y-85220000D02*
X157320000Y-85220000D01*
X172620000Y-85220000D02*
X172620000Y-87880000D01*
X172620000Y-87880000D02*
X157320000Y-87880000D01*
X175220000Y-86550000D02*
X175220000Y-87880000D01*
X175220000Y-87880000D02*
X173890000Y-87880000D01*
D15*
%TO.C,U4*%
X141262500Y-53135000D02*
X141262500Y-52465000D01*
X141732500Y-51350000D02*
X142392500Y-51350000D01*
X142392500Y-54250000D02*
X141732500Y-54250000D01*
D12*
X144572500Y-53850000D02*
G75*
G02*
X144372500Y-53850000I-100000J0D01*
G01*
X144372500Y-53850000D02*
G75*
G02*
X144572500Y-53850000I100000J0D01*
G01*
D14*
%TO.C,R18*%
X149350000Y-76468748D02*
X149350000Y-77891252D01*
X151170000Y-76468748D02*
X151170000Y-77891252D01*
%TO.C,U6*%
X165860000Y-47645000D02*
X165860000Y-57925000D01*
X165860000Y-57925000D02*
X167510000Y-57925000D01*
X169510000Y-57925000D02*
X171160000Y-57925000D01*
X171160000Y-47645000D02*
X165860000Y-47645000D01*
X171160000Y-57925000D02*
X171160000Y-47645000D01*
X167510000Y-57925000D02*
G75*
G02*
X169510000Y-57925000I1000000J0D01*
G01*
%TO.C,C1*%
X163231252Y-63620000D02*
X161808748Y-63620000D01*
X163231252Y-65440000D02*
X161808748Y-65440000D01*
%TO.C,C8*%
X156710000Y-81721252D02*
X156710000Y-80298748D01*
X158530000Y-81721252D02*
X158530000Y-80298748D01*
%TO.C,C10*%
X150720000Y-67981252D02*
X150720000Y-66558748D01*
X152540000Y-67981252D02*
X152540000Y-66558748D01*
%TO.C,R1*%
X168420000Y-65652936D02*
X168420000Y-67107064D01*
X170240000Y-65652936D02*
X170240000Y-67107064D01*
%TO.C,C11*%
X150680000Y-73071252D02*
X150680000Y-71648748D01*
X152500000Y-73071252D02*
X152500000Y-71648748D01*
%TO.C,C16*%
X174200000Y-52328748D02*
X174200000Y-53751252D01*
X176020000Y-52328748D02*
X176020000Y-53751252D01*
%TO.C,J1*%
X202030000Y-69030000D02*
X203830000Y-69030000D01*
X202030000Y-77970000D02*
X203830000Y-77970000D01*
X207540000Y-69030000D02*
X206080000Y-69030000D01*
X207540000Y-69030000D02*
X207540000Y-77970000D01*
X207540000Y-77970000D02*
X206080000Y-77970000D01*
%TO.C,R4*%
X185910000Y-76072936D02*
X185910000Y-77527064D01*
X187730000Y-76072936D02*
X187730000Y-77527064D01*
%TO.C,R6*%
X178290000Y-76045436D02*
X178290000Y-77499564D01*
X180110000Y-76045436D02*
X180110000Y-77499564D01*
%TO.C,R7*%
X179532936Y-97560000D02*
X180987064Y-97560000D01*
X179532936Y-99380000D02*
X180987064Y-99380000D01*
%TO.C,C7*%
X132481252Y-54240000D02*
X131058748Y-54240000D01*
X132481252Y-56060000D02*
X131058748Y-56060000D01*
%TO.C,R5*%
X180890000Y-76047936D02*
X180890000Y-77502064D01*
X182710000Y-76047936D02*
X182710000Y-77502064D01*
%TO.C,R12*%
X161937064Y-48430000D02*
X160482936Y-48430000D01*
X161937064Y-50250000D02*
X160482936Y-50250000D01*
%TO.C,C3*%
X171918748Y-80330000D02*
X173341252Y-80330000D01*
X171918748Y-82150000D02*
X173341252Y-82150000D01*
D15*
%TO.C,U9*%
X146000000Y-86730000D02*
X146000000Y-86070000D01*
X147115000Y-85600000D02*
X147785000Y-85600000D01*
X148900000Y-86070000D02*
X148900000Y-86730000D01*
D12*
X146500000Y-88810000D02*
G75*
G02*
X146300000Y-88810000I-100000J0D01*
G01*
X146300000Y-88810000D02*
G75*
G02*
X146500000Y-88810000I100000J0D01*
G01*
D14*
%TO.C,U1*%
X164342500Y-70825000D02*
X164342500Y-71275000D01*
X164342500Y-78045000D02*
X164342500Y-77595000D01*
X164792500Y-70825000D02*
X164342500Y-70825000D01*
X164792500Y-78045000D02*
X164342500Y-78045000D01*
X171112500Y-70825000D02*
X171562500Y-70825000D01*
X171112500Y-78045000D02*
X171562500Y-78045000D01*
X171562500Y-70825000D02*
X171562500Y-71275000D01*
X171562500Y-78045000D02*
X171562500Y-77595000D01*
X163752500Y-71275000D02*
X163412500Y-70805000D01*
X164092500Y-70805000D01*
X163752500Y-71275000D01*
G36*
X163752500Y-71275000D02*
G01*
X163412500Y-70805000D01*
X164092500Y-70805000D01*
X163752500Y-71275000D01*
G37*
%TO.C,R14*%
X161050000Y-53522064D02*
X161050000Y-52067936D01*
X162870000Y-53522064D02*
X162870000Y-52067936D01*
%TO.C,C19*%
X145711252Y-81670000D02*
X144288748Y-81670000D01*
X145711252Y-83490000D02*
X144288748Y-83490000D01*
%TO.C,R11*%
X196810000Y-71427064D02*
X196810000Y-69972936D01*
X198630000Y-71427064D02*
X198630000Y-69972936D01*
%TO.C,U3*%
X177800000Y-81165000D02*
X177800000Y-93635000D01*
X177800000Y-93635000D02*
X188200000Y-93635000D01*
X177860000Y-84865000D02*
X177860000Y-89935000D01*
X177860000Y-89935000D02*
X188140000Y-89935000D01*
X188140000Y-84865000D02*
X177860000Y-84865000D01*
X188140000Y-86400000D02*
X188140000Y-84865000D01*
X188140000Y-89935000D02*
X188140000Y-88400000D01*
X188200000Y-81165000D02*
X177800000Y-81165000D01*
X188200000Y-93635000D02*
X188200000Y-81165000D01*
X188140000Y-88400000D02*
G75*
G02*
X188140000Y-86400000I0J1000000D01*
G01*
D15*
%TO.C,Y2*%
X153520000Y-75230000D02*
X153520000Y-68390000D01*
X158180000Y-75230000D02*
X158180000Y-68390000D01*
X153520000Y-68390000D02*
G75*
G02*
X155850000Y-66060000I2330000J0D01*
G01*
X155850000Y-66060000D02*
G75*
G02*
X158180000Y-68390000I0J-2330000D01*
G01*
X155850000Y-77560000D02*
G75*
G02*
X153520000Y-75230000I-1J2329999D01*
G01*
X158180000Y-75230000D02*
G75*
G02*
X155850000Y-77560000I-2329999J-1D01*
G01*
D14*
%TO.C,D5*%
X197780000Y-90360000D02*
X201665000Y-90360000D01*
X201665000Y-88090000D02*
X197780000Y-88090000D01*
X201665000Y-90360000D02*
X201665000Y-88090000D01*
%TO.C,FB1*%
X159410000Y-80124758D02*
X159410000Y-81795242D01*
X161230000Y-80124758D02*
X161230000Y-81795242D01*
%TO.C,R3*%
X189847936Y-50740000D02*
X191302064Y-50740000D01*
X189847936Y-52560000D02*
X191302064Y-52560000D01*
%TO.C,C18*%
X155520000Y-56958748D02*
X155520000Y-58381252D01*
X157340000Y-56958748D02*
X157340000Y-58381252D01*
%TO.C,C17*%
X156480000Y-48571252D02*
X156480000Y-47148748D01*
X158300000Y-48571252D02*
X158300000Y-47148748D01*
%TO.C,C6*%
X159100000Y-75241252D02*
X159100000Y-73818748D01*
X160920000Y-75241252D02*
X160920000Y-73818748D01*
%TO.C,D3*%
X197820000Y-85395000D02*
X201705000Y-85395000D01*
X201705000Y-83125000D02*
X197820000Y-83125000D01*
X201705000Y-85395000D02*
X201705000Y-83125000D01*
%TO.C,D1*%
X188232500Y-53936250D02*
X188232500Y-56206250D01*
X188232500Y-56206250D02*
X192117500Y-56206250D01*
X192117500Y-53936250D02*
X188232500Y-53936250D01*
%TO.C,SW1*%
X173380000Y-58545000D02*
X177580000Y-58545000D01*
X173380000Y-59745000D02*
X173380000Y-58545000D01*
X173380000Y-67395000D02*
X173380000Y-67745000D01*
X173380000Y-67745000D02*
X177580000Y-67745000D01*
X177580000Y-58545000D02*
X177580000Y-59745000D01*
X177580000Y-67745000D02*
X177580000Y-66545000D01*
X173380000Y-67125000D02*
X172900000Y-66645000D01*
X173380000Y-66645000D01*
X173380000Y-67125000D01*
G36*
X173380000Y-67125000D02*
G01*
X172900000Y-66645000D01*
X173380000Y-66645000D01*
X173380000Y-67125000D01*
G37*
%TO.C,C21*%
X149118748Y-81690000D02*
X150541252Y-81690000D01*
X149118748Y-83510000D02*
X150541252Y-83510000D01*
D13*
%TO.C,G\u002A\u002A\u002A*%
X135400541Y-100093788D02*
X135400540Y-100093781D01*
X135500250Y-91736136D02*
X135597126Y-91801260D01*
X135541453Y-100084002D02*
X135400540Y-100093781D01*
X135560250Y-90716136D02*
X135560250Y-91030529D01*
X135560250Y-91030529D02*
X135570047Y-91258382D01*
X135597126Y-91801260D02*
X135642807Y-91552421D01*
X135666552Y-100315423D02*
X135800503Y-100322306D01*
X135766445Y-100077687D02*
X135541453Y-100084002D01*
X135799798Y-91143669D02*
X135800250Y-90986136D01*
X135800250Y-90986136D02*
X135967250Y-90986136D01*
X135800503Y-100322306D02*
X136055250Y-100331136D01*
X135852750Y-90717977D02*
X135560250Y-90716136D01*
X135971650Y-90720994D02*
X135852750Y-90717977D01*
X135979368Y-91890539D02*
X136018919Y-91909094D01*
X136018919Y-91909094D02*
X136068702Y-91930586D01*
X136055250Y-100331136D02*
X136063442Y-100863636D01*
X136063442Y-100863636D02*
X136071634Y-101396136D01*
X136068702Y-91930586D02*
X136124424Y-91952608D01*
X136071634Y-101396136D02*
X136190250Y-101396136D01*
X136086570Y-91798643D02*
X136059172Y-91811771D01*
X136187441Y-100076136D02*
X135766445Y-100077687D01*
X136190250Y-101396136D02*
X136308866Y-101396136D01*
X136285752Y-91985600D02*
X136431846Y-91997332D01*
X136288012Y-90919936D02*
X136441903Y-90853734D01*
X136308866Y-101396136D02*
X136317058Y-100863636D01*
X136317058Y-100863636D02*
X136325250Y-100331136D01*
X136325250Y-100331136D02*
X136584753Y-100316136D01*
X136431846Y-91997332D02*
X136746183Y-92004532D01*
X136441903Y-90853734D02*
X136293626Y-90786799D01*
X136584753Y-100316136D02*
X136761521Y-100298443D01*
X136660310Y-91737529D02*
X136372536Y-91744944D01*
X136707542Y-100077247D02*
X136187441Y-100076136D01*
X136742463Y-90648037D02*
X136720973Y-90641780D01*
X136746183Y-92004532D02*
X137425772Y-92006112D01*
X136761286Y-90652281D02*
X136742463Y-90648037D01*
X136773451Y-90654322D02*
X136761286Y-90652281D01*
X136861836Y-100083224D02*
X136707542Y-100077247D01*
X136955250Y-90857143D02*
X137075201Y-90914116D01*
X137105261Y-90788476D02*
X136955250Y-90857143D01*
X137270250Y-100076136D02*
X137270250Y-100467861D01*
X137270250Y-100467861D02*
X137270250Y-101150094D01*
X137270250Y-100859586D02*
X137397750Y-100850361D01*
X137357944Y-101308446D02*
X137445635Y-101396136D01*
X137395181Y-91736136D02*
X136660310Y-91737529D01*
X137397750Y-100850361D02*
X137525250Y-100841136D01*
X137406146Y-100076136D02*
X137270250Y-100076136D01*
X137414671Y-90965986D02*
X137621294Y-90973075D01*
X137425772Y-92006112D02*
X138586294Y-92006136D01*
X137445635Y-101396136D02*
X138065811Y-101396136D01*
X137525250Y-100841136D02*
X137533646Y-100458636D01*
X137533646Y-100458636D02*
X137542043Y-100076136D01*
X137542043Y-100076136D02*
X137406146Y-100076136D01*
X137605072Y-101127501D02*
X137403796Y-101134082D01*
X137621294Y-90973075D02*
X138252750Y-90979730D01*
X137656111Y-90720506D02*
X137385543Y-90728552D01*
X138065250Y-101126136D02*
X137605072Y-101127501D01*
X138065811Y-101396136D02*
X138444653Y-101394567D01*
X138252750Y-90979730D02*
X139310250Y-90988324D01*
X138402750Y-90717977D02*
X137656111Y-90720506D01*
X138444653Y-101394567D02*
X138605843Y-101386842D01*
X138562485Y-91736136D02*
X137395181Y-91736136D01*
X138586294Y-92006136D02*
X138805772Y-91843252D01*
X138620250Y-100076136D02*
X138620250Y-100466136D01*
X138620250Y-100466136D02*
X138620250Y-100856136D01*
X138620250Y-100856136D02*
X138755250Y-100856136D01*
X138620250Y-100856136D02*
X139160250Y-101006136D01*
X138755250Y-100076136D02*
X138620250Y-100076136D01*
X138755250Y-100856136D02*
X138890250Y-100856136D01*
X138805772Y-91843252D02*
X138898814Y-91774137D01*
X138823868Y-91542803D02*
X138562485Y-91736136D01*
X138860250Y-101126136D02*
X138065250Y-101126136D01*
X138860250Y-101199136D02*
X138860250Y-101126136D01*
X138890250Y-100076136D02*
X138755250Y-100076136D01*
X138890250Y-100466136D02*
X138890250Y-100076136D01*
X138890250Y-100856136D02*
X138890250Y-100466136D01*
X138898814Y-91774137D02*
X138996891Y-91701156D01*
X138932190Y-91462740D02*
X138823868Y-91542803D01*
X138996891Y-91701156D02*
X139086072Y-91634688D01*
X139041516Y-91382050D02*
X138932190Y-91462740D01*
X139086072Y-91634688D02*
X139148186Y-91588252D01*
X139137622Y-91311217D02*
X139041516Y-91382050D01*
X139148186Y-91588252D02*
X139196707Y-91552960D01*
X139160250Y-100616136D02*
X139160250Y-101006136D01*
X139160250Y-101006136D02*
X139160250Y-101396136D01*
X139160250Y-101006136D02*
X139321475Y-100316136D01*
X139160250Y-101396136D02*
X139287750Y-101396206D01*
X139178146Y-100093068D02*
X139178145Y-100093049D01*
X139196707Y-91552960D02*
X139240756Y-91523195D01*
X139198502Y-91266495D02*
X139137622Y-91311217D01*
X139210001Y-100197151D02*
X139233902Y-100224135D01*
X139240756Y-91523195D02*
X139277884Y-91499863D01*
X139240863Y-100231994D02*
X139321475Y-100316136D01*
X139287750Y-101396206D02*
X139415250Y-101396276D01*
X139298725Y-91504868D02*
X139304503Y-91932355D01*
X139304503Y-91932355D02*
X139308844Y-92411712D01*
X139308844Y-92411712D02*
X139310250Y-92981136D01*
X139310250Y-90988324D02*
X139310250Y-91086436D01*
X139310250Y-92981136D02*
X139310250Y-94466136D01*
X139310250Y-94466136D02*
X139508909Y-94466136D01*
X139310250Y-95080886D02*
X139310909Y-96956011D01*
X139310909Y-96956011D02*
X139312573Y-98152360D01*
X139312573Y-98152360D02*
X139319757Y-98591398D01*
X139319757Y-98591398D02*
X139335564Y-98830159D01*
X139321475Y-100316136D02*
X139962226Y-100316136D01*
X139334029Y-100083974D02*
X139178145Y-100093049D01*
X139371751Y-98963794D02*
X139388068Y-98996103D01*
X139395971Y-100890691D02*
X139995759Y-100880914D01*
X139405610Y-101143484D02*
X139395971Y-100890691D01*
X139415250Y-101396276D02*
X139405610Y-101143484D01*
X139461113Y-94841011D02*
X139310250Y-95080886D01*
X139508909Y-94466136D02*
X139707568Y-94466136D01*
X139513030Y-98932897D02*
X139535492Y-98670468D01*
X139522376Y-94744224D02*
X139461113Y-94841011D01*
X139535492Y-98670468D02*
X139547769Y-98171347D01*
X139547769Y-98171347D02*
X139550250Y-96996331D01*
X139550250Y-90716136D02*
X138402750Y-90717977D01*
X139550250Y-90831136D02*
X139550250Y-90716136D01*
X139550250Y-94196136D02*
X139550364Y-92748636D01*
X139550250Y-95155480D02*
X139703388Y-94908308D01*
X139550250Y-96996331D02*
X139550250Y-95155480D01*
X139550364Y-92748636D02*
X139550479Y-91301136D01*
X139550479Y-91301136D02*
X139722864Y-91166335D01*
X139551507Y-90876436D02*
X139550250Y-90831136D01*
X139555306Y-90917411D02*
X139551507Y-90876436D01*
X139560603Y-90949965D02*
X139555306Y-90917411D01*
X139565317Y-100077783D02*
X139334029Y-100083974D01*
X139581699Y-94651771D02*
X139522376Y-94744224D01*
X139632603Y-94573524D02*
X139581699Y-94651771D01*
X139659772Y-94533636D02*
X139632603Y-94573524D01*
X139660484Y-90914853D02*
X139581481Y-90964948D01*
X139703388Y-94908308D02*
X139893310Y-94604647D01*
X139707568Y-94466136D02*
X139659772Y-94533636D01*
X139712707Y-94196136D02*
X139550250Y-94196136D01*
X139722864Y-91166335D02*
X139800154Y-91106522D01*
X139753179Y-90852010D02*
X139660484Y-90914853D01*
X139800154Y-91106522D02*
X139890200Y-91038026D01*
X139859962Y-90774089D02*
X139753179Y-90852010D01*
X139875165Y-94196136D02*
X139712707Y-94196136D01*
X139890200Y-91038026D02*
X139978640Y-90971660D01*
X139955250Y-100076136D02*
X139565317Y-100077783D01*
X139955250Y-100616136D02*
X139160250Y-100616136D01*
X139962226Y-100316136D02*
X140382116Y-100314837D01*
X139978640Y-90971660D02*
X140050444Y-90918835D01*
X139995759Y-100880914D02*
X140381874Y-100873184D01*
X140042583Y-93933636D02*
X139875165Y-94196136D01*
X140050444Y-90918835D02*
X140205639Y-90806136D01*
X140097750Y-94466341D02*
X140210250Y-94466136D01*
X140135250Y-90567617D02*
X139859962Y-90774089D01*
X140180250Y-97526136D02*
X140271733Y-97573117D01*
X140184101Y-94165903D02*
X140219781Y-94105600D01*
X140205639Y-90806136D02*
X141977337Y-90806136D01*
X140210001Y-93671136D02*
X140042583Y-93933636D01*
X140210125Y-92628636D02*
X140210001Y-93671136D01*
X140210250Y-91586136D02*
X140210125Y-92628636D01*
X140210250Y-94466136D02*
X140210250Y-95792633D01*
X140210250Y-95792633D02*
X140211823Y-96545740D01*
X140211823Y-96545740D02*
X140218754Y-96911537D01*
X140218754Y-96911537D02*
X140232075Y-97129554D01*
X140219781Y-94105600D02*
X140263248Y-94034589D01*
X140219906Y-94191070D02*
X140186078Y-94185737D01*
X140263248Y-94034589D02*
X140314823Y-93953614D01*
X140263492Y-94194894D02*
X140219906Y-94191070D01*
X140269106Y-97271183D02*
X140279775Y-97296874D01*
X140279775Y-97296874D02*
X140300644Y-97338388D01*
X140300644Y-97338388D02*
X140319835Y-97370069D01*
X140314823Y-93953614D02*
X140449396Y-93745585D01*
X140315250Y-94196136D02*
X140263492Y-94194894D01*
X140342815Y-97369492D02*
X140361133Y-97340894D01*
X140381857Y-97301741D02*
X140393633Y-97274713D01*
X140410548Y-100077521D02*
X139955250Y-100076136D01*
X140430093Y-97120661D02*
X140441888Y-96901208D01*
X140441888Y-96901208D02*
X140448714Y-96499961D01*
X140448714Y-96499961D02*
X140450250Y-95665529D01*
X140449396Y-93745585D02*
X140457323Y-92808361D01*
X140449614Y-100617357D02*
X139955250Y-100616136D01*
X140450250Y-94196136D02*
X140315250Y-94196136D01*
X140450250Y-95665529D02*
X140450250Y-94196136D01*
X140457323Y-92808361D02*
X140465250Y-91871136D01*
X140465250Y-91871136D02*
X141620250Y-91856136D01*
X140548957Y-100081975D02*
X140410548Y-100077521D01*
X140600836Y-100622935D02*
X140449614Y-100617357D01*
X141050250Y-100616136D02*
X141050250Y-101006136D01*
X141050250Y-101006136D02*
X141050250Y-101396136D01*
X141050250Y-101396136D02*
X141170250Y-101396136D01*
X141068146Y-100093068D02*
X141068145Y-100093049D01*
X141090050Y-100151743D02*
X141090050Y-100616136D01*
X141100001Y-100197151D02*
X141123902Y-100224135D01*
X141130863Y-100231994D02*
X141211475Y-100316136D01*
X141170250Y-101396136D02*
X141290250Y-101396136D01*
X141211475Y-100316136D02*
X141852226Y-100316136D01*
X141224029Y-100083974D02*
X141068145Y-100093049D01*
X141290250Y-100886136D02*
X141845250Y-100886136D01*
X141290250Y-101141136D02*
X141290250Y-100886136D01*
X141290250Y-101396136D02*
X141290250Y-101141136D01*
X141447750Y-91587865D02*
X140210250Y-91586136D01*
X141455317Y-100077783D02*
X141224029Y-100083974D01*
X141620250Y-91856136D02*
X142309047Y-91845714D01*
X141845250Y-100076136D02*
X141455317Y-100077783D01*
X141845250Y-100616136D02*
X141090050Y-100616136D01*
X141845250Y-100886136D02*
X142400250Y-100886136D01*
X141852226Y-100316136D02*
X142272116Y-100314837D01*
X141934247Y-90566876D02*
X140135250Y-90567617D01*
X141977337Y-90806136D02*
X142993613Y-90804658D01*
X142263735Y-91590276D02*
X141447750Y-91587865D01*
X142300548Y-100077521D02*
X141845250Y-100076136D01*
X142309047Y-91845714D02*
X142608986Y-91834668D01*
X142400250Y-100886136D02*
X142400250Y-101141136D01*
X142400250Y-101141136D02*
X142400250Y-101396136D01*
X142400250Y-101396136D02*
X142520250Y-101396136D01*
X142438957Y-100081975D02*
X142300548Y-100077521D01*
X142493936Y-91596738D02*
X142263735Y-91590276D01*
X142520250Y-101396136D02*
X142640250Y-101396136D01*
X142608986Y-91834668D02*
X142780362Y-91817626D01*
X142640250Y-100616136D02*
X141845250Y-100616136D01*
X142640250Y-101006136D02*
X142640250Y-100616136D01*
X142640250Y-101396136D02*
X142640250Y-101006136D01*
X142877828Y-91785242D02*
X142980567Y-91729260D01*
X142957758Y-100076136D02*
X143084004Y-100204772D01*
X142974681Y-90567914D02*
X141934247Y-90566876D01*
X142980567Y-91729260D02*
X142829919Y-91658013D01*
X142993613Y-90804658D02*
X143467971Y-90797921D01*
X143084004Y-100204772D02*
X143210250Y-100333407D01*
X143151879Y-100076136D02*
X142957758Y-100076136D01*
X143210250Y-100333407D02*
X143210250Y-100864772D01*
X143210250Y-100864772D02*
X143210250Y-101396136D01*
X143210250Y-101396136D02*
X143330250Y-101396136D01*
X143330250Y-101396136D02*
X143450250Y-101396136D01*
X143346000Y-100076136D02*
X143151879Y-100076136D01*
X143450250Y-101006136D02*
X143451899Y-100856595D01*
X143450250Y-101396136D02*
X143450250Y-101006136D01*
X143451899Y-100856595D02*
X143456987Y-100730698D01*
X143453158Y-90574489D02*
X142974681Y-90567914D01*
X143456987Y-100730698D02*
X143463923Y-100624825D01*
X143467971Y-90797921D02*
X143747822Y-90785494D01*
X143489023Y-100622650D02*
X143603687Y-100730698D01*
X143525250Y-91730952D02*
X143672864Y-91794678D01*
X143603687Y-100730698D02*
X143734424Y-100856632D01*
X143660320Y-91659863D02*
X143525250Y-91730952D01*
X143715020Y-90586278D02*
X143453158Y-90574489D01*
X143734424Y-100856632D02*
X143885250Y-101006136D01*
X143795250Y-100526136D02*
X143346000Y-100076136D01*
X143885250Y-101006136D02*
X144134791Y-101253463D01*
X143891664Y-90748284D02*
X143915683Y-90737818D01*
X143910988Y-90635661D02*
X143861891Y-90615272D01*
X143952502Y-90656530D02*
X143910988Y-90635661D01*
X143954822Y-90717138D02*
X143986319Y-90696961D01*
X143969123Y-100698647D02*
X143795250Y-100526136D01*
X143983418Y-90675258D02*
X143952502Y-90656530D01*
X143995997Y-91853952D02*
X144112737Y-91856136D01*
X144065675Y-91584993D02*
X143935827Y-91588307D01*
X144112737Y-91856136D02*
X144410250Y-91856136D01*
X144119252Y-100843948D02*
X143969123Y-100698647D01*
X144151122Y-91377416D02*
X144142513Y-91523118D01*
X144164923Y-91266209D02*
X144154996Y-91346199D01*
X144227656Y-91055875D02*
X144216120Y-91082185D01*
X144251920Y-100969980D02*
X144119252Y-100843948D01*
X144283530Y-100843948D02*
X144276636Y-100967355D01*
X144285385Y-90971270D02*
X144296722Y-90792085D01*
X144288606Y-100698685D02*
X144283530Y-100843948D01*
X144290250Y-100076136D02*
X144290250Y-100526136D01*
X144290250Y-100526136D02*
X144288606Y-100698685D01*
X144295426Y-90893223D02*
X144285385Y-90971270D01*
X144296722Y-90792085D02*
X143990250Y-90686954D01*
X144402350Y-101396136D02*
X144530250Y-101396136D01*
X144410250Y-91856136D02*
X144410226Y-91563665D01*
X144410250Y-100076136D02*
X144290250Y-100076136D01*
X144530250Y-100076136D02*
X144410250Y-100076136D01*
X144530250Y-100736136D02*
X144530250Y-100076136D01*
X144530250Y-101396136D02*
X144530250Y-100736136D01*
X135380250Y-100115523D02*
G75*
G02*
X135400541Y-100093788I21800J-13D01*
G01*
X135385411Y-100135722D02*
G75*
G02*
X135380269Y-100115523I37839J20386D01*
G01*
X135404559Y-100166630D02*
G75*
G02*
X135385411Y-100135722I274591J191494D01*
G01*
X135431325Y-100200950D02*
G75*
G02*
X135404558Y-100166630I309925J269314D01*
G01*
X135443216Y-91876277D02*
G75*
G02*
X135456282Y-91801777I171934J8241D01*
G01*
X135456285Y-91801778D02*
G75*
G02*
X135500235Y-91736122I190165J-79758D01*
G01*
X135463003Y-100234193D02*
G75*
G02*
X135431326Y-100200950I348247J363557D01*
G01*
X135463223Y-91952409D02*
G75*
G02*
X135443201Y-91876278I168727J85073D01*
G01*
X135500250Y-91736136D02*
G75*
G02*
X135531566Y-91711733I114000J-114000D01*
G01*
X135513886Y-92022500D02*
G75*
G02*
X135463230Y-91952406I191664J191864D01*
G01*
X135518549Y-100277775D02*
G75*
G02*
X135463003Y-100234193I192901J303039D01*
G01*
X135531565Y-91711731D02*
G75*
G02*
X135571326Y-91692607I125585J-210205D01*
G01*
X135566633Y-91867072D02*
G75*
G02*
X135597115Y-91801249I105017J-8664D01*
G01*
X135571325Y-91692605D02*
G75*
G02*
X135615652Y-91680278I93325J-249731D01*
G01*
X135573960Y-100301922D02*
G75*
G02*
X135518550Y-100277774I49090J188286D01*
G01*
X135585192Y-92074819D02*
G75*
G02*
X135513891Y-92022495I135058J258783D01*
G01*
X135589703Y-91929604D02*
G75*
G02*
X135566612Y-91867070I55347J55968D01*
G01*
X135597126Y-91801260D02*
G75*
G02*
X135635280Y-91777319I71124J-70976D01*
G01*
X135600412Y-91443359D02*
G75*
G02*
X135570047Y-91258382I1186338J289723D01*
G01*
X135615653Y-91680285D02*
G75*
G02*
X135660600Y-91676136I44897J-240851D01*
G01*
X135635275Y-91777305D02*
G75*
G02*
X135677043Y-91774812I25275J-72331D01*
G01*
X135642807Y-91552421D02*
G75*
G02*
X135600416Y-91443358I392643J215385D01*
G01*
X135655358Y-91956316D02*
G75*
G02*
X135589698Y-91929609I-808J92080D01*
G01*
X135658503Y-92092812D02*
G75*
G02*
X135585196Y-92074812I147J158876D01*
G01*
X135660600Y-91676136D02*
G75*
G02*
X135778533Y-91708675I50J-229800D01*
G01*
X135666552Y-100315423D02*
G75*
G02*
X135573962Y-100301916I14498J423487D01*
G01*
X135677043Y-91774814D02*
G75*
G02*
X135717620Y-91795041I-20093J-91122D01*
G01*
X135689327Y-91559059D02*
G75*
G02*
X135642806Y-91552421I-20777J20723D01*
G01*
X135717621Y-91795039D02*
G75*
G02*
X135752036Y-91835392I-110271J-128897D01*
G01*
X135728606Y-91931731D02*
G75*
G02*
X135655358Y-91956345I-73656J97895D01*
G01*
X135730036Y-91497340D02*
G75*
G02*
X135689326Y-91559058I-170386J68104D01*
G01*
X135730688Y-92074806D02*
G75*
G02*
X135658503Y-92092839I-72238J135670D01*
G01*
X135752035Y-91835393D02*
G75*
G02*
X135766037Y-91864722I-133085J-81543D01*
G01*
X135755781Y-91907896D02*
G75*
G02*
X135728605Y-91931730I-159331J154260D01*
G01*
X135765771Y-91389629D02*
G75*
G02*
X135730037Y-91497340I-908721J241693D01*
G01*
X135766038Y-91864722D02*
G75*
G02*
X135767173Y-91887198I-36588J-13114D01*
G01*
X135767197Y-91887204D02*
G75*
G02*
X135755793Y-91907908I-44047J10768D01*
G01*
X135778521Y-91708695D02*
G75*
G02*
X135852493Y-91795503I-90971J-152441D01*
G01*
X135791100Y-91264800D02*
G75*
G02*
X135765770Y-91389629I-1056350J149364D01*
G01*
X135798771Y-92022711D02*
G75*
G02*
X135730689Y-92074808I-191921J180275D01*
G01*
X135799798Y-91143669D02*
G75*
G02*
X135791099Y-91264800I-882948J2533D01*
G01*
X135852488Y-91795505D02*
G75*
G02*
X135859896Y-91911767I-173638J-69431D01*
G01*
X135859869Y-91911760D02*
G75*
G02*
X135798773Y-92022713I-247019J63724D01*
G01*
X135964136Y-91880022D02*
G75*
G02*
X135964595Y-91869226I5214J5186D01*
G01*
X135964578Y-91869206D02*
G75*
G02*
X135992316Y-91848332I192872J-227430D01*
G01*
X135971650Y-90720994D02*
G75*
G02*
X136116715Y-90732711I-6400J-983142D01*
G01*
X135979368Y-91890539D02*
G75*
G02*
X135964145Y-91880013I21182J46903D01*
G01*
X135992316Y-91848332D02*
G75*
G02*
X136033741Y-91823957I243834J-367004D01*
G01*
X136047690Y-90981783D02*
G75*
G02*
X135967250Y-90986134I-80240J737647D01*
G01*
X136059172Y-91811771D02*
G75*
G02*
X136207946Y-91762419I230578J-446165D01*
G01*
X136116716Y-90732706D02*
G75*
G02*
X136204556Y-90753048I-95666J-612930D01*
G01*
X136130699Y-90968748D02*
G75*
G02*
X136047690Y-90981783I-178249J864312D01*
G01*
X136204556Y-90753048D02*
G75*
G02*
X136293626Y-90786799I-228406J-737188D01*
G01*
X136207944Y-91762409D02*
G75*
G02*
X136372536Y-91744948I232506J-1407227D01*
G01*
X136212157Y-90947846D02*
G75*
G02*
X136130699Y-90968747I-260207J844910D01*
G01*
X136285752Y-91985600D02*
G75*
G02*
X136124423Y-91952610I21798J517564D01*
G01*
X136288012Y-90919936D02*
G75*
G02*
X136212157Y-90947846I-297162J690600D01*
G01*
X136494965Y-90819073D02*
G75*
G02*
X136538533Y-90718953I235785J-43063D01*
G01*
X136501425Y-90923646D02*
G75*
G02*
X136494983Y-90819076I208225J65310D01*
G01*
X136538532Y-90718952D02*
G75*
G02*
X136619712Y-90656321I151918J-112984D01*
G01*
X136556925Y-90999435D02*
G75*
G02*
X136501426Y-90923646I83825J119599D01*
G01*
X136619711Y-90656320D02*
G75*
G02*
X136647738Y-90647172I80239J-198316D01*
G01*
X136647738Y-90647171D02*
G75*
G02*
X136677733Y-90641503I62412J-248065D01*
G01*
X136656398Y-91042161D02*
G75*
G02*
X136556926Y-90999433I52952J260425D01*
G01*
X136677734Y-90641507D02*
G75*
G02*
X136705290Y-90639804I27116J-214929D01*
G01*
X136705290Y-90639804D02*
G75*
G02*
X136720974Y-90641774I-140J-64532D01*
G01*
X136757776Y-91037457D02*
G75*
G02*
X136656398Y-91042160I-60026J198921D01*
G01*
X136791933Y-90656136D02*
G75*
G02*
X136773450Y-90654329I17J95600D01*
G01*
X136791933Y-90656136D02*
G75*
G02*
X136827729Y-90676140I17J-42000D01*
G01*
X136827721Y-90676145D02*
G75*
G02*
X136867843Y-90753748I-501571J-308491D01*
G01*
X136842234Y-90985824D02*
G75*
G02*
X136757783Y-91037481I-141084J135788D01*
G01*
X136861836Y-100083224D02*
G75*
G02*
X136961415Y-100100345I-1386J-306212D01*
G01*
X136867839Y-90753750D02*
G75*
G02*
X136896658Y-90839631I-527189J-224686D01*
G01*
X136871715Y-100265956D02*
G75*
G02*
X136761521Y-100298441I-166165J360520D01*
G01*
X136894830Y-90897458D02*
G75*
G02*
X136842245Y-90985834I-215380J68322D01*
G01*
X136896652Y-90839633D02*
G75*
G02*
X136894832Y-90897459I-102902J-25703D01*
G01*
X136939577Y-100213126D02*
G75*
G02*
X136871715Y-100265956I-147127J118990D01*
G01*
X136961414Y-100100346D02*
G75*
G02*
X136979479Y-100134200I-9264J-26690D01*
G01*
X136979451Y-100134193D02*
G75*
G02*
X136939579Y-100213127I-203301J53157D01*
G01*
X137105261Y-90788476D02*
G75*
G02*
X137230555Y-90748001I234989J-513260D01*
G01*
X137181045Y-90946627D02*
G75*
G02*
X137075207Y-90914104I57805J376591D01*
G01*
X137230557Y-90748013D02*
G75*
G02*
X137385543Y-90728552I214993J-1085323D01*
G01*
X137270250Y-101150094D02*
G75*
G02*
X137403796Y-101134082I200300J-1105642D01*
G01*
X137270250Y-101173444D02*
G75*
G02*
X137293550Y-101146088I27700J8D01*
G01*
X137275871Y-101197353D02*
G75*
G02*
X137270251Y-101173444I48079J23917D01*
G01*
X137296010Y-101232614D02*
G75*
G02*
X137275871Y-101197353I297640J193378D01*
G01*
X137324377Y-101271398D02*
G75*
G02*
X137296010Y-101232614I334273J274262D01*
G01*
X137357944Y-101308446D02*
G75*
G02*
X137324376Y-101271399I359106J359110D01*
G01*
X137414671Y-90965986D02*
G75*
G02*
X137181045Y-90946630I21679J1681250D01*
G01*
X138700924Y-101369050D02*
G75*
G02*
X138605843Y-101386842I-138074J474914D01*
G01*
X138773119Y-101334093D02*
G75*
G02*
X138700921Y-101369040I-139069J195257D01*
G01*
X138809913Y-101303103D02*
G75*
G02*
X138773117Y-101334090I-209863J211867D01*
G01*
X138837415Y-101269190D02*
G75*
G02*
X138809908Y-101303098I-170565J110254D01*
G01*
X138854465Y-101233978D02*
G75*
G02*
X138837408Y-101269186I-153115J52442D01*
G01*
X138860250Y-101199136D02*
G75*
G02*
X138854480Y-101233983I-107500J-100D01*
G01*
X139160250Y-100111994D02*
G75*
G02*
X139178146Y-100093068I19000J-42D01*
G01*
X139165082Y-100130960D02*
G75*
G02*
X139160230Y-100111994I34868J19024D01*
G01*
X139183930Y-100162036D02*
G75*
G02*
X139165082Y-100130960I324720J218200D01*
G01*
X139233902Y-100224135D02*
G75*
G02*
X139183937Y-100162031I333048J319099D01*
G01*
X139255023Y-91220587D02*
G75*
G02*
X139198504Y-91266498I-499973J557751D01*
G01*
X139277884Y-91499863D02*
G75*
G02*
X139290686Y-91496134I12966J-20673D01*
G01*
X139287855Y-91181495D02*
G75*
G02*
X139255023Y-91220587I-153705J95759D01*
G01*
X139290686Y-91496136D02*
G75*
G02*
X139298734Y-91504869I-136J-8200D01*
G01*
X139304663Y-91139780D02*
G75*
G02*
X139287869Y-91181504I-127913J27244D01*
G01*
X139310250Y-91086436D02*
G75*
G02*
X139304668Y-91139781I-257700J0D01*
G01*
X139388068Y-98996103D02*
G75*
G02*
X139335569Y-98830159I375482J210067D01*
G01*
X139421891Y-99050604D02*
G75*
G02*
X139397188Y-99014155I198859J161368D01*
G01*
X139442909Y-99070324D02*
G75*
G02*
X139421890Y-99050605I61941J87088D01*
G01*
X139456998Y-99068794D02*
G75*
G02*
X139442876Y-99070370I-7948J7158D01*
G01*
X139513030Y-98932897D02*
G75*
G02*
X139457007Y-99068803I-216780J9861D01*
G01*
X139567462Y-90963348D02*
G75*
G02*
X139560628Y-90949961I17188J17212D01*
G01*
X139581481Y-90964948D02*
G75*
G02*
X139567448Y-90963362I-6031J9512D01*
G01*
X139893310Y-94604647D02*
G75*
G02*
X139959796Y-94516440I564840J-356589D01*
G01*
X139959791Y-94516436D02*
G75*
G02*
X140016824Y-94479222I97359J-86900D01*
G01*
X140016825Y-94479225D02*
G75*
G02*
X140097750Y-94466354I81425J-251111D01*
G01*
X140123216Y-97666277D02*
G75*
G02*
X140136282Y-97591777I171934J8241D01*
G01*
X140136285Y-97591778D02*
G75*
G02*
X140180235Y-97526122I190165J-79758D01*
G01*
X140143223Y-97742409D02*
G75*
G02*
X140123201Y-97666278I168727J85073D01*
G01*
X140180250Y-94178889D02*
G75*
G02*
X140184107Y-94165907I23600J53D01*
G01*
X140180250Y-97526136D02*
G75*
G02*
X140245694Y-97483351I134900J-134900D01*
G01*
X140186078Y-94185737D02*
G75*
G02*
X140180265Y-94178889I1072J6801D01*
G01*
X140193886Y-97812500D02*
G75*
G02*
X140143230Y-97742406I191664J191864D01*
G01*
X140243996Y-97622036D02*
G75*
G02*
X140271741Y-97573127I77254J-11500D01*
G01*
X140245624Y-97696884D02*
G75*
G02*
X140244010Y-97622038I218326J42148D01*
G01*
X140245694Y-97483351D02*
G75*
G02*
X140325040Y-97468546I78556J-200985D01*
G01*
X140267380Y-97866093D02*
G75*
G02*
X140193886Y-97812500I134370J261457D01*
G01*
X140269106Y-97271183D02*
G75*
G02*
X140232064Y-97129555I402944J181047D01*
G01*
X140271733Y-97573117D02*
G75*
G02*
X140322159Y-97559103I41117J-50219D01*
G01*
X140275731Y-97741036D02*
G75*
G02*
X140245625Y-97696884I36019J56900D01*
G01*
X140322159Y-97559101D02*
G75*
G02*
X140385375Y-97582488I-23309J-160135D01*
G01*
X140325040Y-97468556D02*
G75*
G02*
X140405644Y-97483935I-890J-223580D01*
G01*
X140331068Y-97376136D02*
G75*
G02*
X140319835Y-97370069I-18J13400D01*
G01*
X140332002Y-97754278D02*
G75*
G02*
X140275731Y-97741036I-8952J88142D01*
G01*
X140342733Y-97883566D02*
G75*
G02*
X140267381Y-97866091I-2983J158330D01*
G01*
X140342815Y-97369492D02*
G75*
G02*
X140331068Y-97376117I-11665J6956D01*
G01*
X140385375Y-97582488D02*
G75*
G02*
X140399989Y-97597471I-24125J-38148D01*
G01*
X140387900Y-97730072D02*
G75*
G02*
X140332000Y-97754264I-66350J76636D01*
G01*
X140393633Y-97274713D02*
G75*
G02*
X140361135Y-97340895I-451583J180677D01*
G01*
X140399999Y-97597465D02*
G75*
G02*
X140410751Y-97621481I-89249J-54371D01*
G01*
X140405645Y-97483932D02*
G75*
G02*
X140474594Y-97527304I-79395J-202704D01*
G01*
X140410739Y-97621485D02*
G75*
G02*
X140416259Y-97650252I-128389J-39551D01*
G01*
X140414558Y-97862986D02*
G75*
G02*
X140342733Y-97883546I-74708J125250D01*
G01*
X140415375Y-97679529D02*
G75*
G02*
X140387912Y-97730086I-81425J11493D01*
G01*
X140416264Y-97650252D02*
G75*
G02*
X140415375Y-97679529I-133914J-10584D01*
G01*
X140430093Y-97120661D02*
G75*
G02*
X140401890Y-97255743I-398543J12725D01*
G01*
X140474593Y-97527305D02*
G75*
G02*
X140520632Y-97588871I-146743J-157731D01*
G01*
X140478073Y-97807090D02*
G75*
G02*
X140414557Y-97862985I-183123J144054D01*
G01*
X140520636Y-97588869D02*
G75*
G02*
X140537336Y-97657755I-141486J-70767D01*
G01*
X140522791Y-97731515D02*
G75*
G02*
X140478083Y-97807098I-307341J130779D01*
G01*
X140526110Y-100862769D02*
G75*
G02*
X140381874Y-100873185I-177760J1457733D01*
G01*
X140531939Y-100306912D02*
G75*
G02*
X140382116Y-100314834I-154389J1499176D01*
G01*
X140537345Y-97657755D02*
G75*
G02*
X140522789Y-97731514I-182595J-2281D01*
G01*
X140548957Y-100081975D02*
G75*
G02*
X140727268Y-100095822I-7807J-1255561D01*
G01*
X140600836Y-100622935D02*
G75*
G02*
X140725248Y-100638773I-2486J-516101D01*
G01*
X140607633Y-100840973D02*
G75*
G02*
X140526109Y-100862758I-118183J278837D01*
G01*
X140612631Y-100285903D02*
G75*
G02*
X140531941Y-100306928I-109181J253667D01*
G01*
X140672899Y-100798407D02*
G75*
G02*
X140607632Y-100840972I-151949J161671D01*
G01*
X140676614Y-100242500D02*
G75*
G02*
X140612632Y-100285906I-145264J145264D01*
G01*
X140702499Y-100766534D02*
G75*
G02*
X140672897Y-100798405I-249649J202198D01*
G01*
X140704796Y-100210902D02*
G75*
G02*
X140676614Y-100242500I-290646J230866D01*
G01*
X140725249Y-100638770D02*
G75*
G02*
X140750244Y-100670907I-8199J-32166D01*
G01*
X140727268Y-100095819D02*
G75*
G02*
X140750267Y-100122500I-4018J-26717D01*
G01*
X140727528Y-100730953D02*
G75*
G02*
X140702504Y-100766538I-273178J165517D01*
G01*
X140728619Y-100176875D02*
G75*
G02*
X140704792Y-100210899I-292869J179739D01*
G01*
X140744942Y-100696971D02*
G75*
G02*
X140727527Y-100730953I-243892J103535D01*
G01*
X140745352Y-100145276D02*
G75*
G02*
X140728620Y-100176875I-256402J115540D01*
G01*
X140750250Y-100122500D02*
G75*
G02*
X140745357Y-100145278I-55300J-36D01*
G01*
X140750250Y-100670907D02*
G75*
G02*
X140744949Y-100696974I-66600J-29D01*
G01*
X141050250Y-100111994D02*
G75*
G02*
X141068146Y-100093068I19000J-42D01*
G01*
X141073930Y-100162036D02*
G75*
G02*
X141055082Y-100130960I324720J218200D01*
G01*
X141090050Y-100151743D02*
G75*
G02*
X141050243Y-100111994I0J39807D01*
G01*
X141123902Y-100224135D02*
G75*
G02*
X141073937Y-100162031I333048J319099D01*
G01*
X142421939Y-100306912D02*
G75*
G02*
X142272116Y-100314834I-154389J1499176D01*
G01*
X142438957Y-100081975D02*
G75*
G02*
X142617268Y-100095822I-7807J-1255561D01*
G01*
X142493936Y-91596738D02*
G75*
G02*
X142706603Y-91617892I-5186J-1131698D01*
G01*
X142502631Y-100285903D02*
G75*
G02*
X142421941Y-100306928I-109181J253667D01*
G01*
X142566614Y-100242500D02*
G75*
G02*
X142502632Y-100285906I-145264J145264D01*
G01*
X142594796Y-100210902D02*
G75*
G02*
X142566614Y-100242500I-290646J230866D01*
G01*
X142617268Y-100095819D02*
G75*
G02*
X142640267Y-100122500I-4018J-26717D01*
G01*
X142618619Y-100176875D02*
G75*
G02*
X142594792Y-100210899I-292869J179739D01*
G01*
X142635352Y-100145276D02*
G75*
G02*
X142618620Y-100176875I-256402J115540D01*
G01*
X142640250Y-100122500D02*
G75*
G02*
X142635357Y-100145278I-55300J-36D01*
G01*
X142706603Y-91617893D02*
G75*
G02*
X142829919Y-91658014I-103353J-527243D01*
G01*
X142877828Y-91785242D02*
G75*
G02*
X142780362Y-91817627I-138778J254806D01*
G01*
X143059295Y-91742542D02*
G75*
G02*
X143068118Y-91643281I336555J20106D01*
G01*
X143068119Y-91643281D02*
G75*
G02*
X143107400Y-91573286I143931J-34755D01*
G01*
X143079792Y-91838703D02*
G75*
G02*
X143059299Y-91742542I307358J115767D01*
G01*
X143107393Y-91573279D02*
G75*
G02*
X143206270Y-91525919I116657J-116657D01*
G01*
X143126925Y-91899435D02*
G75*
G02*
X143079789Y-91838704I74525J106499D01*
G01*
X143206270Y-91525923D02*
G75*
G02*
X143322878Y-91545669I23380J-216113D01*
G01*
X143235071Y-91940388D02*
G75*
G02*
X143126926Y-91899434I26579J233452D01*
G01*
X143322876Y-91545672D02*
G75*
G02*
X143415786Y-91624968I-100526J-211864D01*
G01*
X143342785Y-91921082D02*
G75*
G02*
X143235069Y-91940403I-86235J170846D01*
G01*
X143415786Y-91624968D02*
G75*
G02*
X143450254Y-91736136I-162036J-111168D01*
G01*
X143421274Y-91846207D02*
G75*
G02*
X143342795Y-91921102I-163224J92471D01*
G01*
X143450250Y-91736136D02*
G75*
G02*
X143421268Y-91846204I-223500J0D01*
G01*
X143463923Y-100624825D02*
G75*
G02*
X143473183Y-100616089I9327J-611D01*
G01*
X143473183Y-100616136D02*
G75*
G02*
X143489044Y-100622629I-33J-22700D01*
G01*
X143660320Y-91659863D02*
G75*
G02*
X143731852Y-91627499I307530J-584473D01*
G01*
X143715020Y-90586278D02*
G75*
G02*
X143861896Y-90615260I-11070J-442758D01*
G01*
X143731854Y-91627505D02*
G75*
G02*
X143804101Y-91605301I202496J-530231D01*
G01*
X143757245Y-91824546D02*
G75*
G02*
X143672864Y-91794678I194605J683910D01*
G01*
X143804100Y-91605295D02*
G75*
G02*
X143881276Y-91592282I139850J-594041D01*
G01*
X143846252Y-91843403D02*
G75*
G02*
X143757245Y-91824547I93398J660367D01*
G01*
X143881276Y-91592282D02*
G75*
G02*
X143935827Y-91588306I93474J-906254D01*
G01*
X143891664Y-90748284D02*
G75*
G02*
X143747822Y-90785492I-169714J359448D01*
G01*
X143983418Y-90675258D02*
G75*
G02*
X143990248Y-90686954I-6568J-11678D01*
G01*
X143986319Y-90696961D02*
G75*
G02*
X143915686Y-90737824I-276769J396925D01*
G01*
X143990250Y-90686954D02*
G75*
G02*
X143984702Y-90698047I-13900J18D01*
G01*
X143995997Y-91853952D02*
G75*
G02*
X143846252Y-91843406I53J1069116D01*
G01*
X144081343Y-90680805D02*
G75*
G02*
X144103000Y-90603782I167107J-5431D01*
G01*
X144097821Y-90759823D02*
G75*
G02*
X144081344Y-90680805I154229J73387D01*
G01*
X144103014Y-90603790D02*
G75*
G02*
X144159301Y-90538319I195036J-110746D01*
G01*
X144113541Y-91575742D02*
G75*
G02*
X144065675Y-91584992I-48791J124006D01*
G01*
X144134333Y-91555685D02*
G75*
G02*
X144113540Y-91575740I-34583J15049D01*
G01*
X144142513Y-91523118D02*
G75*
G02*
X144134332Y-91555684I-104663J8982D01*
G01*
X144149684Y-90830907D02*
G75*
G02*
X144097821Y-90759823I162566J173071D01*
G01*
X144154996Y-91346199D02*
G75*
G02*
X144185882Y-91171623I934654J-75337D01*
G01*
X144159296Y-90538313D02*
G75*
G02*
X144233001Y-90492802I236654J-300823D01*
G01*
X144185878Y-91171622D02*
G75*
G02*
X144216120Y-91082185I808672J-223614D01*
G01*
X144201892Y-90653562D02*
G75*
G02*
X144221525Y-90614881I68558J-10474D01*
G01*
X144202003Y-90709503D02*
G75*
G02*
X144201907Y-90653564I174047J28267D01*
G01*
X144218999Y-90761481D02*
G75*
G02*
X144201999Y-90709504I155251J79545D01*
G01*
X144219983Y-90877704D02*
G75*
G02*
X144149685Y-90830906I102967J230868D01*
G01*
X144221515Y-90614871D02*
G75*
G02*
X144260030Y-90597425I42535J-42665D01*
G01*
X144227656Y-91055875D02*
G75*
G02*
X144257740Y-90996641I351694J-141361D01*
G01*
X144232999Y-90492797D02*
G75*
G02*
X144298147Y-90479690I59251J-126039D01*
G01*
X144238770Y-101342960D02*
G75*
G02*
X144134791Y-101253463I643280J852524D01*
G01*
X144249052Y-90788444D02*
G75*
G02*
X144218976Y-90761493I20298J52908D01*
G01*
X144257742Y-90996642D02*
G75*
G02*
X144275568Y-90971762I202408J-126194D01*
G01*
X144260031Y-90597443D02*
G75*
G02*
X144310408Y-90605150I7619J-118693D01*
G01*
X144267375Y-100976136D02*
G75*
G02*
X144251904Y-100969997I-25J22500D01*
G01*
X144275567Y-90971762D02*
G75*
G02*
X144285335Y-90971319I5083J-4174D01*
G01*
X144276636Y-100967355D02*
G75*
G02*
X144267375Y-100976136I-9286J519D01*
G01*
X144285385Y-90971270D02*
G75*
G02*
X144334866Y-91050488I-147135J-146966D01*
G01*
X144295426Y-90893223D02*
G75*
G02*
X144219977Y-90877717I-2676J178287D01*
G01*
X144296722Y-90792085D02*
G75*
G02*
X144249051Y-90788446I-17772J81249D01*
G01*
X144298147Y-90479688D02*
G75*
G02*
X144360753Y-90498433I-5697J-132948D01*
G01*
X144310407Y-90605153D02*
G75*
G02*
X144354192Y-90633679I-45357J-117483D01*
G01*
X144315054Y-101382496D02*
G75*
G02*
X144238777Y-101342951I78296J244360D01*
G01*
X144334853Y-91050493D02*
G75*
G02*
X144374499Y-91194115I-1142803J-392743D01*
G01*
X144340653Y-90769333D02*
G75*
G02*
X144296721Y-90792082I-64103J69997D01*
G01*
X144354191Y-90633680D02*
G75*
G02*
X144374222Y-90673758I-47441J-48756D01*
G01*
X144360754Y-90498431D02*
G75*
G02*
X144426614Y-90549772I-174304J-291505D01*
G01*
X144369143Y-90726025D02*
G75*
G02*
X144340653Y-90769333I-99893J34689D01*
G01*
X144369260Y-90875417D02*
G75*
G02*
X144295426Y-90893225I-76010J153181D01*
G01*
X144374198Y-90673761D02*
G75*
G02*
X144369145Y-90726026I-109648J-15775D01*
G01*
X144374500Y-91194115D02*
G75*
G02*
X144401298Y-91371204I-1523550J-321121D01*
G01*
X144401297Y-91371204D02*
G75*
G02*
X144410229Y-91563665I-2074947J-192732D01*
G01*
X144402350Y-101396136D02*
G75*
G02*
X144315052Y-101382502I0J286300D01*
G01*
X144426614Y-90549772D02*
G75*
G02*
X144478064Y-90618515I-213164J-213164D01*
G01*
X144435021Y-90826702D02*
G75*
G02*
X144369263Y-90875422I-167371J157166D01*
G01*
X144478062Y-90618516D02*
G75*
G02*
X144496971Y-90688243I-136412J-74420D01*
G01*
X144482186Y-90757965D02*
G75*
G02*
X144435025Y-90826706I-246736J118729D01*
G01*
X144496981Y-90688243D02*
G75*
G02*
X144482194Y-90757969I-150131J-4593D01*
G01*
D14*
%TO.C,C9*%
X155710000Y-63861252D02*
X155710000Y-62438748D01*
X157530000Y-63861252D02*
X157530000Y-62438748D01*
%TO.C,C4*%
X164261252Y-66520000D02*
X162838748Y-66520000D01*
X164261252Y-68340000D02*
X162838748Y-68340000D01*
%TO.C,R2*%
X159782936Y-58070000D02*
X161237064Y-58070000D01*
X159782936Y-59890000D02*
X161237064Y-59890000D01*
%TO.C,C13*%
X200701252Y-48700000D02*
X199278748Y-48700000D01*
X200701252Y-50520000D02*
X199278748Y-50520000D01*
%TO.C,R10*%
X196750000Y-75552936D02*
X196750000Y-77007064D01*
X198570000Y-75552936D02*
X198570000Y-77007064D01*
%TO.C,D4*%
X197800000Y-82985000D02*
X201685000Y-82985000D01*
X201685000Y-80715000D02*
X197800000Y-80715000D01*
X201685000Y-82985000D02*
X201685000Y-80715000D01*
%TD*%
M02*
